{"glyphs":{"0":{"ha":826,"x_min":0,"x_max":0,"o":"m 414 1008 b 565 968 472 1008 522 995 b 669 858 607 941 641 904 b 729 693 696 811 716 756 b 749 492 742 630 749 563 b 729 290 749 419 742 352 b 669 126 716 227 696 172 b 565 15 641 79 607 42 b 414 -25 522 -12 472 -25 b 263 15 356 -25 305 -12 b 158 126 220 42 185 79 b 97 290 130 172 110 227 b 78 492 84 352 78 419 b 97 693 78 563 84 630 b 158 858 110 756 130 811 b 263 968 185 904 220 941 b 414 1008 305 995 356 1008 m 414 896 b 314 856 373 896 340 883 b 253 756 288 830 268 797 b 224 625 239 716 229 672 b 215 492 218 578 215 533 b 224 358 215 450 218 406 b 253 228 229 311 239 268 b 314 128 268 188 288 155 b 414 89 340 102 373 89 b 512 128 454 89 486 102 b 572 228 537 155 557 188 b 603 358 587 268 597 311 b 611 492 608 406 611 450 b 603 625 611 533 608 578 b 572 756 597 672 587 716 b 512 856 557 797 537 830 b 414 896 486 883 454 896 "},"1":{"ha":826,"x_min":0,"x_max":0,"o":"m 392 0 l 392 819 l 206 664 l 126 757 l 406 983 l 526 983 l 526 0 "},"2":{"ha":826,"x_min":0,"x_max":0,"o":"m 83 0 l 83 129 l 475 518 b 551 614 505 549 530 581 b 583 726 573 647 583 685 b 569 797 583 752 579 776 b 532 850 560 817 548 835 b 476 884 516 865 498 876 b 408 896 455 892 432 896 b 285 848 358 896 317 880 b 224 725 252 816 232 775 l 92 747 b 127 851 97 784 109 819 b 196 934 145 883 168 910 b 292 989 224 958 256 976 b 410 1008 329 1002 368 1008 b 527 990 450 1008 490 1002 b 626 938 565 978 598 961 b 695 850 655 914 678 885 b 721 729 712 815 721 775 b 708 642 721 698 717 669 b 674 565 700 615 689 589 b 624 497 660 541 643 518 b 563 432 604 475 584 453 l 243 121 l 725 121 l 725 0 "},"3":{"ha":826,"x_min":0,"x_max":0,"o":"m 339 569 b 420 577 367 569 394 572 b 490 603 447 582 470 591 b 540 654 511 616 527 633 b 558 733 552 675 558 702 b 544 801 558 758 554 781 b 506 851 535 821 522 838 b 451 884 490 865 472 876 b 385 896 430 892 408 896 b 278 864 343 896 308 885 b 213 775 249 843 227 813 l 90 818 b 206 958 114 877 153 924 b 390 1008 259 991 321 1008 b 506 991 431 1008 470 1003 b 603 940 543 979 575 963 b 669 857 631 918 653 890 b 693 742 685 824 693 785 b 680 664 693 714 689 688 b 644 599 671 640 659 618 b 589 549 628 579 610 563 b 519 518 568 535 544 525 l 519 515 b 599 486 548 510 575 500 b 663 434 624 472 645 455 b 704 363 680 413 694 389 b 719 275 714 336 719 306 b 692 145 719 226 710 183 b 618 51 673 108 649 76 b 513 -6 588 26 552 7 b 390 -25 473 -19 432 -25 b 185 28 313 -25 244 -7 b 56 192 125 63 82 118 l 181 233 b 256 129 195 191 221 156 b 388 89 292 102 336 89 b 460 101 413 89 437 93 b 524 136 484 109 505 120 b 568 194 542 152 557 171 b 585 276 579 218 585 245 b 563 363 585 311 577 339 b 505 419 548 386 528 404 b 425 449 481 433 455 443 b 338 458 395 455 366 458 l 296 458 l 296 569 "},"4":{"ha":826,"x_min":0,"x_max":0,"o":"m 768 336 l 768 221 l 626 221 l 626 0 l 496 0 l 496 221 l 43 221 l 43 343 l 461 983 l 626 983 l 626 336 m 493 829 l 182 336 l 496 336 l 496 829 "},"5":{"ha":826,"x_min":0,"x_max":0,"o":"m 275 864 l 267 606 b 328 619 285 612 306 617 b 393 624 351 622 373 624 b 524 602 440 624 484 616 b 628 540 565 588 599 567 b 697 442 658 513 681 481 b 722 314 714 404 722 361 b 696 174 722 262 713 215 b 624 67 678 132 654 97 b 515 -1 593 38 557 16 b 379 -25 474 -17 428 -25 b 185 28 302 -25 238 -7 b 65 172 132 64 92 112 l 188 221 b 262 125 203 181 228 149 b 379 89 296 101 335 89 b 460 104 408 89 435 94 b 525 147 485 114 506 129 b 569 214 544 166 558 188 b 585 300 579 240 585 269 b 566 397 585 337 578 369 b 515 464 553 424 537 446 b 442 503 494 481 469 494 b 354 515 414 511 385 515 b 240 500 317 515 279 510 b 136 461 201 490 167 477 l 150 983 l 681 983 l 681 864 "},"6":{"ha":826,"x_min":0,"x_max":0,"o":"m 322 585 b 378 604 336 593 355 600 b 444 611 401 609 423 611 b 565 588 487 611 527 603 b 663 524 602 573 635 552 b 728 426 690 497 712 464 b 751 303 744 388 751 347 b 726 169 751 254 743 209 b 654 65 709 128 685 94 b 547 -1 624 37 588 14 b 413 -25 505 -17 461 -25 b 276 -1 363 -25 318 -17 b 169 67 235 16 199 38 b 98 169 139 95 115 130 b 72 299 81 209 72 252 b 99 444 72 352 81 401 b 168 578 116 488 139 532 l 425 983 l 585 983 l 321 588 m 208 297 b 223 216 208 269 213 241 b 265 150 233 191 247 169 b 329 106 283 131 304 117 b 413 89 354 94 382 89 b 495 104 443 89 471 94 b 559 148 520 114 541 129 b 601 215 577 167 591 189 b 615 299 610 240 615 268 b 601 381 615 328 610 356 b 560 446 591 406 578 427 b 497 489 543 464 522 479 b 414 504 472 499 444 504 b 330 489 383 504 355 499 b 265 446 304 479 283 464 b 223 381 247 427 233 406 b 208 297 213 356 208 328 "},"7":{"ha":826,"x_min":0,"x_max":0,"o":"m 321 0 l 167 0 l 576 864 l 89 864 l 89 983 l 715 983 l 715 861 "},"8":{"ha":826,"x_min":0,"x_max":0,"o":"m 557 518 b 630 485 583 512 607 501 b 689 431 653 470 672 452 b 728 357 706 409 719 385 b 743 268 738 329 743 300 b 717 144 743 222 734 181 b 645 53 699 108 675 78 b 540 -5 615 28 580 9 b 414 -25 500 -18 458 -25 b 287 -5 369 -25 327 -18 b 181 53 247 9 211 28 b 110 144 151 78 127 108 b 83 268 92 181 83 222 b 98 358 83 300 88 331 b 138 432 108 386 121 411 b 198 485 155 453 175 471 b 269 518 221 500 244 511 l 269 521 b 160 601 225 537 189 563 b 118 740 132 639 118 686 b 142 851 118 781 126 818 b 206 935 157 884 179 912 b 299 990 232 959 264 977 b 414 1008 335 1002 373 1008 b 528 990 454 1008 492 1002 b 622 937 564 977 595 959 b 685 853 648 914 669 886 b 708 743 700 821 708 784 b 666 603 708 689 694 643 b 557 521 638 563 601 536 l 557 518 m 253 736 b 265 674 253 714 257 693 b 298 623 272 654 284 637 b 349 589 312 609 329 597 b 414 576 369 581 391 576 b 476 589 436 576 457 581 b 528 623 496 597 513 609 b 563 674 543 637 554 654 b 575 736 571 693 575 714 b 562 801 575 759 571 781 b 527 852 553 821 541 838 b 476 885 513 866 496 878 b 414 897 457 893 436 897 b 349 885 391 897 369 893 b 298 852 329 878 312 866 b 265 801 284 838 272 821 b 253 736 257 781 253 759 m 221 275 b 235 199 221 247 225 222 b 274 140 244 175 257 156 b 335 101 291 123 312 111 b 414 88 359 92 385 88 b 491 101 442 88 467 92 b 551 140 515 111 535 123 b 591 199 568 156 581 175 b 606 275 601 222 606 247 b 591 349 606 302 601 327 b 551 408 581 372 568 392 b 491 447 535 425 515 438 b 414 461 467 456 442 461 b 337 447 386 461 360 456 b 276 408 313 438 293 425 b 235 349 259 392 245 372 b 221 275 226 327 221 302 "},"9":{"ha":826,"x_min":0,"x_max":0,"o":"m 506 399 b 449 379 492 390 473 384 b 415 374 438 377 426 376 b 382 372 403 373 392 372 b 261 395 338 372 298 380 b 164 459 224 410 192 432 b 99 557 136 486 114 519 b 75 681 83 595 75 636 b 101 815 75 730 84 774 b 172 918 118 855 142 889 b 281 985 203 947 239 969 b 415 1008 322 1000 367 1008 b 550 984 463 1008 508 1000 b 658 917 592 968 628 945 b 728 814 688 888 711 854 b 754 685 746 774 754 731 b 728 539 754 631 745 582 b 660 406 710 495 688 451 l 403 0 l 243 0 l 507 397 m 619 686 b 605 767 619 715 615 742 b 563 834 595 793 581 815 b 499 879 545 853 524 868 b 415 896 474 890 446 896 b 332 880 385 896 357 891 b 267 836 307 869 285 855 b 226 769 249 818 235 795 b 211 685 216 744 211 715 b 226 603 211 655 216 628 b 267 538 235 578 249 556 b 331 494 284 519 306 505 b 414 479 356 484 383 479 b 498 494 444 479 472 484 b 563 538 523 505 545 519 b 605 603 581 556 595 578 b 619 686 615 628 619 656 "},"\u0000":{"ha":694,"x_min":0,"x_max":0,"o":""},"\r":{"ha":0,"x_min":0,"x_max":0,"o":""}," ":{"ha":347,"x_min":0,"x_max":0,"o":""},"!":{"ha":464,"x_min":0,"x_max":0,"o":"m 163 288 l 163 983 l 300 983 l 300 288 m 325 83 b 299 19 325 59 316 38 b 232 -8 281 1 259 -8 b 166 19 206 -8 184 1 b 139 82 148 37 139 58 b 165 147 139 107 148 128 b 232 174 183 165 205 174 b 299 147 259 174 281 165 b 325 83 316 130 325 108 "},"\"":{"ha":588,"x_min":0,"x_max":0,"o":"m 239 983 l 239 636 l 125 636 l 125 983 m 463 983 l 463 636 l 349 636 l 349 983 "},"#":{"ha":797,"x_min":0,"x_max":0,"o":"m 57 293 l 57 394 l 204 394 l 231 590 l 94 590 l 94 692 l 246 692 l 286 983 l 390 983 l 349 692 l 513 692 l 553 983 l 657 983 l 615 692 l 740 692 l 740 590 l 601 590 l 574 394 l 703 394 l 703 293 l 561 293 l 519 0 l 415 0 l 457 293 l 293 293 l 251 0 l 149 0 l 190 293 m 471 394 l 497 590 l 335 590 l 307 394 "},"$":{"ha":826,"x_min":0,"x_max":0,"o":"m 367 449 b 262 485 331 459 296 471 b 173 540 228 500 198 518 b 111 618 147 561 127 588 b 88 729 95 649 88 686 b 110 839 88 770 95 806 b 172 922 126 871 146 899 b 260 976 197 944 227 962 b 367 999 294 989 330 997 l 367 1096 l 438 1096 l 438 1000 b 584 973 486 999 534 990 b 711 894 634 956 676 930 l 617 807 b 535 868 595 834 568 854 b 438 890 503 882 470 889 l 438 560 b 542 519 473 548 508 534 b 635 463 577 505 608 486 b 701 381 663 441 685 413 b 726 264 718 348 726 309 b 703 147 726 220 719 181 b 641 60 688 113 667 84 b 549 5 615 36 584 17 b 438 -15 513 -8 476 -14 l 438 -115 l 367 -115 l 367 -15 b 194 23 305 -13 247 -1 b 57 122 142 47 96 80 l 158 208 b 203 161 170 191 185 175 b 257 126 220 147 238 135 b 313 103 275 116 294 109 b 367 96 332 98 350 96 l 367 449 m 438 96 b 496 108 458 97 477 101 b 545 140 514 116 531 126 b 580 190 559 153 571 170 b 593 263 589 211 593 235 b 549 368 593 307 578 342 b 438 429 519 394 482 414 l 438 96 m 367 890 b 263 847 326 888 291 873 b 219 738 234 820 219 784 b 260 635 219 693 233 659 b 367 581 288 612 323 594 l 367 890 "},"%":{"ha":1208,"x_min":0,"x_max":0,"o":"m 660 229 b 679 325 660 263 666 295 b 732 403 692 355 710 381 b 810 456 754 425 780 443 b 906 475 839 469 871 475 b 1001 456 940 475 972 469 b 1079 403 1031 443 1057 425 b 1132 325 1101 381 1119 355 b 1151 229 1145 295 1151 263 b 1132 133 1151 195 1145 163 b 1079 56 1119 104 1101 78 b 1001 3 1057 33 1031 16 b 906 -17 972 -10 940 -17 b 810 3 871 -17 839 -10 b 732 56 780 16 754 33 b 679 133 710 78 692 104 b 660 229 666 163 660 195 m 1036 229 b 1026 280 1036 247 1033 264 b 998 322 1019 296 1009 310 b 956 349 986 333 972 342 b 906 360 940 356 923 360 b 854 349 887 360 870 356 b 813 322 838 342 825 333 b 785 280 802 310 792 296 b 775 229 778 264 775 247 b 785 178 775 211 778 194 b 813 137 792 162 802 148 b 854 109 825 125 838 116 b 906 99 870 102 887 99 b 956 109 923 99 940 102 b 998 137 972 116 986 125 b 1026 178 1009 148 1019 162 b 1036 229 1033 194 1036 211 m 57 754 b 76 850 57 788 63 820 b 129 928 89 880 107 906 b 207 981 151 950 177 968 b 303 1000 237 994 269 1000 b 399 981 337 1000 369 994 b 476 928 428 968 454 950 b 529 850 499 906 516 880 b 549 754 542 820 549 788 b 529 658 549 720 542 688 b 476 581 516 629 499 603 b 399 528 454 558 428 541 b 303 508 369 515 337 508 b 207 528 269 508 237 515 b 129 581 177 541 151 558 b 76 658 107 603 89 629 b 57 754 63 688 57 720 m 433 754 b 423 805 433 772 430 789 b 395 847 416 821 407 835 b 353 874 384 858 370 867 b 303 885 337 881 320 885 b 251 874 284 885 267 881 b 210 847 236 867 222 858 b 183 805 199 835 190 821 b 172 754 176 789 172 772 b 183 703 172 736 176 719 b 210 662 190 687 199 673 b 251 634 222 650 236 641 b 303 624 267 627 284 624 b 353 634 320 624 337 627 b 395 662 370 641 384 650 b 423 703 407 673 416 687 b 433 754 430 719 433 736 m 257 1 l 860 1028 l 953 982 l 351 -44 "},"&":{"ha":1004,"x_min":0,"x_max":0,"o":"m 989 0 l 807 0 l 685 129 b 559 21 648 83 606 47 b 386 -18 512 -5 455 -18 b 264 0 344 -18 303 -12 b 162 53 225 12 191 30 b 92 141 133 77 109 106 b 67 261 75 176 67 216 b 85 360 67 298 73 331 b 135 439 98 390 114 416 b 206 500 155 462 179 482 b 288 546 232 518 260 533 b 208 649 256 578 229 613 b 175 771 186 686 175 726 b 197 875 175 811 182 845 b 255 949 211 905 230 929 b 339 994 279 969 307 984 b 438 1008 370 1003 403 1008 b 535 994 472 1008 504 1003 b 615 950 565 984 592 969 b 671 878 638 931 657 906 b 692 778 685 849 692 816 b 674 690 692 745 686 716 b 628 619 663 664 647 641 b 560 563 608 598 586 579 b 481 518 535 546 508 531 l 676 317 l 800 525 l 953 525 l 764 232 m 565 775 b 530 864 565 810 553 840 b 439 900 506 888 476 900 b 344 864 401 900 369 888 b 307 769 319 840 307 808 b 316 722 307 754 310 738 b 339 676 322 706 330 691 b 370 633 348 660 359 646 b 404 599 382 620 393 609 b 464 629 425 608 444 618 b 515 668 483 640 500 653 b 551 717 530 683 542 699 b 565 775 561 734 565 754 m 364 461 b 249 385 316 441 277 415 b 206 264 220 354 206 314 b 221 193 206 238 211 214 b 262 139 231 172 245 154 b 321 105 279 124 299 113 b 389 93 343 97 366 93 b 508 124 436 93 476 103 b 597 217 541 145 570 176 l 364 461 "},"'":{"ha":364,"x_min":0,"x_max":0,"o":"m 239 983 l 239 636 l 125 636 l 125 983 "},"(":{"ha":438,"x_min":0,"x_max":0,"o":"m 165 400 b 214 102 165 298 181 199 b 344 -157 246 5 290 -81 l 250 -218 b 103 65 189 -136 140 -41 b 47 400 66 172 47 283 b 103 735 47 517 66 628 b 250 1018 140 841 189 936 l 344 957 b 214 698 290 881 246 795 b 165 400 181 601 165 502 "},")":{"ha":438,"x_min":0,"x_max":0,"o":"m 272 400 b 224 698 272 502 256 601 b 93 957 191 795 148 881 l 188 1018 b 335 735 249 936 298 841 b 390 400 372 628 390 517 b 335 65 390 283 372 172 b 188 -218 298 -41 249 -136 l 93 -157 b 224 102 148 -81 191 5 b 272 400 256 199 272 298 "},"*":{"ha":631,"x_min":0,"x_max":0,"o":"m 578 756 l 401 699 l 514 547 l 425 481 l 308 638 l 192 481 l 103 547 l 215 699 l 39 756 l 76 861 l 253 804 l 253 983 l 364 983 l 364 804 l 540 861 "},"+":{"ha":925,"x_min":0,"x_max":0,"o":"m 828 478 l 828 364 l 519 364 l 519 56 l 406 56 l 406 364 l 97 364 l 97 478 l 406 478 l 406 786 l 519 786 l 519 478 "},",":{"ha":361,"x_min":0,"x_max":0,"o":"m 47 -185 l 143 163 l 274 163 l 158 -185 "},"-":{"ha":444,"x_min":0,"x_max":0,"o":"m 61 283 l 61 394 l 383 394 l 383 283 "},".":{"ha":361,"x_min":0,"x_max":0,"o":"m 274 83 b 247 19 274 59 265 38 b 181 -8 230 1 207 -8 b 115 19 155 -8 133 1 b 88 82 97 37 88 58 b 114 147 88 107 96 128 b 181 174 131 165 154 174 b 247 147 207 174 230 165 b 274 83 265 130 274 108 "},"/":{"ha":528,"x_min":0,"x_max":0,"o":"m -3 -12 l 424 1031 l 522 994 l 96 -46 "},":":{"ha":417,"x_min":0,"x_max":0,"o":"m 301 576 b 275 512 301 551 293 530 b 208 485 257 494 235 485 b 142 511 182 485 160 494 b 115 575 124 529 115 550 b 142 639 115 599 124 620 b 208 667 159 657 181 667 b 275 640 235 667 257 658 b 301 576 293 622 301 600 m 301 83 b 275 19 301 59 293 38 b 208 -8 257 1 235 -8 b 142 19 182 -8 160 1 b 115 82 124 37 115 58 b 142 147 115 107 124 128 b 208 174 159 165 181 174 b 275 147 235 174 257 165 b 301 83 293 130 301 108 "},";":{"ha":417,"x_min":0,"x_max":0,"o":"m 301 576 b 275 512 301 551 293 530 b 208 485 257 494 235 485 b 142 511 182 485 160 494 b 115 575 124 529 115 550 b 142 639 115 599 124 620 b 208 667 159 657 181 667 b 275 640 235 667 257 658 b 301 576 293 622 301 600 m 60 -185 l 156 163 l 286 163 l 171 -185 "},"<":{"ha":925,"x_min":0,"x_max":0,"o":"m 283 421 l 815 176 l 815 58 l 110 379 l 110 463 l 818 783 l 818 665 "},"=":{"ha":925,"x_min":0,"x_max":0,"o":"m 828 479 l 97 479 l 97 592 l 828 592 m 828 250 l 97 250 l 97 363 l 828 363 "},">":{"ha":925,"x_min":0,"x_max":0,"o":"m 815 463 l 815 379 l 110 58 l 110 176 l 642 421 l 110 665 l 110 783 "},"?":{"ha":694,"x_min":0,"x_max":0,"o":"m 288 279 l 288 346 b 294 411 288 370 290 392 b 315 464 299 431 306 448 b 347 509 323 480 334 495 b 389 553 359 523 373 538 l 440 601 b 491 659 461 619 478 638 b 511 739 504 680 511 706 b 469 845 511 783 497 819 b 360 885 441 872 404 885 b 249 840 313 885 276 870 b 200 732 221 811 205 775 l 67 747 b 101 855 72 787 84 823 b 167 936 119 887 141 914 b 258 987 194 958 224 975 b 368 1004 293 998 329 1004 b 477 988 407 1004 443 999 b 567 938 511 976 541 960 b 628 858 593 916 613 890 b 650 747 643 826 650 789 b 640 669 650 718 647 692 b 613 609 634 647 625 627 b 571 558 602 591 588 574 b 517 510 554 543 536 526 b 469 467 498 494 482 480 b 439 429 456 455 446 442 b 423 386 431 416 426 402 b 418 328 420 370 418 351 l 418 279 m 453 83 b 426 19 453 59 444 38 b 360 -8 409 1 387 -8 b 294 19 334 -8 312 1 b 267 82 276 37 267 58 b 293 147 267 107 275 128 b 360 174 311 165 333 174 b 426 147 387 174 409 165 b 453 83 444 130 453 108 "},"@":{"ha":1111,"x_min":0,"x_max":0,"o":"m 572 664 b 506 644 547 664 525 657 b 458 592 487 630 471 613 b 429 521 445 570 436 547 b 419 444 423 495 419 469 b 424 405 419 432 421 419 b 439 365 426 391 431 377 b 469 333 446 352 456 342 b 519 321 482 325 499 321 b 592 342 548 321 572 328 b 640 395 611 357 627 374 b 667 463 652 416 661 439 b 675 531 672 488 675 510 b 670 579 675 547 673 563 b 653 622 667 595 661 609 b 622 652 646 634 635 644 b 572 664 609 660 593 664 m 1011 142 b 817 15 956 84 892 42 b 576 -25 743 -12 663 -25 b 359 13 497 -25 424 -12 b 192 119 294 39 238 74 b 84 283 145 165 109 219 b 46 490 59 346 46 415 b 88 696 46 564 60 633 b 201 860 115 759 153 813 b 370 969 250 906 306 942 b 576 1008 434 995 503 1008 b 760 981 639 1008 700 999 b 917 897 819 962 872 934 b 1027 758 963 860 1000 814 b 1068 563 1054 703 1068 638 b 1046 415 1068 507 1061 458 b 986 308 1031 373 1011 337 b 899 244 961 280 932 258 b 796 222 866 229 832 222 b 706 251 757 222 727 232 b 675 319 685 270 675 293 l 668 319 b 644 287 663 309 655 298 b 607 255 634 275 622 265 b 558 231 592 245 576 237 b 497 222 540 225 519 222 b 350 285 434 222 385 243 b 297 449 315 328 297 382 b 317 564 297 488 304 526 b 372 665 330 602 348 635 b 459 735 396 694 425 717 b 572 763 493 753 531 763 b 663 740 607 763 638 755 b 713 683 688 724 704 706 l 715 683 l 728 742 l 833 742 l 779 481 b 770 432 776 468 773 451 b 765 382 767 413 765 396 b 775 339 765 366 769 352 b 821 319 781 326 797 319 b 877 337 841 319 860 325 b 921 385 894 348 909 364 b 949 458 933 405 942 430 b 960 551 956 487 960 518 b 931 706 960 610 950 661 b 851 817 912 750 886 787 b 729 885 817 847 776 870 b 575 908 682 901 631 908 b 408 876 514 908 458 898 b 279 788 358 855 315 825 b 196 653 243 750 215 705 b 167 488 176 602 167 547 b 198 317 167 425 177 368 b 285 187 219 266 248 222 b 417 104 322 151 366 124 b 588 75 469 85 525 75 b 791 112 666 75 734 87 b 947 215 848 136 900 171 l 1011 142 "},"A":{"ha":988,"x_min":0,"x_max":0,"o":"m 7 0 l 433 983 l 558 983 l 981 0 l 825 0 l 725 242 l 258 242 l 160 0 m 675 363 l 492 824 l 307 363 "},"B":{"ha":892,"x_min":0,"x_max":0,"o":"m 458 983 b 569 971 495 983 532 979 b 669 929 606 963 640 949 b 740 853 698 910 722 884 b 767 735 758 821 767 782 b 719 597 767 680 751 634 b 594 521 688 560 646 535 l 594 518 b 682 494 626 514 655 506 b 751 444 709 481 732 465 b 797 372 771 424 786 400 b 813 279 807 344 813 313 b 783 156 813 232 803 191 b 704 69 764 120 738 91 b 587 17 671 46 632 29 b 443 0 542 6 494 0 l 119 0 l 119 983 m 436 568 b 510 577 462 568 487 571 b 572 605 534 583 555 592 b 614 652 590 617 604 633 b 629 721 624 671 629 694 b 571 834 629 774 610 811 b 414 868 532 857 480 868 l 257 868 l 257 568 m 429 117 b 516 124 458 117 487 119 b 595 151 545 129 572 138 b 652 203 619 164 638 182 b 674 286 666 225 674 253 b 614 413 674 344 654 387 b 442 451 574 438 517 451 l 257 451 l 257 117 "},"C":{"ha":983,"x_min":0,"x_max":0,"o":"m 963 153 b 811 24 924 100 873 57 b 588 -25 749 -9 675 -25 b 380 13 513 -25 443 -12 b 216 120 316 39 262 74 b 108 284 170 166 134 221 b 69 493 82 347 69 417 b 109 703 69 570 83 640 b 219 866 135 767 172 821 b 385 971 266 911 321 946 b 593 1008 449 996 518 1008 b 694 999 626 1008 660 1005 b 793 969 729 992 762 982 b 879 922 825 956 853 941 b 946 856 905 903 927 881 l 838 772 b 735 855 813 806 779 833 b 593 888 691 877 644 888 b 438 856 536 888 484 877 b 321 771 392 835 353 807 b 246 645 288 735 263 693 b 219 493 228 597 219 547 b 245 338 219 438 228 386 b 319 212 262 289 287 247 b 435 128 351 176 390 148 b 589 97 481 107 532 97 b 740 131 644 97 695 108 b 853 228 786 153 823 185 l 963 153 "},"D":{"ha":1057,"x_min":0,"x_max":0,"o":"m 457 983 b 646 956 520 983 583 974 b 817 868 709 937 766 908 b 940 715 868 828 909 777 b 988 492 972 653 988 579 b 940 273 988 407 972 334 b 817 120 909 211 868 160 b 646 30 766 80 709 50 b 457 0 583 10 520 0 l 119 0 l 119 983 m 429 121 b 594 146 488 121 543 129 b 724 218 644 163 688 187 b 810 335 761 250 789 288 b 840 492 830 381 840 433 b 810 653 840 553 830 606 b 724 769 789 699 761 738 b 594 840 688 800 644 823 b 429 864 543 856 488 864 l 257 864 l 257 121 "},"E":{"ha":835,"x_min":0,"x_max":0,"o":"m 771 122 l 771 0 l 119 0 l 119 983 l 750 983 l 750 863 l 257 863 l 257 568 l 721 568 l 721 450 l 257 450 l 257 122 "},"F":{"ha":789,"x_min":0,"x_max":0,"o":"m 119 0 l 119 983 l 733 983 l 733 863 l 257 863 l 257 557 l 703 557 l 703 439 l 257 439 l 257 0 "},"G":{"ha":1081,"x_min":0,"x_max":0,"o":"m 861 781 b 748 858 831 813 794 839 b 594 888 702 878 651 888 b 439 856 537 888 485 877 b 321 771 393 835 353 807 b 246 645 288 735 263 693 b 219 493 228 597 219 547 b 246 339 219 438 228 387 b 321 213 263 291 288 249 b 440 129 353 178 393 150 b 599 99 488 109 540 99 b 726 111 645 99 688 103 b 828 147 765 119 799 131 l 828 421 l 610 421 l 610 538 l 964 538 l 964 61 b 794 -3 912 33 856 12 b 594 -25 733 -18 667 -25 b 383 13 518 -25 447 -12 b 217 120 318 39 263 74 b 108 284 170 166 134 221 b 69 493 82 347 69 417 b 109 703 69 570 83 640 b 219 866 135 767 172 821 b 385 971 266 911 321 946 b 593 1008 449 996 518 1008 b 803 974 672 1008 742 997 b 957 881 865 950 916 919 l 861 781 "},"H":{"ha":1013,"x_min":0,"x_max":0,"o":"m 257 983 l 257 572 l 754 572 l 754 983 l 893 983 l 893 0 l 754 0 l 754 450 l 257 450 l 257 0 l 119 0 l 119 983 "},"I":{"ha":376,"x_min":0,"x_max":0,"o":"m 119 0 l 119 983 l 257 983 l 257 0 "},"J":{"ha":688,"x_min":0,"x_max":0,"o":"m 149 219 b 197 132 156 184 172 155 b 290 97 222 109 253 97 b 363 114 320 97 344 103 b 408 159 382 125 397 140 b 432 226 419 178 427 200 b 439 307 437 251 439 278 l 439 983 l 576 983 l 576 301 b 565 193 576 267 573 231 b 524 88 558 155 544 120 b 438 7 503 55 475 28 b 297 -25 402 -14 355 -25 b 114 33 222 -25 161 -6 b 21 183 67 72 36 122 l 149 219 "},"K":{"ha":915,"x_min":0,"x_max":0,"o":"m 260 550 l 699 983 l 889 983 l 411 533 l 918 0 l 721 0 l 260 508 l 257 508 l 257 0 l 119 0 l 119 983 l 257 983 l 257 550 "},"L":{"ha":710,"x_min":0,"x_max":0,"o":"m 696 122 l 696 0 l 119 0 l 119 983 l 257 983 l 257 122 "},"M":{"ha":1254,"x_min":0,"x_max":0,"o":"m 631 228 l 921 983 l 1135 983 l 1135 0 l 997 0 l 997 822 l 994 822 l 668 0 l 581 0 l 256 822 l 253 822 l 253 0 l 119 0 l 119 983 l 333 983 l 628 228 "},"N":{"ha":1072,"x_min":0,"x_max":0,"o":"m 815 197 l 815 983 l 953 983 l 953 0 l 779 0 l 260 803 l 257 803 l 257 0 l 119 0 l 119 983 l 299 983 l 813 197 "},"O":{"ha":1179,"x_min":0,"x_max":0,"o":"m 1111 493 b 1072 284 1111 417 1098 347 b 963 120 1045 221 1009 166 b 797 13 916 74 861 39 b 589 -25 733 -12 664 -25 b 381 13 514 -25 445 -12 b 217 120 318 39 263 74 b 108 284 170 166 134 221 b 69 493 82 347 69 417 b 108 703 69 570 82 640 b 217 866 134 767 170 821 b 381 971 263 911 318 946 b 589 1008 445 996 514 1008 b 797 971 664 1008 733 996 b 963 866 861 946 916 911 b 1072 703 1009 821 1045 767 b 1111 493 1098 640 1111 570 m 963 493 b 936 645 963 547 954 597 b 861 771 919 693 894 735 b 744 856 829 807 790 835 b 589 888 698 877 646 888 b 435 856 532 888 481 877 b 319 771 390 835 351 807 b 244 645 287 735 262 693 b 218 493 227 597 218 547 b 244 339 218 438 227 387 b 319 213 262 291 287 249 b 436 129 352 178 391 150 b 589 99 481 109 532 99 b 743 129 645 99 697 109 b 861 213 789 150 829 178 b 936 339 894 249 919 291 b 963 493 954 387 963 438 "},"P":{"ha":826,"x_min":0,"x_max":0,"o":"m 419 983 b 564 967 472 983 520 978 b 675 918 607 957 644 940 b 746 833 706 896 729 868 b 771 710 763 799 771 758 b 744 583 771 661 762 619 b 669 497 726 548 701 519 b 555 448 637 475 599 459 b 413 432 511 437 463 432 l 257 432 l 257 0 l 119 0 l 119 983 m 403 549 b 495 558 436 549 467 552 b 568 585 523 564 548 573 b 615 635 588 598 604 614 b 632 710 626 655 632 680 b 615 784 632 739 626 764 b 567 833 603 804 587 820 b 496 859 547 845 524 854 b 406 867 468 864 438 867 l 257 867 l 257 549 "},"Q":{"ha":1175,"x_min":0,"x_max":0,"o":"m 581 0 b 374 36 506 0 437 12 b 213 138 312 60 258 94 b 107 296 167 181 132 234 b 69 504 82 358 69 427 b 108 708 69 578 82 646 b 215 867 134 769 170 822 b 377 971 261 911 315 946 b 582 1008 440 996 508 1008 b 785 971 655 1008 723 996 b 946 867 847 946 900 911 b 1052 708 991 822 1027 769 b 1090 504 1078 646 1090 578 b 1035 274 1090 416 1072 339 b 888 118 998 208 949 156 l 888 115 l 1158 115 l 1158 0 m 218 504 b 244 353 218 450 227 400 b 317 232 261 307 285 266 b 431 151 348 198 386 171 b 581 121 475 131 525 121 b 728 151 634 121 684 131 b 843 232 773 171 812 198 b 917 353 875 266 899 307 b 943 504 934 400 943 450 b 918 653 943 557 935 606 b 846 774 901 699 877 740 b 732 857 814 809 776 837 b 582 888 688 877 638 888 b 432 857 526 888 476 877 b 317 774 388 837 349 809 b 244 653 285 740 261 699 b 218 504 227 606 218 557 "},"R":{"ha":853,"x_min":0,"x_max":0,"o":"m 119 0 l 119 983 l 435 983 b 569 969 482 983 527 978 b 681 922 612 959 649 944 b 757 838 713 901 738 873 b 785 711 775 803 785 761 b 718 536 785 639 763 581 b 546 451 674 492 616 463 l 821 0 l 654 0 l 404 438 l 257 438 l 257 0 m 415 553 b 506 561 448 553 478 556 b 578 588 533 567 558 576 b 628 637 599 601 616 617 b 646 711 640 657 646 681 b 628 785 646 741 640 766 b 580 833 616 805 600 821 b 510 859 560 845 537 854 b 425 867 483 864 455 867 l 257 867 l 257 553 "},"S":{"ha":790,"x_min":0,"x_max":0,"o":"m 608 801 b 529 867 589 828 563 850 b 417 893 496 884 458 893 b 349 884 394 893 372 890 b 288 855 327 878 306 868 b 242 805 269 841 254 825 b 225 733 231 785 225 761 b 241 666 225 706 230 684 b 284 620 252 648 266 633 b 348 588 302 608 323 597 b 426 561 372 579 399 570 b 528 526 460 551 494 539 b 621 475 562 513 593 496 b 689 395 649 454 671 427 b 715 274 706 363 715 323 b 687 141 715 223 706 178 b 611 48 668 103 643 72 b 502 -7 580 23 543 5 b 375 -25 461 -19 419 -25 b 195 11 313 -25 253 -13 b 51 118 137 35 89 71 l 158 208 b 251 125 181 174 213 146 b 378 93 290 104 332 93 b 447 103 401 93 424 96 b 510 133 470 109 491 119 b 557 185 529 147 545 165 b 575 261 569 206 575 231 b 556 335 575 291 569 316 b 506 386 544 355 527 372 b 431 422 484 400 459 412 b 342 451 403 431 373 441 b 249 485 310 461 279 472 b 167 537 218 499 191 516 b 108 614 143 558 123 583 b 86 728 94 644 86 682 b 116 854 86 777 96 819 b 194 942 136 889 162 919 b 302 992 226 965 262 982 b 424 1008 342 1003 383 1008 b 585 978 481 1008 535 998 b 706 896 635 957 675 930 l 608 801 "},"T":{"ha":790,"x_min":0,"x_max":0,"o":"m 326 0 l 326 863 l 11 863 l 11 983 l 779 983 l 779 863 l 464 863 l 464 0 "},"U":{"ha":989,"x_min":0,"x_max":0,"o":"m 494 -25 b 325 8 430 -25 373 -14 b 206 94 277 29 237 58 b 135 219 174 131 151 172 b 113 364 120 266 113 314 l 113 983 l 250 983 l 250 372 b 263 273 250 339 254 306 b 303 185 271 240 284 211 b 378 122 322 159 347 138 b 494 99 409 106 448 99 b 610 122 540 99 578 106 b 685 185 641 138 666 159 b 726 273 704 211 718 240 b 739 372 735 306 739 339 l 739 983 l 876 983 l 876 364 b 853 219 876 314 869 266 b 783 94 838 172 815 131 b 664 8 752 58 712 29 b 494 -25 616 -14 559 -25 "},"V":{"ha":892,"x_min":0,"x_max":0,"o":"m 450 178 l 746 983 l 894 983 l 508 0 l 381 0 l -3 983 l 150 983 l 446 178 "},"W":{"ha":1372,"x_min":0,"x_max":0,"o":"m 382 200 l 613 983 l 764 983 l 993 200 l 996 200 l 1213 983 l 1358 983 l 1069 0 l 926 0 l 688 790 l 685 790 l 446 0 l 303 0 l 14 983 l 163 983 l 379 200 "},"X":{"ha":928,"x_min":0,"x_max":0,"o":"m 697 983 l 858 983 l 544 518 l 901 0 l 728 0 l 458 414 l 194 0 l 25 0 l 376 521 l 60 983 l 228 983 l 464 617 "},"Y":{"ha":867,"x_min":0,"x_max":0,"o":"m 364 0 l 364 425 l -4 983 l 165 983 l 438 539 l 711 983 l 871 983 l 503 425 l 503 0 "},"Z":{"ha":822,"x_min":0,"x_max":0,"o":"m 213 122 l 776 122 l 776 0 l 46 0 l 46 121 l 600 863 l 57 863 l 57 983 l 768 983 l 768 863 "},"[":{"ha":438,"x_min":0,"x_max":0,"o":"m 199 925 l 199 -125 l 328 -125 l 328 -217 l 82 -217 l 82 1017 l 328 1017 l 328 925 "},"\\":{"ha":528,"x_min":0,"x_max":0,"o":"m 103 1031 l 531 -12 l 432 -46 l 6 994 "},"]":{"ha":438,"x_min":0,"x_max":0,"o":"m 239 -125 l 239 925 l 110 925 l 110 1017 l 356 1017 l 356 -217 l 110 -217 l 110 -125 "},"^":{"ha":925,"x_min":0,"x_max":0,"o":"m 508 983 l 822 429 l 696 429 l 461 846 l 229 429 l 103 429 l 417 983 "},"_":{"ha":694,"x_min":0,"x_max":0,"o":"m 694 -104 l 694 -192 l 0 -192 l 0 -104 "},"`":{"ha":347,"x_min":0,"x_max":0,"o":"m 110 983 l 249 783 l 142 783 l -47 983 "},"a":{"ha":753,"x_min":0,"x_max":0,"o":"m 522 426 b 478 535 522 475 507 512 b 360 571 448 559 409 571 b 255 549 323 571 288 564 b 172 494 222 535 194 517 l 103 578 b 222 650 135 608 175 632 b 372 676 268 668 319 676 b 495 656 419 676 460 670 b 581 601 530 643 558 625 b 631 519 603 578 619 551 b 647 418 642 488 647 454 l 647 131 b 649 60 647 108 648 85 b 657 0 651 36 653 16 l 539 0 b 528 94 531 31 528 63 l 524 94 b 433 13 500 59 469 32 b 303 -17 396 -7 353 -17 b 222 -6 277 -17 250 -13 b 144 28 193 1 168 12 b 87 90 121 44 102 64 b 64 186 72 116 64 148 b 104 305 64 236 77 276 b 210 372 131 334 166 356 b 357 401 253 387 302 397 b 522 408 412 406 467 408 l 522 426 m 490 314 b 390 310 458 314 424 313 b 295 293 355 307 323 301 b 225 256 267 285 244 272 b 197 189 206 239 197 217 b 209 140 197 169 201 153 b 240 108 217 127 227 117 b 283 91 253 100 268 94 b 332 86 299 88 315 86 b 473 141 393 86 440 104 b 522 279 506 178 522 224 l 522 314 l 490 314 "},"b":{"ha":883,"x_min":0,"x_max":0,"o":"m 242 0 l 115 0 l 115 1050 l 246 1050 l 246 560 l 250 560 b 343 642 272 592 303 620 b 485 676 383 665 430 676 b 619 650 534 676 578 668 b 723 576 659 632 694 608 b 790 466 752 545 775 508 b 814 331 806 424 814 379 b 790 194 814 282 806 237 b 724 83 775 152 752 115 b 619 9 695 52 660 27 b 482 -18 579 -9 533 -18 b 347 13 435 -18 390 -8 b 244 104 305 34 270 64 l 242 104 m 679 331 b 665 419 679 361 675 391 b 624 496 656 448 642 474 b 555 549 605 518 582 536 b 460 568 528 562 496 568 b 369 549 426 568 396 562 b 299 496 341 536 318 518 b 253 419 279 474 264 448 b 238 329 243 391 238 361 b 253 239 238 298 243 268 b 299 163 264 210 279 185 b 369 111 318 141 341 124 b 460 92 396 98 426 92 b 555 112 496 92 528 98 b 624 165 582 125 605 143 b 665 242 642 188 656 213 b 679 331 675 270 679 300 "},"c":{"ha":686,"x_min":0,"x_max":0,"o":"m 574 492 b 511 545 560 513 539 531 b 422 567 483 559 454 567 b 331 547 388 567 358 560 b 264 495 305 534 282 517 b 222 419 245 473 231 448 b 207 329 212 391 207 361 b 222 239 207 298 212 268 b 264 163 231 210 245 185 b 332 111 282 141 305 124 b 424 92 359 98 389 92 b 515 111 457 92 487 98 b 582 164 542 124 564 142 l 669 85 b 565 9 642 52 607 27 b 424 -18 524 -9 476 -18 b 283 7 373 -18 326 -10 b 171 77 240 24 202 47 b 97 186 139 107 115 144 b 69 329 78 229 69 276 b 96 471 69 381 78 428 b 169 581 113 513 138 550 b 281 651 201 611 238 635 b 421 676 324 668 371 676 b 559 649 467 676 513 667 b 668 568 605 630 641 603 l 574 492 "},"d":{"ha":882,"x_min":0,"x_max":0,"o":"m 638 104 b 535 13 613 64 578 34 b 400 -18 492 -8 447 -18 b 263 9 349 -18 303 -9 b 158 83 222 27 187 52 b 92 194 130 115 107 152 b 68 331 76 237 68 282 b 92 466 68 379 76 424 b 159 576 107 508 130 545 b 264 650 188 608 223 632 b 399 676 305 668 350 676 b 539 642 452 676 499 665 b 633 560 579 620 610 592 l 636 560 l 636 1050 l 767 1050 l 767 0 l 640 0 l 640 104 l 638 104 m 204 331 b 218 242 204 300 209 270 b 260 165 227 213 241 188 b 328 112 278 143 301 125 b 422 92 355 98 386 92 b 513 111 456 92 486 98 b 583 163 541 124 564 141 b 628 239 603 185 618 210 b 644 329 639 268 644 298 b 628 419 644 361 639 391 b 583 496 618 448 603 474 b 513 549 564 518 541 536 b 422 568 486 562 456 568 b 328 549 386 568 355 562 b 260 496 301 536 278 518 b 218 419 241 474 227 448 b 204 331 209 391 204 361 "},"e":{"ha":796,"x_min":0,"x_max":0,"o":"m 594 388 b 581 460 594 413 589 438 b 547 519 573 483 562 503 b 490 559 531 536 512 549 b 410 574 467 569 440 574 b 331 559 382 574 356 569 b 267 519 307 549 285 536 b 223 460 249 503 234 483 b 203 388 211 438 205 413 l 594 388 m 726 313 b 725 290 726 305 726 298 l 203 290 b 222 212 204 263 210 236 b 268 148 233 187 249 166 b 335 106 288 130 310 116 b 417 90 361 95 388 90 b 532 119 461 90 500 100 b 608 190 564 139 590 163 l 700 117 b 576 15 665 70 623 36 b 417 -18 528 -7 475 -18 b 278 7 367 -18 320 -10 b 168 77 235 24 199 47 b 96 186 138 107 113 144 b 69 328 78 229 69 276 b 95 469 69 379 78 426 b 167 579 112 512 136 549 b 275 651 197 610 233 634 b 410 676 317 668 362 676 b 541 653 458 676 502 669 b 641 585 580 637 614 614 b 704 477 668 555 689 519 b 726 335 719 435 726 388 "},"f":{"ha":431,"x_min":0,"x_max":0,"o":"m 269 551 l 269 0 l 139 0 l 139 551 l 8 551 l 8 658 l 139 658 l 139 796 b 152 903 139 835 143 871 b 195 989 161 936 175 965 b 272 1046 215 1013 241 1032 b 385 1067 303 1060 340 1067 b 467 1057 416 1067 444 1063 l 451 944 b 421 951 441 947 431 950 b 386 954 411 953 399 954 b 326 941 361 954 341 950 b 290 906 310 932 299 920 b 274 855 282 891 276 874 b 269 796 271 836 269 816 l 269 658 l 422 658 l 422 551 "},"g":{"ha":878,"x_min":0,"x_max":0,"o":"m 164 -112 b 272 -190 193 -145 228 -171 b 404 -219 315 -210 359 -219 b 514 -201 448 -219 484 -213 b 585 -149 544 -188 567 -171 b 624 -72 603 -128 616 -102 b 636 24 632 -43 636 -11 l 636 108 l 633 108 b 535 24 609 71 576 43 b 401 -6 493 4 449 -6 b 265 21 351 -6 306 3 b 160 93 223 38 188 63 b 93 201 131 124 109 159 b 69 333 77 242 69 286 b 93 467 69 381 77 425 b 160 576 109 508 131 545 b 264 649 188 607 223 631 b 400 676 305 667 350 676 b 535 646 447 676 492 666 b 638 553 578 625 613 594 l 640 553 l 640 658 l 767 658 l 767 33 b 749 -105 767 -15 761 -61 b 688 -222 737 -149 716 -188 b 575 -303 659 -255 621 -282 b 403 -333 529 -323 471 -333 b 230 -302 345 -333 288 -323 b 81 -214 172 -281 122 -252 l 164 -112 m 204 336 b 219 249 204 306 209 276 b 262 175 228 221 243 196 b 331 124 281 154 304 137 b 422 104 357 111 388 104 b 514 122 456 104 486 110 b 585 172 542 134 565 151 b 630 245 604 192 619 217 b 646 336 641 273 646 304 b 630 425 646 368 641 397 b 584 499 619 453 604 477 b 513 549 564 520 541 537 b 422 568 486 562 456 568 b 331 549 388 568 357 562 b 262 499 304 537 281 520 b 219 426 243 478 228 454 b 204 336 209 397 204 368 "},"h":{"ha":811,"x_min":0,"x_max":0,"o":"m 249 558 b 329 642 264 591 291 619 b 457 676 367 665 410 676 b 567 655 500 676 536 669 b 643 597 597 641 623 621 b 688 513 663 573 678 545 b 703 408 698 480 703 445 l 703 0 l 572 0 l 572 364 b 566 440 572 391 570 416 b 543 504 562 464 554 486 b 498 549 532 523 517 538 b 424 565 479 560 454 565 b 296 506 372 565 329 546 b 246 349 263 467 246 414 l 246 0 l 115 0 l 115 1050 l 246 1050 l 246 558 l 249 558 "},"i":{"ha":360,"x_min":0,"x_max":0,"o":"m 114 0 l 114 658 l 244 658 l 244 0 m 267 896 b 241 836 267 872 258 852 b 179 813 224 820 203 813 b 118 837 155 813 135 821 b 93 896 101 853 93 873 b 118 956 93 920 101 940 b 179 981 135 972 155 981 b 241 956 203 981 224 972 b 267 896 258 940 267 920 "},"j":{"ha":361,"x_min":0,"x_max":0,"o":"m -29 -214 b 24 -221 -11 -219 7 -221 b 71 -210 43 -221 59 -217 b 99 -180 83 -202 92 -192 b 112 -135 105 -167 109 -153 b 115 -81 114 -118 115 -100 l 115 658 l 246 658 l 246 -85 b 237 -179 246 -118 243 -150 b 204 -258 231 -209 220 -235 b 139 -313 188 -281 167 -300 b 32 -333 111 -327 75 -333 b -7 -331 20 -333 7 -332 b -43 -325 -21 -329 -33 -327 l -29 -214 m 268 896 b 242 836 268 872 259 852 b 181 813 225 820 205 813 b 119 837 156 813 136 821 b 93 896 102 853 93 873 b 119 956 93 920 102 940 b 181 981 136 972 156 981 b 242 956 205 981 225 972 b 268 896 259 940 268 920 "},"k":{"ha":732,"x_min":0,"x_max":0,"o":"m 250 372 l 526 658 l 701 658 l 393 360 l 728 0 l 547 0 l 250 342 l 246 342 l 246 0 l 115 0 l 115 1050 l 246 1050 l 246 372 "},"l":{"ha":361,"x_min":0,"x_max":0,"o":"m 115 0 l 115 1050 l 246 1050 l 246 0 "},"m":{"ha":1232,"x_min":0,"x_max":0,"o":"m 240 550 b 320 640 257 585 284 615 b 450 676 357 664 400 676 b 570 646 494 676 534 666 b 654 544 606 625 634 592 b 747 642 676 587 707 620 b 878 676 787 665 831 676 b 988 655 920 676 957 669 b 1064 597 1018 641 1044 621 b 1109 513 1084 573 1099 545 b 1124 408 1119 480 1124 445 l 1124 0 l 993 0 l 993 365 b 986 442 993 392 991 418 b 963 506 981 466 974 487 b 918 550 951 524 937 539 b 847 567 900 561 876 567 b 771 548 818 567 792 560 b 719 499 750 535 732 519 b 690 432 705 479 696 457 b 681 356 684 407 681 381 l 681 0 l 550 0 l 550 392 b 543 463 550 418 548 441 b 519 517 538 484 531 502 b 476 553 508 533 494 545 b 411 567 459 562 437 567 b 291 508 363 567 323 547 b 243 350 259 468 243 416 l 243 0 l 113 0 l 113 517 b 111 585 113 534 112 557 b 107 658 110 613 109 637 l 231 658 b 235 602 232 642 234 623 b 236 550 236 581 236 564 l 240 550 l 240 550 "},"n":{"ha":808,"x_min":0,"x_max":0,"o":"m 231 658 b 235 602 232 642 234 623 b 236 550 236 581 236 564 l 240 550 b 274 599 249 568 260 584 b 324 640 289 615 305 628 b 385 667 342 651 363 660 b 454 676 407 673 430 676 b 564 655 497 676 533 669 b 640 597 594 641 620 621 b 685 513 661 573 676 545 b 700 408 695 480 700 445 l 700 0 l 569 0 l 569 365 b 563 442 569 392 567 418 b 540 506 559 466 551 487 b 494 550 529 524 514 539 b 419 567 475 561 450 567 b 292 508 368 567 325 547 b 243 350 259 468 243 416 l 243 0 l 113 0 l 113 517 b 111 585 113 534 112 557 b 107 658 110 613 109 637 l 231 658 "},"o":{"ha":847,"x_min":0,"x_max":0,"o":"m 779 331 b 752 190 779 280 770 233 b 677 80 734 148 709 111 b 564 8 645 49 607 25 b 424 -18 520 -9 474 -18 b 283 8 374 -18 327 -9 b 171 80 240 25 202 49 b 97 190 139 111 115 148 b 69 331 78 233 69 280 b 97 470 69 381 78 428 b 171 579 115 512 139 549 b 283 651 202 610 240 634 b 424 676 327 668 374 676 b 564 651 474 676 520 668 b 677 579 607 634 645 610 b 752 470 709 549 734 512 b 779 331 770 428 779 381 m 643 331 b 628 421 643 362 638 392 b 586 497 619 450 605 475 b 517 549 568 518 545 536 b 424 568 490 562 459 568 b 330 549 388 568 357 562 b 261 497 303 536 280 518 b 219 421 243 475 228 450 b 204 331 209 392 204 362 b 219 240 204 299 209 269 b 261 164 228 212 243 186 b 330 111 280 142 303 124 b 424 92 357 98 388 92 b 517 111 459 92 490 98 b 586 164 545 124 568 142 b 628 240 605 186 619 212 b 643 331 638 269 643 299 "},"p":{"ha":881,"x_min":0,"x_max":0,"o":"m 113 -333 l 113 658 l 240 658 l 240 556 l 244 556 b 338 642 266 591 297 620 b 482 676 379 665 427 676 b 616 650 531 676 576 668 b 720 576 656 632 691 608 b 788 466 749 545 772 508 b 811 331 803 424 811 379 b 788 194 811 282 803 237 b 721 83 772 152 750 115 b 617 9 692 52 657 27 b 479 -18 576 -9 530 -18 b 346 13 432 -18 388 -8 b 247 99 304 33 271 62 l 243 99 l 243 -333 m 676 331 b 663 419 676 361 672 391 b 621 496 653 448 639 474 b 552 549 602 518 579 536 b 457 568 525 562 493 568 b 366 549 424 568 393 562 b 296 496 339 536 315 518 b 251 419 276 474 261 448 b 235 329 240 391 235 361 b 251 239 235 298 240 268 b 296 163 261 210 276 185 b 366 111 315 141 339 124 b 457 92 393 98 424 92 b 552 112 493 92 525 98 b 621 165 579 125 602 143 b 663 242 639 188 653 213 b 676 331 672 270 676 300 "},"q":{"ha":879,"x_min":0,"x_max":0,"o":"m 633 99 b 534 13 609 62 576 33 b 400 -18 492 -8 447 -18 b 263 9 349 -18 303 -9 b 158 83 222 27 187 52 b 92 194 130 115 107 152 b 68 331 76 237 68 282 b 92 466 68 379 76 424 b 159 576 107 508 130 545 b 264 650 188 608 223 632 b 399 676 305 668 350 676 b 541 642 452 676 500 665 b 636 556 582 620 614 591 l 640 556 l 640 658 l 767 658 l 767 -333 l 636 -333 l 636 99 l 633 99 m 204 331 b 218 242 204 300 209 270 b 260 165 227 213 241 188 b 328 112 278 143 301 125 b 422 92 355 98 386 92 b 513 111 456 92 486 98 b 583 163 541 124 564 141 b 628 239 603 185 618 210 b 644 329 639 268 644 298 b 628 419 644 361 639 391 b 583 496 618 448 603 474 b 513 549 564 518 541 536 b 422 568 486 562 456 568 b 328 549 386 568 355 562 b 260 496 301 536 278 518 b 218 419 241 474 227 448 b 204 331 209 391 204 361 "},"r":{"ha":503,"x_min":0,"x_max":0,"o":"m 113 517 b 111 585 113 534 112 557 b 107 658 110 613 109 637 l 231 658 b 235 601 232 642 234 622 b 236 547 236 579 236 561 l 240 547 b 322 641 259 586 286 617 b 442 676 357 665 397 676 b 493 671 462 676 479 675 l 488 550 b 428 557 469 555 449 557 b 346 540 396 557 369 551 b 288 493 323 528 303 513 b 254 426 273 474 262 451 b 243 346 247 400 243 374 l 243 0 l 113 0 l 113 517 l 113 517 "},"s":{"ha":617,"x_min":0,"x_max":0,"o":"m 468 492 b 406 551 453 516 432 535 b 315 574 379 566 349 574 b 271 569 300 574 286 572 b 231 553 256 566 243 560 b 203 527 220 547 210 538 b 193 488 197 516 193 503 b 231 426 193 460 206 439 b 343 389 256 412 293 400 b 431 363 375 381 404 373 b 501 324 457 352 481 340 b 547 269 521 309 536 291 b 564 194 558 248 564 223 b 542 96 564 156 556 123 b 483 30 527 69 507 47 b 399 -7 458 13 430 0 b 301 -18 367 -14 335 -18 b 155 11 251 -18 203 -8 b 36 100 107 31 68 60 l 129 179 b 202 114 147 153 171 131 b 304 88 233 96 267 88 b 352 92 321 88 337 89 b 394 108 367 96 381 101 b 424 138 406 116 416 125 b 435 183 431 150 435 165 b 391 251 435 214 420 237 b 263 293 362 266 319 280 b 195 313 240 299 218 305 b 133 346 172 321 152 332 b 88 398 115 360 100 377 b 71 475 77 419 71 444 b 92 566 71 510 78 541 b 149 628 107 591 125 612 b 228 665 172 645 198 657 b 319 676 257 672 288 676 b 456 649 367 676 412 667 b 558 568 500 630 534 603 l 468 492 "},"t":{"ha":457,"x_min":0,"x_max":0,"o":"m 260 551 l 260 208 b 282 123 260 169 267 140 b 353 97 297 106 320 97 b 392 101 365 97 378 99 b 429 114 406 104 418 108 l 433 7 b 381 -6 418 1 400 -3 b 322 -11 362 -9 343 -11 b 180 40 260 -11 213 6 b 131 194 147 75 131 126 l 131 551 l 4 551 l 4 658 l 131 658 l 131 847 l 260 847 l 260 658 l 435 658 l 435 551 "},"u":{"ha":808,"x_min":0,"x_max":0,"o":"m 576 0 b 572 56 575 17 573 35 b 571 108 571 77 571 94 l 568 108 b 484 19 551 73 523 43 b 353 -18 445 -6 401 -18 b 242 3 310 -18 273 -11 b 166 60 211 17 186 36 b 122 146 146 85 131 113 b 107 250 112 178 107 213 l 107 658 l 238 658 l 238 294 b 244 217 238 268 240 242 b 267 153 248 193 256 171 b 313 108 278 134 293 119 b 388 92 332 97 357 92 b 515 151 440 92 483 111 b 564 308 548 190 564 243 l 564 658 l 694 658 l 694 142 b 696 74 694 124 695 101 b 700 0 697 46 698 21 l 576 0 "},"v":{"ha":700,"x_min":0,"x_max":0,"o":"m 281 0 l 13 658 l 157 658 l 350 140 l 353 140 l 547 658 l 686 658 l 422 0 "},"w":{"ha":1074,"x_min":0,"x_max":0,"o":"m 310 156 l 313 156 l 469 658 l 607 658 l 767 156 l 769 156 l 918 658 l 1056 658 l 838 0 l 701 0 l 539 494 l 536 494 l 375 0 l 239 0 l 19 658 l 161 658 "},"x":{"ha":710,"x_min":0,"x_max":0,"o":"m 33 658 l 194 658 l 356 432 l 518 658 l 671 658 l 433 347 l 699 0 l 536 0 l 353 257 l 167 0 l 10 0 l 274 346 "},"y":{"ha":700,"x_min":0,"x_max":0,"o":"m 365 142 l 547 658 l 686 658 l 367 -156 b 331 -230 356 -183 344 -208 b 285 -285 318 -252 302 -270 b 223 -321 267 -301 247 -312 b 139 -333 199 -329 171 -333 b 97 -331 125 -333 111 -333 b 53 -324 82 -330 68 -327 l 65 -208 b 131 -219 88 -216 109 -219 b 207 -191 165 -219 190 -210 b 253 -110 224 -172 239 -145 l 294 0 l 13 658 l 158 658 l 363 142 "},"z":{"ha":642,"x_min":0,"x_max":0,"o":"m 207 110 l 597 110 l 597 0 l 46 0 l 46 107 l 418 551 l 64 551 l 64 658 l 582 658 l 582 551 "},"{":{"ha":438,"x_min":0,"x_max":0,"o":"m 7 451 b 79 481 35 451 59 461 b 110 576 100 500 110 532 l 110 838 b 123 919 110 869 114 896 b 159 975 132 941 144 960 b 212 1007 174 990 192 1000 b 274 1017 232 1013 252 1017 l 368 1017 l 368 921 l 297 921 b 260 912 281 921 269 918 b 239 888 250 906 244 898 b 229 856 234 878 231 868 b 226 821 227 845 226 833 l 226 567 b 212 490 226 536 222 511 b 176 441 202 470 190 453 b 133 413 163 428 148 419 b 97 401 119 406 106 402 l 97 399 b 133 389 106 398 119 394 b 176 362 148 383 163 374 b 212 311 190 349 202 332 b 226 229 222 290 226 263 l 226 -21 b 229 -56 226 -33 227 -45 b 239 -88 231 -68 234 -78 b 260 -112 244 -98 250 -106 b 297 -121 269 -118 281 -121 l 368 -121 l 368 -217 l 274 -217 b 212 -207 252 -217 232 -213 b 159 -175 192 -200 174 -190 b 123 -119 144 -160 132 -142 b 110 -37 114 -97 110 -70 l 110 218 b 79 319 110 265 100 299 b 7 349 59 339 35 349 l 7 451 "},"|":{"ha":308,"x_min":0,"x_max":0,"o":"m 211 -347 l 97 -347 l 97 1042 l 211 1042 "},"}":{"ha":438,"x_min":0,"x_max":0,"o":"m 431 349 b 358 319 403 349 379 339 b 328 218 338 299 328 265 l 328 -37 b 315 -119 328 -70 323 -97 b 278 -175 306 -142 294 -160 b 226 -207 263 -190 246 -200 b 164 -217 206 -213 185 -217 l 69 -217 l 69 -121 l 142 -121 b 178 -112 156 -121 169 -118 b 199 -88 187 -106 194 -98 b 208 -56 203 -78 206 -68 b 211 -21 210 -45 211 -33 l 211 229 b 226 311 211 263 216 290 b 261 362 235 332 247 349 b 304 389 275 374 289 383 b 342 399 319 394 331 398 l 342 401 b 304 413 331 402 319 406 b 261 441 289 419 275 428 b 226 490 247 453 235 470 b 211 567 216 511 211 536 l 211 821 b 208 856 211 833 210 845 b 199 888 206 868 203 878 b 178 912 194 898 187 906 b 142 921 169 918 156 921 l 69 921 l 69 1017 l 164 1017 b 226 1007 185 1017 206 1013 b 278 975 246 1000 263 990 b 315 919 294 960 306 941 b 328 838 323 896 328 869 l 328 576 b 358 481 328 532 338 500 b 431 451 379 461 403 451 l 431 349 l 431 349 "},"~":{"ha":925,"x_min":0,"x_max":0,"o":"m 472 481 b 518 453 490 469 505 460 b 553 436 531 445 543 440 b 581 428 563 432 572 430 b 610 426 590 427 600 426 b 731 521 656 426 696 458 l 813 444 b 763 378 796 418 779 395 b 712 336 746 360 729 346 b 661 315 695 326 678 319 b 613 310 644 312 628 310 b 536 321 586 310 560 313 b 451 363 512 328 484 342 b 406 390 434 374 419 383 b 372 406 394 397 382 402 b 344 413 362 409 353 412 b 315 415 335 415 325 415 b 194 321 269 415 229 384 l 113 397 b 213 506 145 451 178 487 b 313 533 248 524 281 533 b 390 522 340 533 366 530 b 472 481 413 515 441 501 "}," ":{"ha":347,"x_min":0,"x_max":0,"o":""},"¡":{"ha":464,"x_min":0,"x_max":0,"o":"m 163 389 l 300 389 l 300 -307 l 163 -307 m 325 593 b 299 529 325 568 316 547 b 232 503 281 512 259 503 b 165 530 205 503 183 512 b 139 594 148 548 139 569 b 166 658 139 619 148 640 b 232 685 184 676 206 685 b 299 657 259 685 281 675 b 325 593 316 638 325 617 "},"¢":{"ha":826,"x_min":0,"x_max":0,"o":"m 415 560 b 288 480 360 550 317 523 b 244 329 259 437 244 387 b 289 179 244 272 259 222 b 415 99 319 137 361 110 l 415 560 m 486 97 b 567 119 516 98 543 106 b 628 171 592 133 612 150 l 717 88 b 611 11 687 53 652 28 b 486 -17 570 -6 529 -15 l 486 -108 l 415 -108 l 415 -15 b 290 21 369 -11 327 1 b 196 96 253 40 222 65 b 136 201 170 126 150 162 b 115 331 122 241 115 284 b 136 459 115 377 122 420 b 196 563 150 498 170 533 b 290 637 222 593 253 618 b 415 674 327 656 369 668 l 415 764 l 486 764 l 486 675 b 612 648 530 673 572 664 b 717 571 652 632 687 606 l 625 488 b 566 538 609 508 590 525 b 486 561 542 552 516 559 l 486 97 "},"£":{"ha":826,"x_min":0,"x_max":0,"o":"m 372 451 l 372 117 l 738 117 l 738 0 l 97 0 l 97 117 l 236 117 l 236 451 l 101 451 l 101 551 l 236 551 l 236 674 b 252 788 236 711 241 749 b 305 897 263 828 280 864 b 403 977 329 929 362 956 b 554 1008 444 998 494 1008 b 680 988 599 1008 641 1001 b 783 925 719 974 754 953 l 701 832 b 636 878 684 851 662 867 b 551 896 610 890 582 896 b 461 873 514 896 484 888 b 406 815 438 858 420 838 b 379 740 393 792 384 767 b 372 665 375 713 372 688 l 372 551 l 603 551 l 603 451 "},"€":{"ha":826,"x_min":0,"x_max":0,"o":"m 732 851 b 652 881 709 864 682 874 b 554 892 622 888 589 892 b 458 876 520 892 488 886 b 375 831 428 865 400 850 b 310 759 350 811 328 787 b 269 664 292 731 279 699 l 678 664 l 646 565 l 250 565 b 246 527 248 553 247 541 b 244 486 245 514 244 500 b 245 451 244 476 245 464 b 249 417 246 438 247 427 l 604 417 l 572 318 l 264 318 b 299 227 270 285 282 254 b 363 156 316 200 338 176 b 449 110 389 136 417 121 b 553 93 481 99 516 93 b 653 105 589 93 622 97 b 739 143 683 113 712 125 l 788 38 b 681 -8 758 18 722 3 b 544 -25 640 -19 594 -25 b 384 3 484 -25 431 -16 b 262 79 337 22 297 48 b 177 188 227 111 199 147 b 131 318 155 229 140 273 l 19 318 l 53 417 l 118 417 b 116 451 117 427 116 438 b 115 486 116 463 115 475 b 116 528 115 499 116 513 b 119 565 116 543 118 555 l 22 565 l 57 664 l 135 664 b 194 808 148 718 167 766 b 288 917 220 851 252 887 b 413 985 325 946 366 969 b 561 1008 459 1000 508 1008 b 680 996 603 1008 642 1004 b 775 963 717 988 749 976 l 732 851 l 732 851 "},"¥":{"ha":826,"x_min":0,"x_max":0,"o":"m 347 443 l 111 443 l 111 535 l 313 535 l 18 983 l 178 983 l 419 575 l 656 983 l 808 983 l 519 535 l 715 535 l 715 443 l 479 443 l 479 317 l 715 317 l 715 225 l 479 225 l 479 0 l 347 0 l 347 225 l 111 225 l 111 317 l 347 317 "},"Š":{"ha":790,"x_min":0,"x_max":0,"o":"m 608 801 b 529 867 589 828 563 850 b 417 893 496 884 458 893 b 349 884 394 893 372 890 b 288 855 327 878 306 868 b 242 805 269 841 254 825 b 225 733 231 785 225 761 b 241 666 225 706 230 684 b 284 620 252 648 266 633 b 348 588 302 608 323 597 b 426 561 372 579 399 570 b 528 526 460 551 494 539 b 621 475 562 513 593 496 b 689 395 649 454 671 427 b 715 274 706 363 715 323 b 687 141 715 223 706 178 b 611 48 668 103 643 72 b 502 -7 580 23 543 5 b 375 -25 461 -19 419 -25 b 195 11 313 -25 253 -13 b 51 118 137 35 89 71 l 158 208 b 251 125 181 174 213 146 b 378 93 290 104 332 93 b 447 103 401 93 424 96 b 510 133 470 109 491 119 b 557 185 529 147 545 165 b 575 261 569 206 575 231 b 556 335 575 291 569 316 b 506 386 544 355 527 372 b 431 422 484 400 459 412 b 342 451 403 431 373 441 b 249 485 310 461 279 472 b 167 537 218 499 191 516 b 108 614 143 558 123 583 b 86 728 94 644 86 682 b 116 854 86 777 96 819 b 194 942 136 889 162 919 b 302 992 226 965 262 982 b 424 1008 342 1003 383 1008 b 585 978 481 1008 535 998 b 706 896 635 957 675 930 l 608 801 m 339 1061 l 185 1261 l 310 1261 l 415 1124 l 521 1261 l 643 1261 l 488 1061 "},"§":{"ha":826,"x_min":0,"x_max":0,"o":"m 599 811 b 539 874 586 835 566 856 b 444 900 512 891 481 900 b 349 872 408 900 376 891 b 307 792 321 854 307 827 b 319 742 307 773 311 757 b 353 702 327 728 338 715 b 408 667 368 690 386 678 b 485 633 431 657 456 645 b 576 591 517 619 547 605 b 649 541 604 577 628 560 b 698 476 670 522 686 500 b 715 393 709 452 715 425 b 681 283 715 351 704 315 b 597 213 657 251 630 227 b 682 46 654 175 682 119 b 658 -60 682 5 674 -30 b 594 -135 641 -91 620 -115 b 503 -178 567 -154 537 -169 b 400 -193 470 -188 435 -193 b 228 -154 340 -193 283 -180 b 104 -35 174 -128 133 -88 l 219 29 b 294 -53 235 -9 260 -36 b 400 -79 329 -71 364 -79 b 448 -73 415 -79 431 -77 b 496 -53 465 -69 481 -62 b 532 -18 511 -45 523 -33 b 546 38 541 -3 546 15 b 535 88 546 57 542 74 b 499 128 527 103 516 116 b 438 163 483 140 463 152 b 346 204 413 175 382 188 b 262 244 316 217 288 230 b 193 289 235 257 213 272 b 147 347 174 306 158 325 b 129 428 135 369 129 396 b 169 549 129 476 143 516 b 268 621 196 581 229 605 b 201 683 243 637 221 657 b 172 783 182 708 172 742 b 196 883 172 821 180 854 b 258 953 212 911 232 934 b 344 994 283 971 312 985 b 443 1008 377 1004 410 1008 b 597 975 501 1008 553 997 b 697 883 641 953 674 922 l 599 811 m 360 558 b 324 545 349 556 337 551 b 291 523 312 539 301 532 b 267 491 281 514 273 503 b 257 447 260 478 257 464 b 267 401 257 430 260 414 b 296 367 274 388 284 377 b 338 341 308 358 322 349 b 389 317 354 333 371 325 l 506 267 b 563 306 527 274 546 287 b 588 375 579 325 588 348 b 577 425 588 394 584 411 b 549 462 570 439 561 451 b 510 490 538 472 525 482 b 464 513 495 497 480 505 l 360 558 "},"š":{"ha":617,"x_min":0,"x_max":0,"o":"m 468 492 b 406 551 453 516 432 535 b 315 574 379 566 349 574 b 271 569 300 574 286 572 b 231 553 256 566 243 560 b 203 527 220 547 210 538 b 193 488 197 516 193 503 b 231 426 193 460 206 439 b 343 389 256 412 293 400 b 431 363 375 381 404 373 b 501 324 457 352 481 340 b 547 269 521 309 536 291 b 564 194 558 248 564 223 b 542 96 564 156 556 123 b 483 30 527 69 507 47 b 399 -7 458 13 430 0 b 301 -18 367 -14 335 -18 b 155 11 251 -18 203 -8 b 36 100 107 31 68 60 l 129 179 b 202 114 147 153 171 131 b 304 88 233 96 267 88 b 352 92 321 88 337 89 b 394 108 367 96 381 101 b 424 138 406 116 416 125 b 435 183 431 150 435 165 b 391 251 435 214 420 237 b 263 293 362 266 319 280 b 195 313 240 299 218 305 b 133 346 172 321 152 332 b 88 398 115 360 100 377 b 71 475 77 419 71 444 b 92 566 71 510 78 541 b 149 628 107 591 125 612 b 228 665 172 645 198 657 b 319 676 257 672 288 676 b 456 649 367 676 412 667 b 558 568 500 630 534 603 l 468 492 m 246 783 l 92 983 l 217 983 l 322 846 l 428 983 l 550 983 l 394 783 "},"©":{"ha":1111,"x_min":0,"x_max":0,"o":"m 28 490 b 69 695 28 563 42 632 b 183 861 97 759 135 814 b 351 973 230 908 286 946 b 557 1014 415 1000 484 1014 b 761 973 629 1014 697 1000 b 928 861 825 946 881 908 b 1042 695 976 814 1014 759 b 1083 490 1069 632 1083 563 b 1042 287 1083 418 1069 350 b 928 121 1014 223 976 168 b 761 10 881 74 825 37 b 557 -31 697 -17 629 -31 b 351 10 484 -31 415 -17 b 183 121 286 37 230 74 b 69 287 135 168 97 223 b 28 490 42 350 28 418 m 111 490 b 147 318 111 429 123 372 b 242 177 170 264 202 217 b 384 82 283 137 330 105 b 557 47 438 59 496 47 b 729 82 618 47 675 59 b 870 177 783 105 830 137 b 965 318 910 217 942 264 b 1000 490 988 372 1000 429 b 965 663 1000 551 988 609 b 870 805 942 717 910 765 b 729 901 830 845 783 877 b 557 936 675 924 618 936 b 384 901 496 936 438 924 b 242 805 330 877 283 845 b 147 663 202 765 170 717 b 111 490 123 609 111 551 m 715 657 b 653 703 700 678 679 694 b 579 718 628 713 603 718 b 495 701 549 718 521 713 b 430 656 470 690 448 675 b 388 586 412 636 398 613 b 372 500 377 559 372 531 b 427 340 372 434 391 381 b 575 279 464 300 513 279 b 660 298 607 279 636 285 b 721 349 685 310 705 327 l 806 289 b 708 211 779 256 746 230 b 574 183 669 193 625 183 b 445 206 527 183 484 191 b 344 271 406 222 372 243 b 278 371 316 299 294 332 b 254 500 262 410 254 453 b 279 630 254 548 263 591 b 348 728 296 668 319 701 b 451 790 377 755 411 775 b 579 813 490 805 533 813 b 639 807 599 813 619 811 b 699 790 659 803 679 798 b 753 762 718 783 736 773 b 796 721 769 750 784 737 l 715 657 "},"ª":{"ha":528,"x_min":0,"x_max":0,"o":"m 342 650 b 294 606 331 632 316 618 b 218 589 272 595 247 589 b 169 595 202 589 186 591 b 121 615 152 599 136 606 b 85 653 106 625 94 637 b 71 711 75 669 71 688 b 96 781 71 740 79 763 b 160 822 113 798 134 812 b 247 840 186 831 215 838 b 342 844 280 843 311 844 l 342 854 b 315 908 342 878 333 896 b 251 926 298 920 276 926 b 191 914 230 926 210 922 b 143 882 172 906 156 895 l 93 942 b 171 989 115 963 141 979 b 260 1004 200 999 230 1004 b 347 990 295 1004 324 999 b 401 951 369 980 387 967 b 428 897 414 934 423 916 b 436 838 434 877 436 857 l 436 599 l 343 599 l 343 650 m 319 778 b 269 776 304 778 287 777 b 221 767 252 774 236 771 b 184 747 206 762 194 756 b 169 713 174 739 169 727 b 191 673 169 693 177 680 b 239 663 205 666 221 663 b 315 690 272 663 298 672 b 342 764 333 708 342 732 l 342 778 "},"«":{"ha":694,"x_min":0,"x_max":0,"o":"m 344 96 l 258 36 l 56 339 l 258 640 l 343 582 l 183 339 m 625 96 l 540 36 l 338 339 l 540 640 l 625 582 l 465 339 "},"¬":{"ha":925,"x_min":0,"x_max":0,"o":"m 715 193 l 715 479 l 97 479 l 97 592 l 828 592 l 828 193 "},"­":{"ha":444,"x_min":0,"x_max":0,"o":"m 61 283 l 61 394 l 383 394 l 383 283 "},"®":{"ha":833,"x_min":0,"x_max":0,"o":"m 432 710 b 467 722 445 710 457 714 b 483 756 478 731 483 742 b 465 788 483 770 477 781 b 432 797 453 794 442 797 l 367 797 l 367 710 l 432 710 m 417 649 l 367 649 l 367 511 l 282 511 l 282 867 l 435 867 b 483 861 451 867 468 865 b 526 843 499 857 513 851 b 558 809 539 835 550 823 b 569 756 566 795 569 777 b 549 696 569 731 563 712 b 499 661 536 680 519 669 l 593 511 l 493 511 m 100 685 b 125 808 100 728 108 769 b 193 908 142 846 164 879 b 294 975 222 936 255 958 b 417 1000 332 992 373 1000 b 540 975 460 1000 501 992 b 640 908 578 958 612 936 b 708 808 669 879 692 846 b 733 685 725 769 733 728 b 708 563 733 641 725 600 b 640 463 692 525 669 491 b 540 397 612 435 578 413 b 417 372 501 380 460 372 b 294 397 373 372 332 380 b 193 463 255 413 222 435 b 125 563 164 491 142 525 b 100 685 108 600 100 641 m 150 685 b 171 582 150 649 157 614 b 228 497 185 550 204 521 b 313 439 252 472 280 453 b 417 418 345 425 380 418 b 521 439 454 418 488 425 b 606 497 553 453 581 472 b 663 582 630 521 649 550 b 683 685 676 614 683 649 b 663 789 683 722 676 756 b 606 874 649 821 630 850 b 521 931 581 898 553 917 b 417 951 488 944 454 951 b 313 931 380 951 345 944 b 228 874 280 917 252 898 b 171 789 204 850 185 821 b 150 685 157 756 150 722 "},"¯":{"ha":347,"x_min":0,"x_max":0,"o":"m -32 829 l -32 922 l 379 922 l 379 829 "},"°":{"ha":556,"x_min":0,"x_max":0,"o":"m 493 785 b 476 700 493 754 488 726 b 431 633 465 674 450 652 b 363 588 411 614 388 599 b 278 571 337 576 308 571 b 193 588 247 571 219 576 b 125 633 167 599 144 614 b 79 700 106 652 90 674 b 63 785 68 726 63 754 b 79 869 63 815 68 844 b 125 938 90 895 106 918 b 193 983 144 957 167 972 b 278 1000 219 994 247 1000 b 363 983 308 1000 337 994 b 431 938 388 972 411 957 b 476 869 450 918 465 895 b 493 785 488 844 493 815 m 404 785 b 394 835 404 802 401 819 b 367 876 388 850 379 864 b 327 903 356 887 342 896 b 278 913 312 909 295 913 b 228 903 260 913 244 909 b 188 876 213 896 200 887 b 161 835 177 864 168 850 b 151 785 155 819 151 802 b 188 695 151 750 164 720 b 278 658 213 671 243 658 b 367 695 313 658 343 671 b 404 785 392 720 404 750 "},"±":{"ha":925,"x_min":0,"x_max":0,"o":"m 407 582 l 407 790 l 519 790 l 519 582 l 828 582 l 828 469 l 519 469 l 519 265 l 407 265 l 407 469 l 97 469 l 97 582 m 828 168 l 828 56 l 97 56 l 97 168 "},"²":{"ha":535,"x_min":0,"x_max":0,"o":"m 69 397 l 69 490 l 297 719 b 336 769 312 735 325 752 b 353 828 347 786 353 806 b 329 884 353 852 345 871 b 269 904 313 897 294 904 b 207 878 244 904 224 896 b 175 810 190 861 180 838 l 72 824 b 138 949 80 875 101 916 b 269 999 174 982 218 999 b 342 988 294 999 319 995 b 403 956 365 981 385 971 b 445 903 420 942 434 924 b 461 828 456 881 461 856 b 431 726 461 788 451 754 b 364 649 411 699 389 673 l 206 493 l 463 493 l 463 397 "},"³":{"ha":535,"x_min":0,"x_max":0,"o":"m 236 747 b 314 767 266 747 292 754 b 347 835 336 780 347 802 b 322 888 347 857 339 875 b 263 908 306 902 286 908 b 208 889 242 908 224 902 b 171 838 191 876 179 859 l 76 869 b 152 966 93 911 118 943 b 265 1000 186 989 224 1000 b 338 990 291 1000 316 997 b 398 960 361 984 381 974 b 438 910 415 947 428 930 b 453 839 448 889 453 866 b 428 758 453 807 444 781 b 367 710 411 736 391 720 b 440 658 396 700 421 683 b 468 569 459 633 468 604 b 451 490 468 539 462 513 b 405 434 439 468 424 449 b 340 400 386 419 364 407 b 265 389 316 393 291 389 b 139 423 218 389 176 400 b 56 535 102 446 74 483 l 154 565 b 194 505 163 540 176 520 b 263 482 213 490 236 482 b 332 503 288 482 311 489 b 364 572 353 518 364 541 b 352 615 364 590 360 604 b 322 642 344 626 334 635 b 281 657 310 649 297 654 b 236 661 266 660 251 661 l 199 661 l 199 747 "},"Ž":{"ha":822,"x_min":0,"x_max":0,"o":"m 213 122 l 776 122 l 776 0 l 46 0 l 46 121 l 600 863 l 57 863 l 57 983 l 768 983 l 768 863 m 339 1061 l 185 1261 l 310 1261 l 415 1124 l 521 1261 l 643 1261 l 488 1061 "},"µ":{"ha":803,"x_min":0,"x_max":0,"o":"m 574 0 b 569 56 572 17 570 35 b 568 108 569 77 568 94 l 565 108 b 481 19 549 73 521 43 b 350 -18 442 -6 398 -18 b 284 -7 327 -18 305 -14 b 235 24 263 0 247 11 l 235 -333 l 104 -333 l 104 658 l 235 658 l 235 294 b 241 217 235 268 237 242 b 264 153 245 193 253 171 b 310 108 275 134 290 119 b 385 92 329 97 354 92 b 513 151 438 92 480 111 b 561 308 545 190 561 243 l 561 658 l 692 658 l 692 142 b 693 74 692 124 692 101 b 697 0 694 46 695 21 l 574 0 "},"¶":{"ha":833,"x_min":0,"x_max":0,"o":"m 618 -175 l 618 896 l 458 896 l 458 -175 l 349 -175 l 349 454 b 229 474 305 454 265 461 b 136 528 193 487 162 505 b 76 609 110 551 90 578 b 54 710 61 640 54 674 b 142 915 54 801 83 870 b 375 983 200 961 278 983 l 726 983 l 726 -175 "},"·":{"ha":361,"x_min":0,"x_max":0,"o":"m 275 421 b 249 357 275 397 266 375 b 182 329 231 338 209 329 b 115 356 155 329 133 338 b 88 419 97 374 88 395 b 115 485 88 444 97 466 b 182 513 133 503 155 513 b 248 485 208 513 230 503 b 275 421 266 467 275 446 "},"ž":{"ha":642,"x_min":0,"x_max":0,"o":"m 207 110 l 597 110 l 597 0 l 46 0 l 46 107 l 418 551 l 64 551 l 64 658 l 582 658 l 582 551 m 254 783 l 100 983 l 225 983 l 331 846 l 436 983 l 558 983 l 403 783 "},"¹":{"ha":535,"x_min":0,"x_max":0,"o":"m 235 392 l 235 853 l 140 771 l 76 842 l 250 983 l 343 983 l 343 392 "},"º":{"ha":528,"x_min":0,"x_max":0,"o":"m 475 797 b 459 715 475 768 470 740 b 415 649 448 689 434 667 b 349 607 397 631 375 617 b 264 592 323 597 294 592 b 179 607 233 592 205 597 b 113 649 153 617 131 631 b 69 715 94 667 79 689 b 53 797 58 740 53 768 b 69 881 53 828 58 856 b 113 945 79 906 94 927 b 179 988 131 963 153 977 b 264 1003 205 998 233 1003 b 349 988 294 1003 323 998 b 415 945 375 977 397 963 b 459 881 434 927 448 906 b 475 797 470 856 475 828 m 371 797 b 344 877 371 828 362 854 b 264 911 326 900 299 911 b 185 877 229 911 202 900 b 158 797 167 854 158 828 b 185 718 158 768 167 741 b 264 683 202 695 229 683 b 344 718 299 683 326 695 b 371 797 362 741 371 768 "},"»":{"ha":694,"x_min":0,"x_max":0,"o":"m 639 339 l 436 36 l 350 96 l 511 339 l 351 582 l 436 640 m 357 339 l 154 36 l 69 96 l 229 339 l 69 582 l 154 640 "},"Œ":{"ha":1393,"x_min":0,"x_max":0,"o":"m 1308 863 l 849 863 l 849 568 l 1279 568 l 1279 450 l 849 450 l 849 122 l 1329 122 l 1329 0 l 600 0 b 411 30 537 0 474 10 b 240 120 348 50 291 80 b 117 273 189 160 148 211 b 69 492 85 334 69 407 b 117 715 69 579 85 653 b 240 868 148 777 189 828 b 411 956 291 908 348 937 b 600 983 474 974 537 983 l 1308 983 m 628 863 b 463 839 569 863 514 855 b 333 768 413 823 369 800 b 247 652 296 737 268 698 b 217 492 227 606 217 553 b 247 335 217 433 227 381 b 333 219 268 290 296 251 b 463 147 369 188 413 164 b 628 122 514 131 569 122 l 711 122 l 711 863 l 628 863 "},"œ":{"ha":1354,"x_min":0,"x_max":0,"o":"m 969 676 b 1101 653 1019 676 1063 669 b 1201 585 1140 637 1173 614 b 1264 477 1228 555 1249 519 b 1286 335 1279 435 1286 388 l 1286 313 b 1285 290 1286 305 1286 298 l 761 290 b 781 211 763 262 770 235 b 828 148 793 187 808 166 b 895 106 847 130 870 116 b 976 90 921 95 948 90 b 1092 119 1022 90 1060 100 b 1168 190 1124 139 1150 163 l 1258 117 b 975 -18 1189 27 1094 -18 b 812 20 914 -18 859 -5 b 699 124 764 46 726 80 b 583 20 670 80 631 46 b 419 -18 535 -5 481 -18 b 280 8 369 -18 323 -9 b 169 80 237 25 200 49 b 96 190 138 111 113 148 b 69 331 78 233 69 280 b 96 470 69 381 78 428 b 169 579 113 512 138 549 b 280 651 200 610 237 634 b 419 676 323 668 369 676 b 584 638 481 676 535 663 b 700 533 633 612 671 577 b 812 637 729 576 766 610 b 969 676 858 663 910 676 m 643 331 b 628 421 643 362 638 392 b 586 497 619 450 605 475 b 517 549 568 518 545 536 b 424 568 490 562 459 568 b 329 549 388 568 357 562 b 260 497 301 536 278 518 b 217 421 241 475 227 450 b 203 331 208 392 203 362 b 217 240 203 299 208 269 b 260 164 227 212 241 186 b 329 111 278 142 301 124 b 424 92 357 98 388 92 b 517 111 459 92 490 98 b 586 164 545 124 568 142 b 628 240 605 186 619 212 b 643 331 638 269 643 299 m 1156 388 b 1142 460 1155 413 1150 438 b 1107 519 1134 483 1123 503 b 1049 559 1091 536 1072 549 b 969 574 1027 569 1000 574 b 891 559 942 574 916 569 b 827 519 866 549 845 536 b 783 460 809 503 794 483 b 763 388 771 438 764 413 l 1156 388 "},"Ÿ":{"ha":867,"x_min":0,"x_max":0,"o":"m 364 0 l 364 425 l -4 983 l 165 983 l 438 539 l 711 983 l 871 983 l 503 425 l 503 0 m 217 1174 b 241 1233 217 1196 225 1216 b 303 1258 257 1250 278 1258 b 364 1234 327 1258 347 1250 b 389 1174 381 1218 389 1198 b 364 1115 389 1150 381 1131 b 303 1090 347 1098 327 1090 b 241 1116 278 1090 257 1099 b 217 1174 225 1133 217 1152 m 486 1174 b 510 1233 486 1196 494 1216 b 572 1258 527 1250 547 1258 b 633 1234 596 1258 617 1250 b 658 1174 650 1218 658 1198 b 633 1115 658 1150 650 1131 b 572 1090 617 1098 596 1090 b 510 1116 547 1090 527 1099 b 486 1174 494 1133 486 1152 "},"¿":{"ha":694,"x_min":0,"x_max":0,"o":"m 415 397 l 415 331 b 408 265 415 306 413 285 b 388 213 404 246 397 228 b 356 167 379 197 369 182 b 314 124 344 153 330 138 l 263 75 b 212 17 242 57 225 38 b 192 -62 198 -3 192 -30 b 234 -169 192 -107 206 -142 b 343 -208 262 -195 299 -208 b 454 -164 389 -208 426 -194 b 503 -56 482 -134 498 -98 l 636 -71 b 601 -178 631 -111 619 -147 b 535 -260 584 -210 562 -237 b 444 -310 509 -282 479 -299 b 335 -328 410 -322 374 -328 b 226 -311 296 -328 259 -322 b 136 -262 192 -300 162 -284 b 75 -181 110 -240 90 -213 b 53 -71 60 -149 53 -112 b 63 7 53 -41 56 -15 b 90 67 69 29 78 49 b 132 118 101 85 115 102 b 186 167 149 134 167 150 b 233 209 205 182 220 197 b 263 247 245 222 255 234 b 280 290 271 260 277 275 b 285 349 283 306 285 325 l 285 397 m 250 593 b 276 657 250 617 259 638 b 343 685 294 675 316 685 b 409 658 369 685 391 676 b 436 594 427 640 436 619 b 410 530 436 569 427 548 b 343 503 392 512 370 503 b 276 529 316 503 294 512 b 250 593 259 547 250 568 "},"À":{"ha":988,"x_min":0,"x_max":0,"o":"m 7 0 l 433 983 l 558 983 l 981 0 l 825 0 l 725 242 l 258 242 l 160 0 m 675 363 l 492 824 l 307 363 m 413 1261 l 551 1061 l 444 1061 l 254 1261 "},"Á":{"ha":988,"x_min":0,"x_max":0,"o":"m 7 0 l 433 983 l 558 983 l 981 0 l 825 0 l 725 242 l 258 242 l 160 0 m 675 363 l 492 824 l 307 363 m 447 1061 l 585 1261 l 743 1261 l 553 1061 "},"Â":{"ha":988,"x_min":0,"x_max":0,"o":"m 7 0 l 433 983 l 558 983 l 981 0 l 825 0 l 725 242 l 258 242 l 160 0 m 675 363 l 492 824 l 307 363 m 603 1061 l 499 1199 l 393 1061 l 268 1061 l 424 1261 l 574 1261 l 729 1061 "},"Ã":{"ha":988,"x_min":0,"x_max":0,"o":"m 7 0 l 433 983 l 558 983 l 981 0 l 825 0 l 725 242 l 258 242 l 160 0 m 675 363 l 492 824 l 307 363 m 257 1072 b 272 1131 261 1093 266 1112 b 297 1183 278 1150 286 1167 b 338 1219 308 1198 322 1210 b 399 1233 354 1229 375 1233 b 452 1225 416 1233 434 1231 b 503 1206 470 1219 487 1213 b 553 1184 521 1197 538 1190 b 596 1175 569 1178 583 1175 b 641 1195 616 1175 631 1182 b 663 1239 651 1209 658 1223 l 738 1239 b 723 1180 734 1219 729 1199 b 697 1128 717 1161 708 1144 b 656 1092 686 1113 672 1101 b 596 1078 639 1082 619 1078 b 542 1087 578 1078 560 1081 b 489 1107 523 1093 506 1100 b 441 1128 472 1115 456 1122 b 399 1136 426 1133 412 1136 b 355 1116 379 1136 365 1129 b 333 1072 345 1103 338 1088 l 257 1072 "},"Ä":{"ha":988,"x_min":0,"x_max":0,"o":"m 7 0 l 433 983 l 558 983 l 981 0 l 825 0 l 725 242 l 258 242 l 160 0 m 675 363 l 492 824 l 307 363 m 275 1174 b 299 1233 275 1196 283 1216 b 361 1258 316 1250 336 1258 b 422 1234 385 1258 406 1250 b 447 1174 439 1218 447 1198 b 422 1115 447 1150 439 1131 b 361 1090 406 1098 385 1090 b 299 1116 336 1090 316 1099 b 275 1174 283 1133 275 1152 m 544 1174 b 569 1233 544 1196 553 1216 b 631 1258 585 1250 606 1258 b 692 1234 655 1258 675 1250 b 717 1174 708 1218 717 1198 b 692 1115 717 1150 708 1131 b 631 1090 675 1098 655 1090 b 569 1116 606 1090 585 1099 b 544 1174 553 1133 544 1152 "},"Å":{"ha":988,"x_min":0,"x_max":0,"o":"m 7 0 l 433 983 l 558 983 l 981 0 l 825 0 l 725 242 l 258 242 l 160 0 m 675 363 l 492 824 l 307 363 m 638 1185 b 597 1086 638 1145 624 1112 b 497 1047 569 1060 536 1047 b 443 1058 478 1047 460 1051 b 399 1086 426 1065 412 1074 b 369 1129 387 1098 377 1113 b 358 1183 362 1146 358 1164 b 399 1282 358 1223 372 1256 b 497 1321 425 1308 458 1321 b 597 1282 536 1321 569 1308 b 638 1185 624 1256 638 1224 m 581 1185 b 556 1242 581 1208 572 1227 b 497 1265 540 1258 520 1265 b 439 1242 474 1265 455 1257 b 415 1183 423 1226 415 1206 b 439 1127 415 1161 423 1142 b 497 1104 455 1112 474 1104 b 556 1127 520 1104 540 1112 b 581 1185 572 1142 581 1162 "},"Æ":{"ha":1410,"x_min":0,"x_max":0,"o":"m 1346 122 l 1346 0 l 728 0 l 728 267 l 335 267 l 167 0 l 3 0 l 638 983 l 1325 983 l 1325 863 l 865 863 l 865 568 l 1296 568 l 1296 450 l 865 450 l 865 122 m 728 863 l 708 863 l 407 386 l 728 386 "},"Ç":{"ha":983,"x_min":0,"x_max":0,"o":"m 963 153 b 818 29 925 103 877 62 b 607 -24 759 -3 688 -21 l 560 -96 b 578 -93 566 -94 572 -93 l 597 -93 b 644 -99 613 -93 628 -95 b 685 -117 659 -102 673 -108 b 716 -150 698 -125 708 -136 b 728 -201 724 -164 728 -181 b 711 -262 728 -225 722 -246 b 669 -301 700 -278 686 -291 b 612 -321 652 -310 633 -317 b 551 -326 591 -325 571 -326 b 476 -318 527 -326 502 -324 b 408 -294 450 -312 428 -305 l 436 -236 b 543 -260 470 -252 506 -260 b 569 -257 550 -260 559 -259 b 597 -248 578 -255 588 -252 b 619 -231 605 -244 613 -238 b 628 -201 625 -223 628 -213 b 604 -160 628 -181 620 -167 b 553 -149 588 -152 571 -149 b 525 -151 544 -149 535 -150 b 496 -158 515 -153 505 -156 l 468 -131 l 539 -22 b 349 27 469 -17 406 0 b 201 136 291 54 242 91 b 104 295 159 181 127 234 b 69 493 81 356 69 422 b 109 703 69 570 83 640 b 219 866 135 767 172 821 b 385 971 266 911 321 946 b 593 1008 449 996 518 1008 b 694 999 626 1008 660 1005 b 793 969 729 992 762 982 b 879 922 825 956 853 941 b 946 856 905 903 927 881 l 838 772 b 735 855 813 806 779 833 b 593 888 691 877 644 888 b 438 856 536 888 484 877 b 321 771 392 835 353 807 b 246 645 288 735 263 693 b 219 493 228 597 219 547 b 245 338 219 438 228 386 b 319 212 262 289 287 247 b 435 128 351 176 390 148 b 589 97 481 107 532 97 b 740 131 644 97 695 108 b 853 228 786 153 823 185 l 963 153 "},"È":{"ha":835,"x_min":0,"x_max":0,"o":"m 771 122 l 771 0 l 119 0 l 119 983 l 750 983 l 750 863 l 257 863 l 257 568 l 721 568 l 721 450 l 257 450 l 257 122 m 403 1261 l 542 1061 l 435 1061 l 244 1261 "},"É":{"ha":835,"x_min":0,"x_max":0,"o":"m 771 122 l 771 0 l 119 0 l 119 983 l 750 983 l 750 863 l 257 863 l 257 568 l 721 568 l 721 450 l 257 450 l 257 122 m 364 1061 l 501 1261 l 660 1261 l 469 1061 "},"Ê":{"ha":835,"x_min":0,"x_max":0,"o":"m 771 122 l 771 0 l 119 0 l 119 983 l 750 983 l 750 863 l 257 863 l 257 568 l 721 568 l 721 450 l 257 450 l 257 122 m 546 1061 l 442 1199 l 336 1061 l 211 1061 l 367 1261 l 517 1261 l 672 1061 "},"Ë":{"ha":835,"x_min":0,"x_max":0,"o":"m 771 122 l 771 0 l 119 0 l 119 983 l 750 983 l 750 863 l 257 863 l 257 568 l 721 568 l 721 450 l 257 450 l 257 122 m 219 1174 b 244 1233 219 1196 228 1216 b 306 1258 260 1250 281 1258 b 367 1234 330 1258 350 1250 b 392 1174 383 1218 392 1198 b 367 1115 392 1150 383 1131 b 306 1090 350 1098 330 1090 b 244 1116 281 1090 260 1099 b 219 1174 228 1133 219 1152 m 489 1174 b 513 1233 489 1196 497 1216 b 575 1258 529 1250 550 1258 b 636 1234 599 1258 619 1250 b 661 1174 653 1218 661 1198 b 636 1115 661 1150 653 1131 b 575 1090 619 1098 599 1090 b 513 1116 550 1090 529 1099 b 489 1174 497 1133 489 1152 "},"Ì":{"ha":376,"x_min":0,"x_max":0,"o":"m 119 0 l 119 983 l 257 983 l 257 0 m 119 1261 l 258 1061 l 151 1061 l -39 1261 "},"Í":{"ha":376,"x_min":0,"x_max":0,"o":"m 119 0 l 119 983 l 257 983 l 257 0 m 118 1061 l 256 1261 l 414 1261 l 224 1061 "},"Î":{"ha":376,"x_min":0,"x_max":0,"o":"m 119 0 l 119 983 l 257 983 l 257 0 m 290 1061 l 186 1199 l 81 1061 l -44 1061 l 111 1261 l 261 1261 l 417 1061 "},"Ï":{"ha":376,"x_min":0,"x_max":0,"o":"m 119 0 l 119 983 l 257 983 l 257 0 m -32 1174 b -8 1233 -32 1196 -24 1216 b 54 1258 9 1250 29 1258 b 115 1234 78 1258 99 1250 b 140 1174 132 1218 140 1198 b 115 1115 140 1150 132 1131 b 54 1090 99 1098 78 1090 b -8 1116 29 1090 9 1099 b -32 1174 -24 1133 -32 1152 m 238 1174 b 262 1233 238 1196 246 1216 b 324 1258 278 1250 299 1258 b 385 1234 348 1258 368 1250 b 410 1174 401 1218 410 1198 b 385 1115 410 1150 401 1131 b 324 1090 368 1098 348 1090 b 262 1116 299 1090 278 1099 b 238 1174 246 1133 238 1152 "},"Ð":{"ha":1057,"x_min":0,"x_max":0,"o":"m 18 465 l 18 563 l 114 563 l 114 983 l 472 983 b 658 953 535 983 597 973 b 821 861 718 932 773 902 b 937 708 869 820 908 769 b 981 492 966 646 981 574 b 933 274 981 408 965 336 b 811 121 902 213 861 162 b 644 30 761 80 705 50 b 461 0 582 10 521 0 l 114 0 l 114 465 m 415 125 b 590 151 480 125 538 134 b 721 226 641 169 685 194 b 804 341 757 258 785 296 b 833 492 824 386 833 436 b 806 642 833 547 824 597 b 728 758 788 687 762 726 b 601 832 694 790 651 814 b 429 858 550 850 493 858 l 253 858 l 253 563 l 582 563 l 582 465 l 253 465 l 253 125 "},"Ñ":{"ha":1072,"x_min":0,"x_max":0,"o":"m 815 197 l 815 983 l 953 983 l 953 0 l 779 0 l 260 803 l 257 803 l 257 0 l 119 0 l 119 983 l 299 983 l 813 197 m 293 1072 b 308 1131 297 1093 302 1112 b 333 1183 314 1150 322 1167 b 374 1219 344 1198 358 1210 b 435 1233 391 1229 411 1233 b 488 1225 452 1233 470 1231 b 539 1206 506 1219 523 1213 b 590 1184 557 1197 574 1190 b 632 1175 605 1178 619 1175 b 677 1195 652 1175 667 1182 b 699 1239 687 1209 694 1223 l 774 1239 b 759 1180 770 1219 765 1199 b 733 1128 753 1161 744 1144 b 692 1092 722 1113 708 1101 b 632 1078 675 1082 655 1078 b 578 1087 614 1078 596 1081 b 525 1107 559 1093 542 1100 b 477 1128 508 1115 492 1122 b 435 1136 462 1133 448 1136 b 391 1116 415 1136 401 1129 b 369 1072 381 1103 374 1088 l 293 1072 "},"Ò":{"ha":1179,"x_min":0,"x_max":0,"o":"m 1111 493 b 1072 284 1111 417 1098 347 b 963 120 1045 221 1009 166 b 797 13 916 74 861 39 b 589 -25 733 -12 664 -25 b 381 13 514 -25 445 -12 b 217 120 318 39 263 74 b 108 284 170 166 134 221 b 69 493 82 347 69 417 b 108 703 69 570 82 640 b 217 866 134 767 170 821 b 381 971 263 911 318 946 b 589 1008 445 996 514 1008 b 797 971 664 1008 733 996 b 963 866 861 946 916 911 b 1072 703 1009 821 1045 767 b 1111 493 1098 640 1111 570 m 963 493 b 936 645 963 547 954 597 b 861 771 919 693 894 735 b 744 856 829 807 790 835 b 589 888 698 877 646 888 b 435 856 532 888 481 877 b 319 771 390 835 351 807 b 244 645 287 735 262 693 b 218 493 227 597 218 547 b 244 339 218 438 227 387 b 319 213 262 291 287 249 b 436 129 352 178 391 150 b 589 99 481 109 532 99 b 743 129 645 99 697 109 b 861 213 789 150 829 178 b 936 339 894 249 919 291 b 963 493 954 387 963 438 m 536 1261 l 675 1061 l 568 1061 l 378 1261 "},"Ó":{"ha":1179,"x_min":0,"x_max":0,"o":"m 1111 493 b 1072 284 1111 417 1098 347 b 963 120 1045 221 1009 166 b 797 13 916 74 861 39 b 589 -25 733 -12 664 -25 b 381 13 514 -25 445 -12 b 217 120 318 39 263 74 b 108 284 170 166 134 221 b 69 493 82 347 69 417 b 108 703 69 570 82 640 b 217 866 134 767 170 821 b 381 971 263 911 318 946 b 589 1008 445 996 514 1008 b 797 971 664 1008 733 996 b 963 866 861 946 916 911 b 1072 703 1009 821 1045 767 b 1111 493 1098 640 1111 570 m 963 493 b 936 645 963 547 954 597 b 861 771 919 693 894 735 b 744 856 829 807 790 835 b 589 888 698 877 646 888 b 435 856 532 888 481 877 b 319 771 390 835 351 807 b 244 645 287 735 262 693 b 218 493 227 597 218 547 b 244 339 218 438 227 387 b 319 213 262 291 287 249 b 436 129 352 178 391 150 b 589 99 481 109 532 99 b 743 129 645 99 697 109 b 861 213 789 150 829 178 b 936 339 894 249 919 291 b 963 493 954 387 963 438 m 515 1061 l 653 1261 l 811 1261 l 621 1061 "},"Ô":{"ha":1179,"x_min":0,"x_max":0,"o":"m 1111 493 b 1072 284 1111 417 1098 347 b 963 120 1045 221 1009 166 b 797 13 916 74 861 39 b 589 -25 733 -12 664 -25 b 381 13 514 -25 445 -12 b 217 120 318 39 263 74 b 108 284 170 166 134 221 b 69 493 82 347 69 417 b 108 703 69 570 82 640 b 217 866 134 767 170 821 b 381 971 263 911 318 946 b 589 1008 445 996 514 1008 b 797 971 664 1008 733 996 b 963 866 861 946 916 911 b 1072 703 1009 821 1045 767 b 1111 493 1098 640 1111 570 m 963 493 b 936 645 963 547 954 597 b 861 771 919 693 894 735 b 744 856 829 807 790 835 b 589 888 698 877 646 888 b 435 856 532 888 481 877 b 319 771 390 835 351 807 b 244 645 287 735 262 693 b 218 493 227 597 218 547 b 244 339 218 438 227 387 b 319 213 262 291 287 249 b 436 129 352 178 391 150 b 589 99 481 109 532 99 b 743 129 645 99 697 109 b 861 213 789 150 829 178 b 936 339 894 249 919 291 b 963 493 954 387 963 438 m 693 1061 l 589 1199 l 483 1061 l 358 1061 l 514 1261 l 664 1261 l 819 1061 "},"Õ":{"ha":1179,"x_min":0,"x_max":0,"o":"m 1111 493 b 1072 284 1111 417 1098 347 b 963 120 1045 221 1009 166 b 797 13 916 74 861 39 b 589 -25 733 -12 664 -25 b 381 13 514 -25 445 -12 b 217 120 318 39 263 74 b 108 284 170 166 134 221 b 69 493 82 347 69 417 b 108 703 69 570 82 640 b 217 866 134 767 170 821 b 381 971 263 911 318 946 b 589 1008 445 996 514 1008 b 797 971 664 1008 733 996 b 963 866 861 946 916 911 b 1072 703 1009 821 1045 767 b 1111 493 1098 640 1111 570 m 963 493 b 936 645 963 547 954 597 b 861 771 919 693 894 735 b 744 856 829 807 790 835 b 589 888 698 877 646 888 b 435 856 532 888 481 877 b 319 771 390 835 351 807 b 244 645 287 735 262 693 b 218 493 227 597 218 547 b 244 339 218 438 227 387 b 319 213 262 291 287 249 b 436 129 352 178 391 150 b 589 99 481 109 532 99 b 743 129 645 99 697 109 b 861 213 789 150 829 178 b 936 339 894 249 919 291 b 963 493 954 387 963 438 m 349 1072 b 363 1131 352 1093 357 1112 b 389 1183 369 1150 378 1167 b 430 1219 400 1198 414 1210 b 490 1233 446 1229 466 1233 b 544 1225 508 1233 526 1231 b 594 1206 562 1219 579 1213 b 645 1184 613 1197 630 1190 b 688 1175 660 1178 675 1175 b 733 1195 708 1175 723 1182 b 754 1239 742 1209 750 1223 l 829 1239 b 815 1180 825 1219 821 1199 b 789 1128 809 1161 800 1144 b 747 1092 778 1113 764 1101 b 688 1078 731 1082 711 1078 b 633 1087 670 1078 652 1081 b 581 1107 615 1093 597 1100 b 533 1128 564 1115 548 1122 b 490 1136 517 1133 503 1136 b 447 1116 471 1136 456 1129 b 425 1072 437 1103 430 1088 l 349 1072 "},"Ö":{"ha":1179,"x_min":0,"x_max":0,"o":"m 1111 493 b 1072 284 1111 417 1098 347 b 963 120 1045 221 1009 166 b 797 13 916 74 861 39 b 589 -25 733 -12 664 -25 b 381 13 514 -25 445 -12 b 217 120 318 39 263 74 b 108 284 170 166 134 221 b 69 493 82 347 69 417 b 108 703 69 570 82 640 b 217 866 134 767 170 821 b 381 971 263 911 318 946 b 589 1008 445 996 514 1008 b 797 971 664 1008 733 996 b 963 866 861 946 916 911 b 1072 703 1009 821 1045 767 b 1111 493 1098 640 1111 570 m 963 493 b 936 645 963 547 954 597 b 861 771 919 693 894 735 b 744 856 829 807 790 835 b 589 888 698 877 646 888 b 435 856 532 888 481 877 b 319 771 390 835 351 807 b 244 645 287 735 262 693 b 218 493 227 597 218 547 b 244 339 218 438 227 387 b 319 213 262 291 287 249 b 436 129 352 178 391 150 b 589 99 481 109 532 99 b 743 129 645 99 697 109 b 861 213 789 150 829 178 b 936 339 894 249 919 291 b 963 493 954 387 963 438 m 368 1174 b 392 1233 368 1196 376 1216 b 454 1258 409 1250 429 1258 b 515 1234 478 1258 499 1250 b 540 1174 532 1218 540 1198 b 515 1115 540 1150 532 1131 b 454 1090 499 1098 478 1090 b 392 1116 429 1090 409 1099 b 368 1174 376 1133 368 1152 m 638 1174 b 662 1233 638 1196 646 1216 b 724 1258 678 1250 699 1258 b 785 1234 748 1258 768 1250 b 810 1174 801 1218 810 1198 b 785 1115 810 1150 801 1131 b 724 1090 768 1098 748 1090 b 662 1116 699 1090 678 1099 b 638 1174 646 1133 638 1152 "},"×":{"ha":925,"x_min":0,"x_max":0,"o":"m 699 738 l 778 660 l 542 422 l 781 182 l 699 101 l 461 338 l 225 101 l 144 182 l 383 418 l 146 660 l 225 738 l 463 500 "},"Ø":{"ha":1179,"x_min":0,"x_max":0,"o":"m 971 857 b 1074 697 1015 812 1050 758 b 1111 493 1099 636 1111 568 b 1072 285 1111 417 1098 348 b 963 122 1045 222 1009 167 b 797 15 916 76 861 40 b 589 -25 733 -11 664 -24 b 408 3 524 -25 464 -16 b 258 85 353 22 303 50 l 146 -36 l 86 18 l 199 140 b 103 297 157 185 125 237 b 69 493 81 357 69 423 b 108 703 69 570 82 640 b 217 866 134 767 170 821 b 381 971 263 911 318 946 b 589 1008 445 996 514 1008 b 762 983 650 1008 708 1000 b 908 910 816 967 865 942 l 1021 1031 l 1081 976 l 971 857 m 822 813 b 720 869 794 837 759 855 b 589 889 681 882 637 889 b 432 858 531 889 478 878 b 314 773 386 837 346 809 b 240 647 281 737 257 695 b 214 493 222 599 214 548 b 293 242 214 392 240 308 l 822 813 m 349 181 b 454 118 379 154 414 133 b 589 96 494 103 539 96 b 745 127 646 96 698 106 b 865 212 792 148 832 176 b 940 338 897 247 923 289 b 967 493 958 386 967 438 b 945 635 967 543 959 591 b 881 756 931 680 909 720 l 349 181 "},"Ù":{"ha":989,"x_min":0,"x_max":0,"o":"m 494 -25 b 325 8 430 -25 373 -14 b 206 94 277 29 237 58 b 135 219 174 131 151 172 b 113 364 120 266 113 314 l 113 983 l 250 983 l 250 372 b 263 273 250 339 254 306 b 303 185 271 240 284 211 b 378 122 322 159 347 138 b 494 99 409 106 448 99 b 610 122 540 99 578 106 b 685 185 641 138 666 159 b 726 273 704 211 718 240 b 739 372 735 306 739 339 l 739 983 l 876 983 l 876 364 b 853 219 876 314 869 266 b 783 94 838 172 815 131 b 664 8 752 58 712 29 b 494 -25 616 -14 559 -25 m 417 1261 l 556 1061 l 449 1061 l 258 1261 "},"Ú":{"ha":989,"x_min":0,"x_max":0,"o":"m 494 -25 b 325 8 430 -25 373 -14 b 206 94 277 29 237 58 b 135 219 174 131 151 172 b 113 364 120 266 113 314 l 113 983 l 250 983 l 250 372 b 263 273 250 339 254 306 b 303 185 271 240 284 211 b 378 122 322 159 347 138 b 494 99 409 106 448 99 b 610 122 540 99 578 106 b 685 185 641 138 666 159 b 726 273 704 211 718 240 b 739 372 735 306 739 339 l 739 983 l 876 983 l 876 364 b 853 219 876 314 869 266 b 783 94 838 172 815 131 b 664 8 752 58 712 29 b 494 -25 616 -14 559 -25 m 410 1061 l 547 1261 l 706 1261 l 515 1061 "},"Û":{"ha":989,"x_min":0,"x_max":0,"o":"m 494 -25 b 325 8 430 -25 373 -14 b 206 94 277 29 237 58 b 135 219 174 131 151 172 b 113 364 120 266 113 314 l 113 983 l 250 983 l 250 372 b 263 273 250 339 254 306 b 303 185 271 240 284 211 b 378 122 322 159 347 138 b 494 99 409 106 448 99 b 610 122 540 99 578 106 b 685 185 641 138 666 159 b 726 273 704 211 718 240 b 739 372 735 306 739 339 l 739 983 l 876 983 l 876 364 b 853 219 876 314 869 266 b 783 94 838 172 815 131 b 664 8 752 58 712 29 b 494 -25 616 -14 559 -25 m 596 1061 l 492 1199 l 386 1061 l 261 1061 l 417 1261 l 567 1261 l 722 1061 "},"Ü":{"ha":989,"x_min":0,"x_max":0,"o":"m 494 -25 b 325 8 430 -25 373 -14 b 206 94 277 29 237 58 b 135 219 174 131 151 172 b 113 364 120 266 113 314 l 113 983 l 250 983 l 250 372 b 263 273 250 339 254 306 b 303 185 271 240 284 211 b 378 122 322 159 347 138 b 494 99 409 106 448 99 b 610 122 540 99 578 106 b 685 185 641 138 666 159 b 726 273 704 211 718 240 b 739 372 735 306 739 339 l 739 983 l 876 983 l 876 364 b 853 219 876 314 869 266 b 783 94 838 172 815 131 b 664 8 752 58 712 29 b 494 -25 616 -14 559 -25 m 274 1174 b 298 1233 274 1196 282 1216 b 360 1258 314 1250 335 1258 b 421 1234 384 1258 404 1250 b 446 1174 438 1218 446 1198 b 421 1115 446 1150 438 1131 b 360 1090 404 1098 384 1090 b 298 1116 335 1090 314 1099 b 274 1174 282 1133 274 1152 m 543 1174 b 567 1233 543 1196 551 1216 b 629 1258 584 1250 604 1258 b 690 1234 653 1258 674 1250 b 715 1174 707 1218 715 1198 b 690 1115 715 1150 707 1131 b 629 1090 674 1098 653 1090 b 567 1116 604 1090 584 1099 b 543 1174 551 1133 543 1152 "},"Ý":{"ha":867,"x_min":0,"x_max":0,"o":"m 364 0 l 364 425 l -4 983 l 165 983 l 438 539 l 711 983 l 871 983 l 503 425 l 503 0 m 374 1061 l 511 1261 l 669 1261 l 479 1061 "},"Þ":{"ha":826,"x_min":0,"x_max":0,"o":"m 257 983 l 257 781 l 419 781 b 564 764 472 781 520 775 b 675 713 607 753 644 736 b 746 628 706 691 729 662 b 771 507 763 594 771 553 b 744 379 771 457 762 414 b 669 293 726 344 701 315 b 555 244 637 271 599 255 b 413 229 511 234 463 229 l 257 229 l 257 0 l 119 0 l 119 983 m 399 347 b 491 356 432 347 463 350 b 564 383 519 361 544 370 b 611 431 584 395 600 411 b 628 506 622 451 628 476 b 610 578 628 534 622 559 b 563 627 599 598 583 615 b 492 654 543 640 519 649 b 401 663 464 660 434 663 l 257 663 l 257 347 "},"ß":{"ha":850,"x_min":0,"x_max":0,"o":"m 111 0 l 111 729 b 127 853 111 771 116 812 b 180 961 138 894 155 930 b 277 1038 204 993 237 1018 b 426 1067 317 1057 367 1067 b 538 1048 466 1067 503 1060 b 627 995 572 1035 602 1018 b 687 914 653 972 672 945 b 708 808 701 882 708 847 b 667 674 708 756 695 712 b 554 594 640 637 602 610 l 554 592 b 650 560 589 586 621 575 b 723 499 679 544 703 524 b 769 414 743 475 758 446 b 786 308 781 381 786 346 b 763 176 786 260 778 216 b 695 74 747 137 724 102 b 589 7 666 45 631 23 b 449 -17 547 -9 500 -17 b 350 -6 417 -17 384 -13 l 350 104 b 390 97 360 101 373 99 b 432 94 406 95 420 94 b 592 153 499 94 552 114 b 651 314 631 192 651 245 b 633 409 651 350 645 382 b 583 476 621 436 604 459 b 506 516 561 494 535 507 b 411 529 477 525 445 529 l 396 529 l 396 643 l 411 643 b 531 682 460 643 500 656 b 578 796 562 708 578 746 b 535 908 578 841 564 878 b 421 951 507 937 469 951 b 331 930 384 951 354 944 b 276 875 307 916 289 897 b 249 801 262 853 253 828 b 242 724 244 775 242 749 l 242 0 "},"à":{"ha":753,"x_min":0,"x_max":0,"o":"m 522 426 b 478 535 522 475 507 512 b 360 571 448 559 409 571 b 255 549 323 571 288 564 b 172 494 222 535 194 517 l 103 578 b 222 650 135 608 175 632 b 372 676 268 668 319 676 b 495 656 419 676 460 670 b 581 601 530 643 558 625 b 631 519 603 578 619 551 b 647 418 642 488 647 454 l 647 131 b 649 60 647 108 648 85 b 657 0 651 36 653 16 l 539 0 b 528 94 531 31 528 63 l 524 94 b 433 13 500 59 469 32 b 303 -17 396 -7 353 -17 b 222 -6 277 -17 250 -13 b 144 28 193 1 168 12 b 87 90 121 44 102 64 b 64 186 72 116 64 148 b 104 305 64 236 77 276 b 210 372 131 334 166 356 b 357 401 253 387 302 397 b 522 408 412 406 467 408 l 522 426 m 490 314 b 390 310 458 314 424 313 b 295 293 355 307 323 301 b 225 256 267 285 244 272 b 197 189 206 239 197 217 b 209 140 197 169 201 153 b 240 108 217 127 227 117 b 283 91 253 100 268 94 b 332 86 299 88 315 86 b 473 141 393 86 440 104 b 522 279 506 178 522 224 l 522 314 l 490 314 m 324 983 l 463 783 l 356 783 l 167 983 "},"á":{"ha":753,"x_min":0,"x_max":0,"o":"m 522 426 b 478 535 522 475 507 512 b 360 571 448 559 409 571 b 255 549 323 571 288 564 b 172 494 222 535 194 517 l 103 578 b 222 650 135 608 175 632 b 372 676 268 668 319 676 b 495 656 419 676 460 670 b 581 601 530 643 558 625 b 631 519 603 578 619 551 b 647 418 642 488 647 454 l 647 131 b 649 60 647 108 648 85 b 657 0 651 36 653 16 l 539 0 b 528 94 531 31 528 63 l 524 94 b 433 13 500 59 469 32 b 303 -17 396 -7 353 -17 b 222 -6 277 -17 250 -13 b 144 28 193 1 168 12 b 87 90 121 44 102 64 b 64 186 72 116 64 148 b 104 305 64 236 77 276 b 210 372 131 334 166 356 b 357 401 253 387 302 397 b 522 408 412 406 467 408 l 522 426 m 490 314 b 390 310 458 314 424 313 b 295 293 355 307 323 301 b 225 256 267 285 244 272 b 197 189 206 239 197 217 b 209 140 197 169 201 153 b 240 108 217 127 227 117 b 283 91 253 100 268 94 b 332 86 299 88 315 86 b 473 141 393 86 440 104 b 522 279 506 178 522 224 l 522 314 l 490 314 m 315 783 l 454 983 l 611 983 l 422 783 "},"â":{"ha":753,"x_min":0,"x_max":0,"o":"m 522 426 b 478 535 522 475 507 512 b 360 571 448 559 409 571 b 255 549 323 571 288 564 b 172 494 222 535 194 517 l 103 578 b 222 650 135 608 175 632 b 372 676 268 668 319 676 b 495 656 419 676 460 670 b 581 601 530 643 558 625 b 631 519 603 578 619 551 b 647 418 642 488 647 454 l 647 131 b 649 60 647 108 648 85 b 657 0 651 36 653 16 l 539 0 b 528 94 531 31 528 63 l 524 94 b 433 13 500 59 469 32 b 303 -17 396 -7 353 -17 b 222 -6 277 -17 250 -13 b 144 28 193 1 168 12 b 87 90 121 44 102 64 b 64 186 72 116 64 148 b 104 305 64 236 77 276 b 210 372 131 334 166 356 b 357 401 253 387 302 397 b 522 408 412 406 467 408 l 522 426 m 490 314 b 390 310 458 314 424 313 b 295 293 355 307 323 301 b 225 256 267 285 244 272 b 197 189 206 239 197 217 b 209 140 197 169 201 153 b 240 108 217 127 227 117 b 283 91 253 100 268 94 b 332 86 299 88 315 86 b 473 141 393 86 440 104 b 522 279 506 178 522 224 l 522 314 l 490 314 m 476 783 l 372 921 l 267 783 l 142 783 l 297 983 l 447 983 l 603 783 "},"ã":{"ha":753,"x_min":0,"x_max":0,"o":"m 522 426 b 478 535 522 475 507 512 b 360 571 448 559 409 571 b 255 549 323 571 288 564 b 172 494 222 535 194 517 l 103 578 b 222 650 135 608 175 632 b 372 676 268 668 319 676 b 495 656 419 676 460 670 b 581 601 530 643 558 625 b 631 519 603 578 619 551 b 647 418 642 488 647 454 l 647 131 b 649 60 647 108 648 85 b 657 0 651 36 653 16 l 539 0 b 528 94 531 31 528 63 l 524 94 b 433 13 500 59 469 32 b 303 -17 396 -7 353 -17 b 222 -6 277 -17 250 -13 b 144 28 193 1 168 12 b 87 90 121 44 102 64 b 64 186 72 116 64 148 b 104 305 64 236 77 276 b 210 372 131 334 166 356 b 357 401 253 387 302 397 b 522 408 412 406 467 408 l 522 426 m 490 314 b 390 310 458 314 424 313 b 295 293 355 307 323 301 b 225 256 267 285 244 272 b 197 189 206 239 197 217 b 209 140 197 169 201 153 b 240 108 217 127 227 117 b 283 91 253 100 268 94 b 332 86 299 88 315 86 b 473 141 393 86 440 104 b 522 279 506 178 522 224 l 522 314 l 490 314 m 132 794 b 147 853 136 815 141 834 b 172 905 153 872 161 890 b 213 942 183 920 197 932 b 274 956 229 951 250 956 b 327 947 291 956 309 953 b 378 928 345 942 362 935 b 428 906 396 919 413 912 b 471 897 444 900 458 897 b 516 917 491 897 506 904 b 538 961 526 931 533 945 l 613 961 b 598 902 609 941 604 921 b 572 851 592 883 583 866 b 531 814 561 835 547 823 b 471 800 514 805 494 800 b 417 809 453 800 435 803 b 364 829 398 815 381 822 b 316 850 347 838 331 844 b 274 858 301 856 287 858 b 230 838 254 858 240 852 b 208 794 220 825 213 810 l 132 794 "},"ä":{"ha":753,"x_min":0,"x_max":0,"o":"m 522 426 b 478 535 522 475 507 512 b 360 571 448 559 409 571 b 255 549 323 571 288 564 b 172 494 222 535 194 517 l 103 578 b 222 650 135 608 175 632 b 372 676 268 668 319 676 b 495 656 419 676 460 670 b 581 601 530 643 558 625 b 631 519 603 578 619 551 b 647 418 642 488 647 454 l 647 131 b 649 60 647 108 648 85 b 657 0 651 36 653 16 l 539 0 b 528 94 531 31 528 63 l 524 94 b 433 13 500 59 469 32 b 303 -17 396 -7 353 -17 b 222 -6 277 -17 250 -13 b 144 28 193 1 168 12 b 87 90 121 44 102 64 b 64 186 72 116 64 148 b 104 305 64 236 77 276 b 210 372 131 334 166 356 b 357 401 253 387 302 397 b 522 408 412 406 467 408 l 522 426 m 490 314 b 390 310 458 314 424 313 b 295 293 355 307 323 301 b 225 256 267 285 244 272 b 197 189 206 239 197 217 b 209 140 197 169 201 153 b 240 108 217 127 227 117 b 283 91 253 100 268 94 b 332 86 299 88 315 86 b 473 141 393 86 440 104 b 522 279 506 178 522 224 l 522 314 l 490 314 m 153 896 b 177 955 153 918 161 938 b 239 981 193 972 214 981 b 300 956 263 981 283 972 b 325 896 317 940 325 920 b 300 837 325 873 317 853 b 239 813 283 821 263 813 b 177 838 214 813 193 821 b 153 896 161 855 153 875 m 422 896 b 447 955 422 918 430 938 b 508 981 463 972 483 981 b 569 956 532 981 553 972 b 594 896 586 940 594 920 b 569 837 594 873 586 853 b 508 813 553 821 532 813 b 447 838 483 813 463 821 b 422 896 430 855 422 875 "},"å":{"ha":753,"x_min":0,"x_max":0,"o":"m 522 426 b 478 535 522 475 507 512 b 360 571 448 559 409 571 b 255 549 323 571 288 564 b 172 494 222 535 194 517 l 103 578 b 222 650 135 608 175 632 b 372 676 268 668 319 676 b 495 656 419 676 460 670 b 581 601 530 643 558 625 b 631 519 603 578 619 551 b 647 418 642 488 647 454 l 647 131 b 649 60 647 108 648 85 b 657 0 651 36 653 16 l 539 0 b 528 94 531 31 528 63 l 524 94 b 433 13 500 59 469 32 b 303 -17 396 -7 353 -17 b 222 -6 277 -17 250 -13 b 144 28 193 1 168 12 b 87 90 121 44 102 64 b 64 186 72 116 64 148 b 104 305 64 236 77 276 b 210 372 131 334 166 356 b 357 401 253 387 302 397 b 522 408 412 406 467 408 l 522 426 m 490 314 b 390 310 458 314 424 313 b 295 293 355 307 323 301 b 225 256 267 285 244 272 b 197 189 206 239 197 217 b 209 140 197 169 201 153 b 240 108 217 127 227 117 b 283 91 253 100 268 94 b 332 86 299 88 315 86 b 473 141 393 86 440 104 b 522 279 506 178 522 224 l 522 314 l 490 314 m 513 907 b 472 808 513 867 499 834 b 372 769 444 782 411 769 b 318 780 353 769 335 773 b 274 808 301 787 287 796 b 244 851 262 820 252 835 b 233 906 237 868 233 886 b 274 1004 233 945 247 978 b 372 1043 300 1030 333 1043 b 472 1004 411 1043 444 1030 b 513 907 499 978 513 946 m 454 907 b 430 963 454 929 446 948 b 372 985 414 977 394 985 b 316 963 351 985 332 977 b 292 907 300 948 292 929 b 316 851 292 885 300 866 b 372 828 332 835 351 828 b 430 850 394 828 414 835 b 454 907 446 865 454 884 "},"æ":{"ha":1218,"x_min":0,"x_max":0,"o":"m 486 290 b 372 287 445 290 407 289 b 281 272 337 284 306 280 b 219 240 255 265 234 254 b 197 185 205 226 197 208 b 209 137 197 165 201 149 b 240 106 217 124 227 114 b 283 90 252 98 266 93 b 333 85 299 86 316 85 b 472 131 394 85 441 100 b 519 256 504 161 519 203 l 519 290 l 486 290 m 1019 388 b 1008 460 1019 413 1016 438 b 974 519 1000 483 988 503 b 918 559 959 536 940 549 b 842 574 896 569 870 574 b 766 559 815 574 790 569 b 703 519 742 549 722 536 b 660 460 685 503 671 483 b 642 388 649 438 643 413 l 1019 388 m 582 118 b 467 13 555 68 517 33 b 303 -17 418 -7 363 -17 b 222 -8 277 -17 250 -14 b 144 22 193 -2 168 8 b 87 78 121 36 102 55 b 64 168 72 102 64 132 b 97 284 64 216 75 255 b 191 351 119 313 151 335 b 335 381 231 366 279 376 b 522 388 391 385 454 388 l 522 403 b 478 533 522 465 507 508 b 360 571 448 558 409 571 b 255 549 323 571 288 564 b 172 494 222 535 194 517 l 103 578 b 222 650 135 608 175 632 b 372 676 268 668 319 676 b 468 665 409 676 441 672 b 535 635 495 657 517 647 b 578 595 553 623 568 609 b 603 554 589 581 597 567 b 699 642 629 590 661 620 b 843 676 737 665 785 676 b 971 653 890 676 933 669 b 1067 585 1009 637 1041 614 b 1128 477 1094 555 1114 519 b 1150 335 1143 435 1150 388 l 1150 313 b 1149 290 1150 305 1150 298 l 643 290 b 661 212 644 263 650 236 b 706 148 672 187 687 166 b 772 106 725 130 747 116 b 850 90 796 95 822 90 b 962 119 894 90 931 100 b 1036 190 993 139 1018 163 l 1124 117 b 1003 15 1089 70 1049 36 b 850 -18 958 -7 906 -18 b 692 17 792 -18 739 -6 b 582 118 644 41 608 75 "},"ç":{"ha":686,"x_min":0,"x_max":0,"o":"m 574 492 b 511 545 560 513 539 531 b 422 567 483 559 454 567 b 331 547 388 567 358 560 b 264 495 305 534 282 517 b 222 419 245 473 231 448 b 207 329 212 391 207 361 b 222 239 207 298 212 268 b 264 163 231 210 245 185 b 332 111 282 141 305 124 b 424 92 359 98 389 92 b 515 111 457 92 487 98 b 582 164 542 124 564 142 l 669 85 b 572 12 643 54 610 30 b 440 -18 534 -6 490 -16 l 389 -96 b 407 -93 395 -94 401 -93 l 426 -93 b 473 -99 442 -93 458 -95 b 515 -117 488 -102 502 -108 b 545 -150 527 -125 537 -136 b 557 -201 553 -164 557 -181 b 540 -262 557 -225 551 -246 b 498 -301 529 -278 515 -291 b 441 -321 481 -310 462 -317 b 381 -326 420 -325 400 -326 b 306 -318 356 -326 331 -324 b 238 -294 280 -312 257 -305 l 265 -236 b 372 -260 300 -252 335 -260 b 398 -257 380 -260 388 -259 b 426 -248 408 -255 417 -252 b 448 -231 434 -244 442 -238 b 457 -201 454 -223 457 -213 b 433 -160 457 -181 449 -167 b 382 -149 418 -152 400 -149 b 354 -151 374 -149 364 -150 b 325 -158 344 -153 334 -156 l 297 -131 l 374 -15 b 251 21 329 -10 288 2 b 155 93 214 39 182 63 b 92 197 128 123 106 157 b 69 329 77 237 69 281 b 96 471 69 381 78 428 b 169 581 113 513 138 550 b 281 651 201 611 238 635 b 421 676 324 668 371 676 b 559 649 467 676 513 667 b 668 568 605 630 641 603 l 574 492 "},"è":{"ha":796,"x_min":0,"x_max":0,"o":"m 594 388 b 581 460 594 413 589 438 b 547 519 573 483 562 503 b 490 559 531 536 512 549 b 410 574 467 569 440 574 b 331 559 382 574 356 569 b 267 519 307 549 285 536 b 223 460 249 503 234 483 b 203 388 211 438 205 413 l 594 388 m 726 313 b 725 290 726 305 726 298 l 203 290 b 222 212 204 263 210 236 b 268 148 233 187 249 166 b 335 106 288 130 310 116 b 417 90 361 95 388 90 b 532 119 461 90 500 100 b 608 190 564 139 590 163 l 700 117 b 576 15 665 70 623 36 b 417 -18 528 -7 475 -18 b 278 7 367 -18 320 -10 b 168 77 235 24 199 47 b 96 186 138 107 113 144 b 69 328 78 229 69 276 b 95 469 69 379 78 426 b 167 579 112 512 136 549 b 275 651 197 610 233 634 b 410 676 317 668 362 676 b 541 653 458 676 502 669 b 641 585 580 637 614 614 b 704 477 668 555 689 519 b 726 335 719 435 726 388 m 343 983 l 482 783 l 375 783 l 186 983 "},"é":{"ha":796,"x_min":0,"x_max":0,"o":"m 594 388 b 581 460 594 413 589 438 b 547 519 573 483 562 503 b 490 559 531 536 512 549 b 410 574 467 569 440 574 b 331 559 382 574 356 569 b 267 519 307 549 285 536 b 223 460 249 503 234 483 b 203 388 211 438 205 413 l 594 388 m 726 313 b 725 290 726 305 726 298 l 203 290 b 222 212 204 263 210 236 b 268 148 233 187 249 166 b 335 106 288 130 310 116 b 417 90 361 95 388 90 b 532 119 461 90 500 100 b 608 190 564 139 590 163 l 700 117 b 576 15 665 70 623 36 b 417 -18 528 -7 475 -18 b 278 7 367 -18 320 -10 b 168 77 235 24 199 47 b 96 186 138 107 113 144 b 69 328 78 229 69 276 b 95 469 69 379 78 426 b 167 579 112 512 136 549 b 275 651 197 610 233 634 b 410 676 317 668 362 676 b 541 653 458 676 502 669 b 641 585 580 637 614 614 b 704 477 668 555 689 519 b 726 335 719 435 726 388 m 340 783 l 479 983 l 636 983 l 447 783 "},"ê":{"ha":796,"x_min":0,"x_max":0,"o":"m 594 388 b 581 460 594 413 589 438 b 547 519 573 483 562 503 b 490 559 531 536 512 549 b 410 574 467 569 440 574 b 331 559 382 574 356 569 b 267 519 307 549 285 536 b 223 460 249 503 234 483 b 203 388 211 438 205 413 l 594 388 m 726 313 b 725 290 726 305 726 298 l 203 290 b 222 212 204 263 210 236 b 268 148 233 187 249 166 b 335 106 288 130 310 116 b 417 90 361 95 388 90 b 532 119 461 90 500 100 b 608 190 564 139 590 163 l 700 117 b 576 15 665 70 623 36 b 417 -18 528 -7 475 -18 b 278 7 367 -18 320 -10 b 168 77 235 24 199 47 b 96 186 138 107 113 144 b 69 328 78 229 69 276 b 95 469 69 379 78 426 b 167 579 112 512 136 549 b 275 651 197 610 233 634 b 410 676 317 668 362 676 b 541 653 458 676 502 669 b 641 585 580 637 614 614 b 704 477 668 555 689 519 b 726 335 719 435 726 388 m 522 783 l 418 921 l 313 783 l 188 783 l 343 983 l 493 983 l 649 783 "},"ë":{"ha":796,"x_min":0,"x_max":0,"o":"m 594 388 b 581 460 594 413 589 438 b 547 519 573 483 562 503 b 490 559 531 536 512 549 b 410 574 467 569 440 574 b 331 559 382 574 356 569 b 267 519 307 549 285 536 b 223 460 249 503 234 483 b 203 388 211 438 205 413 l 594 388 m 726 313 b 725 290 726 305 726 298 l 203 290 b 222 212 204 263 210 236 b 268 148 233 187 249 166 b 335 106 288 130 310 116 b 417 90 361 95 388 90 b 532 119 461 90 500 100 b 608 190 564 139 590 163 l 700 117 b 576 15 665 70 623 36 b 417 -18 528 -7 475 -18 b 278 7 367 -18 320 -10 b 168 77 235 24 199 47 b 96 186 138 107 113 144 b 69 328 78 229 69 276 b 95 469 69 379 78 426 b 167 579 112 512 136 549 b 275 651 197 610 233 634 b 410 676 317 668 362 676 b 541 653 458 676 502 669 b 641 585 580 637 614 614 b 704 477 668 555 689 519 b 726 335 719 435 726 388 m 196 896 b 220 955 196 918 204 938 b 282 981 236 972 257 981 b 343 956 306 981 326 972 b 368 896 360 940 368 920 b 343 837 368 873 360 853 b 282 813 326 821 306 813 b 220 838 257 813 236 821 b 196 896 204 855 196 875 m 465 896 b 490 955 465 918 473 938 b 551 981 506 972 526 981 b 613 956 575 981 596 972 b 638 896 629 940 638 920 b 613 837 638 873 629 853 b 551 813 596 821 575 813 b 490 838 526 813 506 821 b 465 896 473 855 465 875 "},"ì":{"ha":360,"x_min":0,"x_max":0,"o":"m 114 0 l 114 658 l 244 658 l 244 0 m 107 983 l 246 783 l 139 783 l -50 983 "},"í":{"ha":360,"x_min":0,"x_max":0,"o":"m 114 0 l 114 658 l 244 658 l 244 0 m 114 783 l 253 983 l 410 983 l 221 783 "},"î":{"ha":360,"x_min":0,"x_max":0,"o":"m 114 0 l 114 658 l 244 658 l 244 0 m 285 783 l 181 921 l 75 783 l -50 783 l 106 983 l 256 983 l 411 783 "},"ï":{"ha":360,"x_min":0,"x_max":0,"o":"m 114 0 l 114 658 l 244 658 l 244 0 m -40 896 b -16 955 -40 918 -32 938 b 46 981 0 972 21 981 b 107 956 70 981 90 972 b 132 896 124 940 132 920 b 107 837 132 873 124 853 b 46 813 90 821 70 813 b -16 838 21 813 0 821 b -40 896 -32 855 -40 875 m 229 896 b 253 955 229 918 237 938 b 315 981 270 972 290 981 b 376 956 339 981 360 972 b 401 896 393 940 401 920 b 376 837 401 873 393 853 b 315 813 360 821 339 813 b 253 838 290 813 270 821 b 229 896 237 855 229 875 "},"ð":{"ha":847,"x_min":0,"x_max":0,"o":"m 515 915 b 615 799 550 879 584 840 b 697 666 647 757 674 713 b 752 520 720 619 739 571 b 772 364 766 470 772 418 b 751 221 772 315 765 267 b 688 99 738 175 716 134 b 577 14 659 63 622 35 b 418 -18 532 -7 479 -18 b 276 8 367 -18 320 -9 b 164 79 233 25 195 49 b 90 189 132 110 108 146 b 64 329 73 231 64 278 b 90 469 64 380 73 427 b 164 579 108 512 132 549 b 275 651 195 610 232 634 b 413 676 318 668 363 676 b 509 660 448 676 480 671 b 593 608 538 650 566 632 l 596 611 b 510 746 572 657 543 702 b 400 861 476 789 440 828 l 247 788 l 181 853 l 333 926 b 272 978 315 944 294 961 b 210 1024 250 994 229 1010 l 317 1089 b 388 1032 341 1070 364 1051 b 446 981 411 1013 430 995 l 596 1054 l 668 990 l 515 915 m 197 329 b 212 240 197 298 202 268 b 254 165 222 211 236 186 b 324 113 273 143 296 125 b 418 93 351 100 383 93 b 512 113 453 93 484 100 b 581 165 539 125 562 143 b 623 240 599 186 613 211 b 638 329 633 268 638 298 b 623 419 638 361 633 391 b 581 494 613 447 599 472 b 512 546 562 516 539 533 b 418 565 484 559 453 565 b 324 546 383 565 351 559 b 254 494 296 533 273 516 b 212 419 236 472 222 447 b 197 329 202 391 197 361 "},"ñ":{"ha":808,"x_min":0,"x_max":0,"o":"m 231 658 b 235 602 232 642 234 623 b 236 550 236 581 236 564 l 240 550 b 274 599 249 568 260 584 b 324 640 289 615 305 628 b 385 667 342 651 363 660 b 454 676 407 673 430 676 b 564 655 497 676 533 669 b 640 597 594 641 620 621 b 685 513 661 573 676 545 b 700 408 695 480 700 445 l 700 0 l 569 0 l 569 365 b 563 442 569 392 567 418 b 540 506 559 466 551 487 b 494 550 529 524 514 539 b 419 567 475 561 450 567 b 292 508 368 567 325 547 b 243 350 259 468 243 416 l 243 0 l 113 0 l 113 517 b 111 585 113 534 112 557 b 107 658 110 613 109 637 l 231 658 m 168 794 b 183 853 172 815 177 834 b 208 905 189 872 197 890 b 249 942 219 920 233 932 b 310 956 266 951 286 956 b 363 947 327 956 345 953 b 414 928 381 942 398 935 b 465 906 432 919 449 912 b 507 897 480 900 494 897 b 552 917 527 897 542 904 b 574 961 562 931 569 945 l 649 961 b 634 902 645 941 640 921 b 608 851 628 883 619 866 b 567 814 597 835 583 823 b 507 800 550 805 530 800 b 453 809 489 800 471 803 b 400 829 434 815 417 822 b 352 850 383 838 367 844 b 310 858 337 856 323 858 b 266 838 290 858 276 852 b 244 794 256 825 249 810 l 168 794 "},"ò":{"ha":847,"x_min":0,"x_max":0,"o":"m 779 331 b 752 190 779 280 770 233 b 677 80 734 148 709 111 b 564 8 645 49 607 25 b 424 -18 520 -9 474 -18 b 283 8 374 -18 327 -9 b 171 80 240 25 202 49 b 97 190 139 111 115 148 b 69 331 78 233 69 280 b 97 470 69 381 78 428 b 171 579 115 512 139 549 b 283 651 202 610 240 634 b 424 676 327 668 374 676 b 564 651 474 676 520 668 b 677 579 607 634 645 610 b 752 470 709 549 734 512 b 779 331 770 428 779 381 m 643 331 b 628 421 643 362 638 392 b 586 497 619 450 605 475 b 517 549 568 518 545 536 b 424 568 490 562 459 568 b 330 549 388 568 357 562 b 261 497 303 536 280 518 b 219 421 243 475 228 450 b 204 331 209 392 204 362 b 219 240 204 299 209 269 b 261 164 228 212 243 186 b 330 111 280 142 303 124 b 424 92 357 98 388 92 b 517 111 459 92 490 98 b 586 164 545 124 568 142 b 628 240 605 186 619 212 b 643 331 638 269 643 299 m 361 983 l 500 783 l 393 783 l 204 983 "},"ó":{"ha":847,"x_min":0,"x_max":0,"o":"m 779 331 b 752 190 779 280 770 233 b 677 80 734 148 709 111 b 564 8 645 49 607 25 b 424 -18 520 -9 474 -18 b 283 8 374 -18 327 -9 b 171 80 240 25 202 49 b 97 190 139 111 115 148 b 69 331 78 233 69 280 b 97 470 69 381 78 428 b 171 579 115 512 139 549 b 283 651 202 610 240 634 b 424 676 327 668 374 676 b 564 651 474 676 520 668 b 677 579 607 634 645 610 b 752 470 709 549 734 512 b 779 331 770 428 779 381 m 643 331 b 628 421 643 362 638 392 b 586 497 619 450 605 475 b 517 549 568 518 545 536 b 424 568 490 562 459 568 b 330 549 388 568 357 562 b 261 497 303 536 280 518 b 219 421 243 475 228 450 b 204 331 209 392 204 362 b 219 240 204 299 209 269 b 261 164 228 212 243 186 b 330 111 280 142 303 124 b 424 92 357 98 388 92 b 517 111 459 92 490 98 b 586 164 545 124 568 142 b 628 240 605 186 619 212 b 643 331 638 269 643 299 m 344 783 l 483 983 l 640 983 l 451 783 "},"ô":{"ha":847,"x_min":0,"x_max":0,"o":"m 779 331 b 752 190 779 280 770 233 b 677 80 734 148 709 111 b 564 8 645 49 607 25 b 424 -18 520 -9 474 -18 b 283 8 374 -18 327 -9 b 171 80 240 25 202 49 b 97 190 139 111 115 148 b 69 331 78 233 69 280 b 97 470 69 381 78 428 b 171 579 115 512 139 549 b 283 651 202 610 240 634 b 424 676 327 668 374 676 b 564 651 474 676 520 668 b 677 579 607 634 645 610 b 752 470 709 549 734 512 b 779 331 770 428 779 381 m 643 331 b 628 421 643 362 638 392 b 586 497 619 450 605 475 b 517 549 568 518 545 536 b 424 568 490 562 459 568 b 330 549 388 568 357 562 b 261 497 303 536 280 518 b 219 421 243 475 228 450 b 204 331 209 392 204 362 b 219 240 204 299 209 269 b 261 164 228 212 243 186 b 330 111 280 142 303 124 b 424 92 357 98 388 92 b 517 111 459 92 490 98 b 586 164 545 124 568 142 b 628 240 605 186 619 212 b 643 331 638 269 643 299 m 529 783 l 425 921 l 319 783 l 194 783 l 350 983 l 500 983 l 656 783 "},"õ":{"ha":847,"x_min":0,"x_max":0,"o":"m 779 331 b 752 190 779 280 770 233 b 677 80 734 148 709 111 b 564 8 645 49 607 25 b 424 -18 520 -9 474 -18 b 283 8 374 -18 327 -9 b 171 80 240 25 202 49 b 97 190 139 111 115 148 b 69 331 78 233 69 280 b 97 470 69 381 78 428 b 171 579 115 512 139 549 b 283 651 202 610 240 634 b 424 676 327 668 374 676 b 564 651 474 676 520 668 b 677 579 607 634 645 610 b 752 470 709 549 734 512 b 779 331 770 428 779 381 m 643 331 b 628 421 643 362 638 392 b 586 497 619 450 605 475 b 517 549 568 518 545 536 b 424 568 490 562 459 568 b 330 549 388 568 357 562 b 261 497 303 536 280 518 b 219 421 243 475 228 450 b 204 331 209 392 204 362 b 219 240 204 299 209 269 b 261 164 228 212 243 186 b 330 111 280 142 303 124 b 424 92 357 98 388 92 b 517 111 459 92 490 98 b 586 164 545 124 568 142 b 628 240 605 186 619 212 b 643 331 638 269 643 299 m 185 794 b 199 853 188 815 193 834 b 225 905 205 872 214 890 b 266 942 236 920 250 932 b 326 956 282 951 302 956 b 380 947 344 956 362 953 b 431 928 398 942 415 935 b 481 906 449 919 466 912 b 524 897 497 900 511 897 b 569 917 544 897 559 904 b 590 961 578 931 586 945 l 665 961 b 651 902 662 941 657 921 b 625 851 645 883 636 866 b 583 814 614 835 600 823 b 524 800 567 805 547 800 b 469 809 506 800 488 803 b 417 829 451 815 433 822 b 369 850 400 838 384 844 b 326 858 353 856 339 858 b 283 838 307 858 292 852 b 261 794 273 825 266 810 l 185 794 "},"ö":{"ha":847,"x_min":0,"x_max":0,"o":"m 779 331 b 752 190 779 280 770 233 b 677 80 734 148 709 111 b 564 8 645 49 607 25 b 424 -18 520 -9 474 -18 b 283 8 374 -18 327 -9 b 171 80 240 25 202 49 b 97 190 139 111 115 148 b 69 331 78 233 69 280 b 97 470 69 381 78 428 b 171 579 115 512 139 549 b 283 651 202 610 240 634 b 424 676 327 668 374 676 b 564 651 474 676 520 668 b 677 579 607 634 645 610 b 752 470 709 549 734 512 b 779 331 770 428 779 381 m 643 331 b 628 421 643 362 638 392 b 586 497 619 450 605 475 b 517 549 568 518 545 536 b 424 568 490 562 459 568 b 330 549 388 568 357 562 b 261 497 303 536 280 518 b 219 421 243 475 228 450 b 204 331 209 392 204 362 b 219 240 204 299 209 269 b 261 164 228 212 243 186 b 330 111 280 142 303 124 b 424 92 357 98 388 92 b 517 111 459 92 490 98 b 586 164 545 124 568 142 b 628 240 605 186 619 212 b 643 331 638 269 643 299 m 204 896 b 228 955 204 918 212 938 b 290 981 245 972 265 981 b 351 956 314 981 335 972 b 376 896 368 940 376 920 b 351 837 376 873 368 853 b 290 813 335 821 314 813 b 228 838 265 813 245 821 b 204 896 212 855 204 875 m 474 896 b 498 955 474 918 482 938 b 560 981 514 972 535 981 b 621 956 584 981 604 972 b 646 896 638 940 646 920 b 621 837 646 873 638 853 b 560 813 604 821 584 813 b 498 838 535 813 514 821 b 474 896 482 855 474 875 "},"÷":{"ha":925,"x_min":0,"x_max":0,"o":"m 97 364 l 97 478 l 828 478 l 828 364 m 553 183 b 527 120 553 159 544 138 b 463 93 510 102 488 93 b 398 120 437 93 415 102 b 372 183 381 138 372 159 b 398 247 372 207 381 228 b 463 274 415 265 437 274 b 527 247 488 274 510 265 b 553 183 544 228 553 207 m 553 651 b 527 588 553 627 544 606 b 463 561 510 570 488 561 b 398 588 437 561 415 570 b 372 651 381 606 372 627 b 398 715 372 675 381 697 b 463 742 415 733 437 742 b 527 715 488 742 510 733 b 553 651 544 697 553 675 "},"ø":{"ha":847,"x_min":0,"x_max":0,"o":"m 696 557 b 757 455 722 527 742 493 b 779 329 772 416 779 375 b 752 189 779 278 770 231 b 677 79 734 146 709 110 b 564 8 645 49 607 25 b 424 -18 520 -9 474 -18 b 303 1 380 -18 340 -12 b 203 53 266 13 232 31 l 108 -43 l 58 7 l 150 101 b 90 203 124 131 104 165 b 69 329 76 242 69 284 b 97 469 69 380 78 427 b 171 579 115 512 139 549 b 283 651 202 610 240 634 b 424 676 327 668 374 676 b 643 606 510 676 583 653 l 738 703 l 789 654 l 696 557 m 564 524 b 501 560 547 539 526 551 b 424 572 476 568 450 572 b 328 552 388 572 356 566 b 258 498 300 539 277 521 b 215 420 239 475 224 449 b 200 329 205 391 200 361 b 210 253 200 303 203 278 b 239 189 216 228 226 206 l 564 524 m 282 136 b 422 88 320 104 367 88 b 520 108 459 88 492 94 b 591 162 548 121 572 139 b 634 240 610 184 624 210 b 649 331 644 269 649 299 b 638 406 649 356 645 381 b 608 469 631 431 621 452 l 282 136 "},"ù":{"ha":808,"x_min":0,"x_max":0,"o":"m 576 0 b 572 56 575 17 573 35 b 571 108 571 77 571 94 l 568 108 b 484 19 551 73 523 43 b 353 -18 445 -6 401 -18 b 242 3 310 -18 273 -11 b 166 60 211 17 186 36 b 122 146 146 85 131 113 b 107 250 112 178 107 213 l 107 658 l 238 658 l 238 294 b 244 217 238 268 240 242 b 267 153 248 193 256 171 b 313 108 278 134 293 119 b 388 92 332 97 357 92 b 515 151 440 92 483 111 b 564 308 548 190 564 243 l 564 658 l 694 658 l 694 142 b 696 74 694 124 695 101 b 700 0 697 46 698 21 l 576 0 m 339 983 l 478 783 l 371 783 l 182 983 "},"ú":{"ha":808,"x_min":0,"x_max":0,"o":"m 576 0 b 572 56 575 17 573 35 b 571 108 571 77 571 94 l 568 108 b 484 19 551 73 523 43 b 353 -18 445 -6 401 -18 b 242 3 310 -18 273 -11 b 166 60 211 17 186 36 b 122 146 146 85 131 113 b 107 250 112 178 107 213 l 107 658 l 238 658 l 238 294 b 244 217 238 268 240 242 b 267 153 248 193 256 171 b 313 108 278 134 293 119 b 388 92 332 97 357 92 b 515 151 440 92 483 111 b 564 308 548 190 564 243 l 564 658 l 694 658 l 694 142 b 696 74 694 124 695 101 b 700 0 697 46 698 21 l 576 0 m 332 783 l 471 983 l 628 983 l 439 783 "},"û":{"ha":808,"x_min":0,"x_max":0,"o":"m 576 0 b 572 56 575 17 573 35 b 571 108 571 77 571 94 l 568 108 b 484 19 551 73 523 43 b 353 -18 445 -6 401 -18 b 242 3 310 -18 273 -11 b 166 60 211 17 186 36 b 122 146 146 85 131 113 b 107 250 112 178 107 213 l 107 658 l 238 658 l 238 294 b 244 217 238 268 240 242 b 267 153 248 193 256 171 b 313 108 278 134 293 119 b 388 92 332 97 357 92 b 515 151 440 92 483 111 b 564 308 548 190 564 243 l 564 658 l 694 658 l 694 142 b 696 74 694 124 695 101 b 700 0 697 46 698 21 l 576 0 m 508 783 l 404 921 l 299 783 l 174 783 l 329 983 l 479 983 l 635 783 "},"ü":{"ha":808,"x_min":0,"x_max":0,"o":"m 576 0 b 572 56 575 17 573 35 b 571 108 571 77 571 94 l 568 108 b 484 19 551 73 523 43 b 353 -18 445 -6 401 -18 b 242 3 310 -18 273 -11 b 166 60 211 17 186 36 b 122 146 146 85 131 113 b 107 250 112 178 107 213 l 107 658 l 238 658 l 238 294 b 244 217 238 268 240 242 b 267 153 248 193 256 171 b 313 108 278 134 293 119 b 388 92 332 97 357 92 b 515 151 440 92 483 111 b 564 308 548 190 564 243 l 564 658 l 694 658 l 694 142 b 696 74 694 124 695 101 b 700 0 697 46 698 21 l 576 0 m 182 896 b 206 955 182 918 190 938 b 268 981 222 972 243 981 b 329 956 292 981 313 972 b 354 896 346 940 354 920 b 329 837 354 873 346 853 b 268 813 313 821 292 813 b 206 838 243 813 222 821 b 182 896 190 855 182 875 m 451 896 b 476 955 451 918 459 938 b 538 981 492 972 513 981 b 599 956 562 981 582 972 b 624 896 615 940 624 920 b 599 837 624 873 615 853 b 538 813 582 821 562 813 b 476 838 513 813 492 821 b 451 896 459 855 451 875 "},"ý":{"ha":700,"x_min":0,"x_max":0,"o":"m 365 142 l 547 658 l 686 658 l 367 -156 b 331 -230 356 -183 344 -208 b 285 -285 318 -252 302 -270 b 223 -321 267 -301 247 -312 b 139 -333 199 -329 171 -333 b 97 -331 125 -333 111 -333 b 53 -324 82 -330 68 -327 l 65 -208 b 131 -219 88 -216 109 -219 b 207 -191 165 -219 190 -210 b 253 -110 224 -172 239 -145 l 294 0 l 13 658 l 158 658 l 363 142 m 290 783 l 429 983 l 586 983 l 397 783 "},"þ":{"ha":883,"x_min":0,"x_max":0,"o":"m 114 -333 l 114 1050 l 243 1050 l 243 556 l 247 556 b 339 642 268 591 298 620 b 482 676 380 665 427 676 b 616 650 531 676 576 668 b 720 576 656 632 691 608 b 788 466 749 545 772 508 b 811 331 803 424 811 379 b 788 194 811 282 803 237 b 721 83 772 152 750 115 b 617 9 692 52 657 27 b 479 -18 576 -9 530 -18 b 346 13 432 -18 388 -8 b 247 99 304 33 271 62 l 243 99 l 243 -333 m 676 331 b 663 419 676 361 672 391 b 621 496 653 448 639 474 b 552 549 602 518 579 536 b 457 568 525 562 493 568 b 366 549 424 568 393 562 b 296 496 339 536 315 518 b 251 419 276 474 261 448 b 235 329 240 391 235 361 b 251 239 235 298 240 268 b 296 163 261 210 276 185 b 366 111 315 141 339 124 b 457 92 393 98 424 92 b 552 112 493 92 525 98 b 621 165 579 125 602 143 b 663 242 639 188 653 213 b 676 331 672 270 676 300 "},"ÿ":{"ha":700,"x_min":0,"x_max":0,"o":"m 365 142 l 547 658 l 686 658 l 367 -156 b 331 -230 356 -183 344 -208 b 285 -285 318 -252 302 -270 b 223 -321 267 -301 247 -312 b 139 -333 199 -329 171 -333 b 97 -331 125 -333 111 -333 b 53 -324 82 -330 68 -327 l 65 -208 b 131 -219 88 -216 109 -219 b 207 -191 165 -219 190 -210 b 253 -110 224 -172 239 -145 l 294 0 l 13 658 l 158 658 l 363 142 m 140 896 b 165 955 140 918 148 938 b 226 981 181 972 201 981 b 288 956 250 981 271 972 b 313 896 304 940 313 920 b 288 837 313 873 304 853 b 226 813 271 821 250 813 b 165 838 201 813 181 821 b 140 896 148 855 140 875 m 410 896 b 434 955 410 918 418 938 b 496 981 450 972 471 981 b 557 956 520 981 540 972 b 582 896 574 940 582 920 b 557 837 582 873 574 853 b 496 813 540 821 520 813 b 434 838 471 813 450 821 b 410 896 418 855 410 875 "},"¤":{"ha":826,"x_min":0,"x_max":0,"o":"m 686 583 b 731 494 706 556 720 527 b 746 388 741 462 746 426 b 728 278 746 349 740 312 b 683 186 717 244 702 213 l 800 68 l 729 -4 l 608 114 b 521 71 582 95 553 81 b 415 56 488 61 453 56 b 313 72 380 56 346 61 b 222 117 279 83 249 98 l 100 -4 l 28 68 l 147 190 b 104 280 130 216 115 246 b 88 388 93 314 88 350 b 102 493 88 426 92 462 b 143 581 112 525 125 554 l 28 697 l 100 768 l 217 654 b 308 699 244 673 274 688 b 415 717 341 711 377 717 b 524 699 454 717 490 711 b 613 654 557 688 587 673 l 728 768 l 800 697 l 686 583 m 415 607 b 328 590 383 607 354 601 b 261 542 302 578 280 562 b 219 473 243 522 228 499 b 204 388 209 447 204 418 b 219 302 204 357 209 328 b 261 232 228 276 243 252 b 328 184 280 212 302 196 b 415 167 354 172 383 167 b 503 184 448 167 477 172 b 571 232 530 196 552 212 b 613 302 589 252 603 276 b 628 388 623 328 628 357 b 613 473 628 418 623 447 b 571 542 603 499 589 522 b 503 590 552 562 530 578 b 415 607 477 601 448 607 "},"¦":{"ha":308,"x_min":0,"x_max":0,"o":"m 211 451 l 97 451 l 97 938 l 211 938 m 211 -243 l 97 -243 l 97 243 l 211 243 "},"¨":{"ha":347,"x_min":0,"x_max":0,"o":"m -47 896 b -23 955 -47 918 -39 938 b 39 981 -7 972 14 981 b 100 956 63 981 83 972 b 125 896 117 940 125 920 b 100 837 125 873 117 853 b 39 813 83 821 63 813 b -23 838 14 813 -7 821 b -47 896 -39 855 -47 875 m 222 896 b 247 955 222 918 230 938 b 308 981 263 972 283 981 b 369 956 332 981 353 972 b 394 896 386 940 394 920 b 369 837 394 873 386 853 b 308 813 353 821 332 813 b 247 838 283 813 263 821 b 222 896 230 855 222 875 "},"´":{"ha":347,"x_min":0,"x_max":0,"o":"m 99 783 l 238 983 l 394 983 l 206 783 "},"¸":{"ha":347,"x_min":0,"x_max":0,"o":"m 168 -96 b 186 -93 175 -94 181 -93 l 206 -93 b 252 -99 221 -93 237 -95 b 294 -117 267 -102 281 -108 b 324 -150 306 -125 316 -136 b 336 -201 332 -164 336 -181 b 319 -262 336 -225 331 -246 b 277 -301 308 -278 294 -291 b 220 -321 260 -310 241 -317 b 160 -326 199 -325 179 -326 b 85 -318 136 -326 111 -324 b 17 -294 59 -312 36 -305 l 44 -236 b 151 -260 79 -252 114 -260 b 177 -257 159 -260 167 -259 b 205 -248 187 -255 196 -252 b 227 -231 214 -244 221 -238 b 236 -201 233 -223 236 -213 b 213 -160 236 -181 228 -167 b 161 -149 197 -152 180 -149 b 133 -151 153 -149 144 -150 b 104 -158 123 -153 113 -156 l 76 -131 l 163 0 l 232 0 l 168 -96 "},"¼":{"ha":1208,"x_min":0,"x_max":0,"o":"m 1118 219 l 1118 126 l 1036 126 l 1036 0 l 938 0 l 938 126 l 675 126 l 675 215 l 921 592 l 1036 592 l 1036 219 m 782 219 l 938 219 l 938 461 l 933 461 m 235 392 l 235 853 l 140 771 l 76 842 l 250 983 l 343 983 l 343 392 m 235 -6 l 861 1026 l 940 983 l 315 -49 "},"½":{"ha":1208,"x_min":0,"x_max":0,"o":"m 235 392 l 235 853 l 140 771 l 76 842 l 250 983 l 343 983 l 343 392 m 733 0 l 733 93 l 961 322 b 1000 372 976 338 989 354 b 1017 431 1011 389 1017 408 b 993 487 1017 455 1009 473 b 933 507 977 500 957 507 b 871 481 908 507 888 498 b 839 413 854 464 844 441 l 736 426 b 801 552 744 477 765 519 b 933 601 838 585 881 601 b 1006 591 958 601 982 598 b 1067 559 1029 584 1049 573 b 1109 506 1084 545 1098 527 b 1125 431 1120 484 1125 459 b 1095 329 1125 391 1115 357 b 1028 251 1075 301 1053 275 l 869 96 l 1126 96 l 1126 0 m 235 -6 l 861 1026 l 940 983 l 315 -49 "},"¾":{"ha":1208,"x_min":0,"x_max":0,"o":"m 1118 219 l 1118 126 l 1036 126 l 1036 0 l 938 0 l 938 126 l 675 126 l 675 215 l 921 592 l 1036 592 l 1036 219 m 782 219 l 938 219 l 938 461 l 933 461 m 235 -6 l 861 1026 l 940 983 l 315 -49 m 236 747 b 314 767 266 747 292 754 b 347 835 336 780 347 802 b 322 888 347 857 339 875 b 263 908 306 902 286 908 b 208 889 242 908 224 902 b 171 838 191 876 179 859 l 76 869 b 152 966 93 911 118 943 b 265 1000 186 989 224 1000 b 338 990 291 1000 316 997 b 398 960 361 984 381 974 b 438 910 415 947 428 930 b 453 839 448 889 453 866 b 428 758 453 807 444 781 b 367 710 411 736 391 720 b 440 658 396 700 421 683 b 468 569 459 633 468 604 b 451 490 468 539 462 513 b 405 434 439 468 424 449 b 340 400 386 419 364 407 b 265 389 316 393 291 389 b 139 423 218 389 176 400 b 56 535 102 446 74 483 l 154 565 b 194 505 163 540 176 520 b 263 482 213 490 236 482 b 332 503 288 482 311 489 b 364 572 353 518 364 541 b 352 615 364 590 360 604 b 322 642 344 626 334 635 b 281 657 310 649 297 654 b 236 661 266 660 251 661 l 199 661 l 199 747 "},"Ā":{"ha":988,"x_min":0,"x_max":0,"o":"m 7 0 l 433 983 l 558 983 l 981 0 l 825 0 l 725 242 l 258 242 l 160 0 m 675 363 l 492 824 l 307 363 m 286 1107 l 286 1200 l 697 1200 l 697 1107 "},"ā":{"ha":753,"x_min":0,"x_max":0,"o":"m 522 426 b 478 535 522 475 507 512 b 360 571 448 559 409 571 b 255 549 323 571 288 564 b 172 494 222 535 194 517 l 103 578 b 222 650 135 608 175 632 b 372 676 268 668 319 676 b 495 656 419 676 460 670 b 581 601 530 643 558 625 b 631 519 603 578 619 551 b 647 418 642 488 647 454 l 647 131 b 649 60 647 108 648 85 b 657 0 651 36 653 16 l 539 0 b 528 94 531 31 528 63 l 524 94 b 433 13 500 59 469 32 b 303 -17 396 -7 353 -17 b 222 -6 277 -17 250 -13 b 144 28 193 1 168 12 b 87 90 121 44 102 64 b 64 186 72 116 64 148 b 104 305 64 236 77 276 b 210 372 131 334 166 356 b 357 401 253 387 302 397 b 522 408 412 406 467 408 l 522 426 m 490 314 b 390 310 458 314 424 313 b 295 293 355 307 323 301 b 225 256 267 285 244 272 b 197 189 206 239 197 217 b 209 140 197 169 201 153 b 240 108 217 127 227 117 b 283 91 253 100 268 94 b 332 86 299 88 315 86 b 473 141 393 86 440 104 b 522 279 506 178 522 224 l 522 314 l 490 314 m 169 829 l 169 922 l 581 922 l 581 829 "},"Ă":{"ha":988,"x_min":0,"x_max":0,"o":"m 7 0 l 433 983 l 558 983 l 981 0 l 825 0 l 725 242 l 258 242 l 160 0 m 675 363 l 492 824 l 307 363 m 713 1261 b 644 1117 707 1197 684 1149 b 492 1069 603 1085 553 1069 b 338 1117 430 1069 378 1085 b 271 1261 298 1149 275 1197 l 349 1261 b 399 1185 355 1226 372 1200 b 492 1161 425 1169 456 1161 b 586 1183 530 1161 561 1168 b 636 1261 611 1197 628 1223 l 713 1261 "},"ă":{"ha":753,"x_min":0,"x_max":0,"o":"m 522 426 b 478 535 522 475 507 512 b 360 571 448 559 409 571 b 255 549 323 571 288 564 b 172 494 222 535 194 517 l 103 578 b 222 650 135 608 175 632 b 372 676 268 668 319 676 b 495 656 419 676 460 670 b 581 601 530 643 558 625 b 631 519 603 578 619 551 b 647 418 642 488 647 454 l 647 131 b 649 60 647 108 648 85 b 657 0 651 36 653 16 l 539 0 b 528 94 531 31 528 63 l 524 94 b 433 13 500 59 469 32 b 303 -17 396 -7 353 -17 b 222 -6 277 -17 250 -13 b 144 28 193 1 168 12 b 87 90 121 44 102 64 b 64 186 72 116 64 148 b 104 305 64 236 77 276 b 210 372 131 334 166 356 b 357 401 253 387 302 397 b 522 408 412 406 467 408 l 522 426 m 490 314 b 390 310 458 314 424 313 b 295 293 355 307 323 301 b 225 256 267 285 244 272 b 197 189 206 239 197 217 b 209 140 197 169 201 153 b 240 108 217 127 227 117 b 283 91 253 100 268 94 b 332 86 299 88 315 86 b 473 141 393 86 440 104 b 522 279 506 178 522 224 l 522 314 l 490 314 m 594 983 b 526 840 589 919 566 872 b 374 792 485 808 435 792 b 220 840 312 792 260 808 b 153 983 180 872 157 919 l 231 983 b 281 907 237 948 254 923 b 374 883 307 891 338 883 b 468 905 412 883 443 891 b 518 983 493 919 510 945 l 594 983 "},"Ą":{"ha":988,"x_min":0,"x_max":0,"o":"m 963 -262 b 901 -300 944 -278 923 -291 b 831 -314 878 -309 855 -314 b 780 -306 813 -314 796 -311 b 737 -282 764 -300 749 -292 b 707 -244 724 -272 714 -259 b 696 -193 700 -228 696 -212 b 708 -135 696 -174 700 -154 b 738 -82 716 -116 725 -99 b 778 -35 750 -65 763 -50 b 822 4 794 -20 808 -7 l 725 242 l 258 242 l 160 0 l 7 0 l 433 983 l 558 983 l 981 0 l 893 0 b 823 -81 867 -25 844 -52 b 792 -165 802 -109 792 -137 b 811 -212 792 -184 798 -199 b 858 -231 824 -224 840 -231 b 897 -222 871 -231 884 -228 b 932 -200 910 -217 922 -209 l 963 -262 m 675 363 l 492 824 l 307 363 "},"ą":{"ha":753,"x_min":0,"x_max":0,"o":"m 676 -262 b 615 -300 658 -278 637 -291 b 544 -314 592 -309 569 -314 b 494 -306 527 -314 510 -311 b 451 -282 478 -300 463 -292 b 421 -244 438 -272 428 -259 b 410 -193 413 -228 410 -212 b 422 -135 410 -174 414 -154 b 452 -82 429 -116 440 -99 b 493 -35 465 -65 478 -50 b 538 4 508 -20 523 -7 b 530 49 534 18 531 33 b 528 94 528 64 528 80 l 524 94 b 433 13 500 59 469 32 b 303 -17 396 -7 353 -17 b 222 -6 277 -17 250 -13 b 144 28 193 1 168 12 b 87 90 121 44 102 64 b 64 186 72 116 64 148 b 104 305 64 236 77 276 b 210 372 131 334 166 356 b 357 401 253 387 302 397 b 522 408 412 406 467 408 l 522 426 b 478 535 522 475 507 512 b 360 571 448 559 409 571 b 255 549 323 571 288 564 b 172 494 222 535 194 517 l 103 578 b 222 650 135 608 175 632 b 372 676 268 668 319 676 b 495 656 419 676 460 670 b 581 601 530 643 558 625 b 631 519 603 578 619 551 b 647 418 642 488 647 454 l 647 131 b 649 60 647 108 648 85 b 657 0 651 36 653 16 l 607 0 b 537 -81 581 -25 558 -52 b 506 -165 516 -109 506 -137 b 525 -212 506 -184 512 -199 b 572 -231 538 -224 554 -231 b 611 -222 585 -231 598 -228 b 646 -200 624 -217 636 -209 l 676 -262 m 490 314 b 390 310 458 314 424 313 b 295 293 355 307 323 301 b 225 256 267 285 244 272 b 197 189 206 239 197 217 b 209 140 197 169 201 153 b 240 108 217 127 227 117 b 283 91 253 100 268 94 b 332 86 299 88 315 86 b 473 141 393 86 440 104 b 522 279 506 178 522 224 l 522 314 l 490 314 "},"Ć":{"ha":983,"x_min":0,"x_max":0,"o":"m 963 153 b 811 24 924 100 873 57 b 588 -25 749 -9 675 -25 b 380 13 513 -25 443 -12 b 216 120 316 39 262 74 b 108 284 170 166 134 221 b 69 493 82 347 69 417 b 109 703 69 570 83 640 b 219 866 135 767 172 821 b 385 971 266 911 321 946 b 593 1008 449 996 518 1008 b 694 999 626 1008 660 1005 b 793 969 729 992 762 982 b 879 922 825 956 853 941 b 946 856 905 903 927 881 l 838 772 b 735 855 813 806 779 833 b 593 888 691 877 644 888 b 438 856 536 888 484 877 b 321 771 392 835 353 807 b 246 645 288 735 263 693 b 219 493 228 597 219 547 b 245 338 219 438 228 386 b 319 212 262 289 287 247 b 435 128 351 176 390 148 b 589 97 481 107 532 97 b 740 131 644 97 695 108 b 853 228 786 153 823 185 l 963 153 m 493 1061 l 631 1261 l 789 1261 l 599 1061 "},"ć":{"ha":686,"x_min":0,"x_max":0,"o":"m 574 492 b 511 545 560 513 539 531 b 422 567 483 559 454 567 b 331 547 388 567 358 560 b 264 495 305 534 282 517 b 222 419 245 473 231 448 b 207 329 212 391 207 361 b 222 239 207 298 212 268 b 264 163 231 210 245 185 b 332 111 282 141 305 124 b 424 92 359 98 389 92 b 515 111 457 92 487 98 b 582 164 542 124 564 142 l 669 85 b 565 9 642 52 607 27 b 424 -18 524 -9 476 -18 b 283 7 373 -18 326 -10 b 171 77 240 24 202 47 b 97 186 139 107 115 144 b 69 329 78 229 69 276 b 96 471 69 381 78 428 b 169 581 113 513 138 550 b 281 651 201 611 238 635 b 421 676 324 668 371 676 b 559 649 467 676 513 667 b 668 568 605 630 641 603 l 574 492 m 338 783 l 476 983 l 633 983 l 444 783 "},"Ĉ":{"ha":983,"x_min":0,"x_max":0,"o":"m 963 153 b 811 24 924 100 873 57 b 588 -25 749 -9 675 -25 b 380 13 513 -25 443 -12 b 216 120 316 39 262 74 b 108 284 170 166 134 221 b 69 493 82 347 69 417 b 109 703 69 570 83 640 b 219 866 135 767 172 821 b 385 971 266 911 321 946 b 593 1008 449 996 518 1008 b 694 999 626 1008 660 1005 b 793 969 729 992 762 982 b 879 922 825 956 853 941 b 946 856 905 903 927 881 l 838 772 b 735 855 813 806 779 833 b 593 888 691 877 644 888 b 438 856 536 888 484 877 b 321 771 392 835 353 807 b 246 645 288 735 263 693 b 219 493 228 597 219 547 b 245 338 219 438 228 386 b 319 212 262 289 287 247 b 435 128 351 176 390 148 b 589 97 481 107 532 97 b 740 131 644 97 695 108 b 853 228 786 153 823 185 l 963 153 m 692 1061 l 588 1199 l 482 1061 l 357 1061 l 513 1261 l 663 1261 l 818 1061 "},"ĉ":{"ha":686,"x_min":0,"x_max":0,"o":"m 574 492 b 511 545 560 513 539 531 b 422 567 483 559 454 567 b 331 547 388 567 358 560 b 264 495 305 534 282 517 b 222 419 245 473 231 448 b 207 329 212 391 207 361 b 222 239 207 298 212 268 b 264 163 231 210 245 185 b 332 111 282 141 305 124 b 424 92 359 98 389 92 b 515 111 457 92 487 98 b 582 164 542 124 564 142 l 669 85 b 565 9 642 52 607 27 b 424 -18 524 -9 476 -18 b 283 7 373 -18 326 -10 b 171 77 240 24 202 47 b 97 186 139 107 115 144 b 69 329 78 229 69 276 b 96 471 69 381 78 428 b 169 581 113 513 138 550 b 281 651 201 611 238 635 b 421 676 324 668 371 676 b 559 649 467 676 513 667 b 668 568 605 630 641 603 l 574 492 m 525 783 l 421 921 l 315 783 l 190 783 l 346 983 l 496 983 l 651 783 "},"Ċ":{"ha":983,"x_min":0,"x_max":0,"o":"m 963 153 b 811 24 924 100 873 57 b 588 -25 749 -9 675 -25 b 380 13 513 -25 443 -12 b 216 120 316 39 262 74 b 108 284 170 166 134 221 b 69 493 82 347 69 417 b 109 703 69 570 83 640 b 219 866 135 767 172 821 b 385 971 266 911 321 946 b 593 1008 449 996 518 1008 b 694 999 626 1008 660 1005 b 793 969 729 992 762 982 b 879 922 825 956 853 941 b 946 856 905 903 927 881 l 838 772 b 735 855 813 806 779 833 b 593 888 691 877 644 888 b 438 856 536 888 484 877 b 321 771 392 835 353 807 b 246 645 288 735 263 693 b 219 493 228 597 219 547 b 245 338 219 438 228 386 b 319 212 262 289 287 247 b 435 128 351 176 390 148 b 589 97 481 107 532 97 b 740 131 644 97 695 108 b 853 228 786 153 823 185 l 963 153 m 675 1174 b 649 1114 675 1150 666 1130 b 588 1090 632 1098 612 1090 b 526 1115 563 1090 543 1098 b 501 1174 510 1131 501 1150 b 526 1234 501 1198 510 1218 b 588 1258 543 1250 563 1258 b 649 1234 612 1258 632 1250 b 675 1174 666 1218 675 1198 "},"ċ":{"ha":686,"x_min":0,"x_max":0,"o":"m 574 492 b 511 545 560 513 539 531 b 422 567 483 559 454 567 b 331 547 388 567 358 560 b 264 495 305 534 282 517 b 222 419 245 473 231 448 b 207 329 212 391 207 361 b 222 239 207 298 212 268 b 264 163 231 210 245 185 b 332 111 282 141 305 124 b 424 92 359 98 389 92 b 515 111 457 92 487 98 b 582 164 542 124 564 142 l 669 85 b 565 9 642 52 607 27 b 424 -18 524 -9 476 -18 b 283 7 373 -18 326 -10 b 171 77 240 24 202 47 b 97 186 139 107 115 144 b 69 329 78 229 69 276 b 96 471 69 381 78 428 b 169 581 113 513 138 550 b 281 651 201 611 238 635 b 421 676 324 668 371 676 b 559 649 467 676 513 667 b 668 568 605 630 641 603 l 574 492 m 504 896 b 478 836 504 872 496 852 b 417 813 461 820 441 813 b 356 837 393 813 372 821 b 331 896 339 853 331 873 b 356 956 331 920 339 940 b 417 981 372 972 393 981 b 478 956 441 981 461 972 b 504 896 496 940 504 920 "},"Č":{"ha":983,"x_min":0,"x_max":0,"o":"m 963 153 b 811 24 924 100 873 57 b 588 -25 749 -9 675 -25 b 380 13 513 -25 443 -12 b 216 120 316 39 262 74 b 108 284 170 166 134 221 b 69 493 82 347 69 417 b 109 703 69 570 83 640 b 219 866 135 767 172 821 b 385 971 266 911 321 946 b 593 1008 449 996 518 1008 b 694 999 626 1008 660 1005 b 793 969 729 992 762 982 b 879 922 825 956 853 941 b 946 856 905 903 927 881 l 838 772 b 735 855 813 806 779 833 b 593 888 691 877 644 888 b 438 856 536 888 484 877 b 321 771 392 835 353 807 b 246 645 288 735 263 693 b 219 493 228 597 219 547 b 245 338 219 438 228 386 b 319 212 262 289 287 247 b 435 128 351 176 390 148 b 589 97 481 107 532 97 b 740 131 644 97 695 108 b 853 228 786 153 823 185 l 963 153 m 513 1061 l 358 1261 l 483 1261 l 589 1124 l 694 1261 l 817 1261 l 661 1061 "},"č":{"ha":686,"x_min":0,"x_max":0,"o":"m 574 492 b 511 545 560 513 539 531 b 422 567 483 559 454 567 b 331 547 388 567 358 560 b 264 495 305 534 282 517 b 222 419 245 473 231 448 b 207 329 212 391 207 361 b 222 239 207 298 212 268 b 264 163 231 210 245 185 b 332 111 282 141 305 124 b 424 92 359 98 389 92 b 515 111 457 92 487 98 b 582 164 542 124 564 142 l 669 85 b 565 9 642 52 607 27 b 424 -18 524 -9 476 -18 b 283 7 373 -18 326 -10 b 171 77 240 24 202 47 b 97 186 139 107 115 144 b 69 329 78 229 69 276 b 96 471 69 381 78 428 b 169 581 113 513 138 550 b 281 651 201 611 238 635 b 421 676 324 668 371 676 b 559 649 467 676 513 667 b 668 568 605 630 641 603 l 574 492 m 347 783 l 193 983 l 318 983 l 424 846 l 529 983 l 651 983 l 496 783 "},"Ď":{"ha":1057,"x_min":0,"x_max":0,"o":"m 457 983 b 646 956 520 983 583 974 b 817 868 709 937 766 908 b 940 715 868 828 909 777 b 988 492 972 653 988 579 b 940 273 988 407 972 334 b 817 120 909 211 868 160 b 646 30 766 80 709 50 b 457 0 583 10 520 0 l 119 0 l 119 983 m 429 121 b 594 146 488 121 543 129 b 724 218 644 163 688 187 b 810 335 761 250 789 288 b 840 492 830 381 840 433 b 810 653 840 553 830 606 b 724 769 789 699 761 738 b 594 840 688 800 644 823 b 429 864 543 856 488 864 l 257 864 l 257 121 m 403 1061 l 249 1261 l 374 1261 l 479 1124 l 585 1261 l 707 1261 l 551 1061 "},"ď":{"ha":882,"x_min":0,"x_max":0,"o":"m 638 104 b 535 13 613 64 578 34 b 400 -18 492 -8 447 -18 b 263 9 349 -18 303 -9 b 158 83 222 27 187 52 b 92 194 130 115 107 152 b 68 331 76 237 68 282 b 92 466 68 379 76 424 b 159 576 107 508 130 545 b 264 650 188 608 223 632 b 399 676 305 668 350 676 b 539 642 452 676 499 665 b 633 560 579 620 610 592 l 636 560 l 636 1050 l 767 1050 l 767 0 l 640 0 l 640 104 l 638 104 m 204 331 b 218 242 204 300 209 270 b 260 165 227 213 241 188 b 328 112 278 143 301 125 b 422 92 355 98 386 92 b 513 111 456 92 486 98 b 583 163 541 124 564 141 b 628 239 603 185 618 210 b 644 329 639 268 644 298 b 628 419 644 361 639 391 b 583 496 618 448 603 474 b 513 549 564 518 541 536 b 422 568 486 562 456 568 b 328 549 386 568 355 562 b 260 496 301 536 278 518 b 218 419 241 474 227 448 b 204 331 209 391 204 361 m 814 719 l 903 983 l 1032 983 l 924 719 "},"Đ":{"ha":1057,"x_min":0,"x_max":0,"o":"m 18 465 l 18 563 l 114 563 l 114 983 l 472 983 b 658 953 535 983 597 973 b 821 861 718 932 773 902 b 937 708 869 820 908 769 b 981 492 966 646 981 574 b 933 274 981 408 965 336 b 811 121 902 213 861 162 b 644 30 761 80 705 50 b 461 0 582 10 521 0 l 114 0 l 114 465 m 415 125 b 590 151 480 125 538 134 b 721 226 641 169 685 194 b 804 341 757 258 785 296 b 833 492 824 386 833 436 b 806 642 833 547 824 597 b 728 758 788 687 762 726 b 601 832 694 790 651 814 b 429 858 550 850 493 858 l 253 858 l 253 563 l 582 563 l 582 465 l 253 465 l 253 125 "},"đ":{"ha":882,"x_min":0,"x_max":0,"o":"m 636 1050 l 767 1050 l 767 879 l 844 879 l 844 792 l 767 792 l 767 0 l 640 0 l 640 104 l 638 104 b 535 13 613 64 578 34 b 400 -18 492 -8 447 -18 b 263 9 349 -18 303 -9 b 158 83 222 27 187 52 b 92 194 130 115 107 152 b 68 331 76 237 68 282 b 92 466 68 379 76 424 b 159 576 107 508 130 545 b 264 650 188 608 223 632 b 399 676 305 668 350 676 b 539 642 452 676 499 665 b 633 560 579 620 610 592 l 636 560 l 636 792 l 410 792 l 410 879 l 636 879 m 204 331 b 218 242 204 300 209 270 b 260 165 227 213 241 188 b 328 112 278 143 301 125 b 422 92 355 98 386 92 b 513 111 456 92 486 98 b 583 163 541 124 564 141 b 628 239 603 185 618 210 b 644 329 639 268 644 298 b 628 419 644 361 639 391 b 583 496 618 448 603 474 b 513 549 564 518 541 536 b 422 568 486 562 456 568 b 328 549 386 568 355 562 b 260 496 301 536 278 518 b 218 419 241 474 227 448 b 204 331 209 391 204 361 "},"Ē":{"ha":835,"x_min":0,"x_max":0,"o":"m 771 122 l 771 0 l 119 0 l 119 983 l 750 983 l 750 863 l 257 863 l 257 568 l 721 568 l 721 450 l 257 450 l 257 122 m 231 1107 l 231 1200 l 642 1200 l 642 1107 "},"ē":{"ha":796,"x_min":0,"x_max":0,"o":"m 594 388 b 581 460 594 413 589 438 b 547 519 573 483 562 503 b 490 559 531 536 512 549 b 410 574 467 569 440 574 b 331 559 382 574 356 569 b 267 519 307 549 285 536 b 223 460 249 503 234 483 b 203 388 211 438 205 413 l 594 388 m 726 313 b 725 290 726 305 726 298 l 203 290 b 222 212 204 263 210 236 b 268 148 233 187 249 166 b 335 106 288 130 310 116 b 417 90 361 95 388 90 b 532 119 461 90 500 100 b 608 190 564 139 590 163 l 700 117 b 576 15 665 70 623 36 b 417 -18 528 -7 475 -18 b 278 7 367 -18 320 -10 b 168 77 235 24 199 47 b 96 186 138 107 113 144 b 69 328 78 229 69 276 b 95 469 69 379 78 426 b 167 579 112 512 136 549 b 275 651 197 610 233 634 b 410 676 317 668 362 676 b 541 653 458 676 502 669 b 641 585 580 637 614 614 b 704 477 668 555 689 519 b 726 335 719 435 726 388 m 206 829 l 206 922 l 617 922 l 617 829 "},"Ĕ":{"ha":835,"x_min":0,"x_max":0,"o":"m 771 122 l 771 0 l 119 0 l 119 983 l 750 983 l 750 863 l 257 863 l 257 568 l 721 568 l 721 450 l 257 450 l 257 122 m 661 1261 b 592 1117 656 1197 633 1149 b 440 1069 552 1085 501 1069 b 287 1117 378 1069 327 1085 b 219 1261 247 1149 224 1197 l 297 1261 b 347 1185 304 1226 320 1200 b 440 1161 374 1169 405 1161 b 535 1183 478 1161 510 1168 b 585 1261 560 1197 576 1223 l 661 1261 "},"ĕ":{"ha":796,"x_min":0,"x_max":0,"o":"m 594 388 b 581 460 594 413 589 438 b 547 519 573 483 562 503 b 490 559 531 536 512 549 b 410 574 467 569 440 574 b 331 559 382 574 356 569 b 267 519 307 549 285 536 b 223 460 249 503 234 483 b 203 388 211 438 205 413 l 594 388 m 726 313 b 725 290 726 305 726 298 l 203 290 b 222 212 204 263 210 236 b 268 148 233 187 249 166 b 335 106 288 130 310 116 b 417 90 361 95 388 90 b 532 119 461 90 500 100 b 608 190 564 139 590 163 l 700 117 b 576 15 665 70 623 36 b 417 -18 528 -7 475 -18 b 278 7 367 -18 320 -10 b 168 77 235 24 199 47 b 96 186 138 107 113 144 b 69 328 78 229 69 276 b 95 469 69 379 78 426 b 167 579 112 512 136 549 b 275 651 197 610 233 634 b 410 676 317 668 362 676 b 541 653 458 676 502 669 b 641 585 580 637 614 614 b 704 477 668 555 689 519 b 726 335 719 435 726 388 m 636 983 b 567 840 631 919 608 872 b 415 792 527 808 476 792 b 262 840 353 792 302 808 b 194 983 222 872 199 919 l 272 983 b 322 907 279 948 295 923 b 415 883 349 891 380 883 b 510 905 453 883 485 891 b 560 983 535 919 551 945 l 636 983 "},"Ė":{"ha":835,"x_min":0,"x_max":0,"o":"m 771 122 l 771 0 l 119 0 l 119 983 l 750 983 l 750 863 l 257 863 l 257 568 l 721 568 l 721 450 l 257 450 l 257 122 m 524 1174 b 498 1114 524 1150 515 1130 b 436 1090 481 1098 460 1090 b 375 1115 412 1090 392 1098 b 350 1174 358 1131 350 1150 b 375 1234 350 1198 358 1218 b 436 1258 392 1250 412 1258 b 498 1234 460 1258 481 1250 b 524 1174 515 1218 524 1198 "},"ė":{"ha":796,"x_min":0,"x_max":0,"o":"m 594 388 b 581 460 594 413 589 438 b 547 519 573 483 562 503 b 490 559 531 536 512 549 b 410 574 467 569 440 574 b 331 559 382 574 356 569 b 267 519 307 549 285 536 b 223 460 249 503 234 483 b 203 388 211 438 205 413 l 594 388 m 726 313 b 725 290 726 305 726 298 l 203 290 b 222 212 204 263 210 236 b 268 148 233 187 249 166 b 335 106 288 130 310 116 b 417 90 361 95 388 90 b 532 119 461 90 500 100 b 608 190 564 139 590 163 l 700 117 b 576 15 665 70 623 36 b 417 -18 528 -7 475 -18 b 278 7 367 -18 320 -10 b 168 77 235 24 199 47 b 96 186 138 107 113 144 b 69 328 78 229 69 276 b 95 469 69 379 78 426 b 167 579 112 512 136 549 b 275 651 197 610 233 634 b 410 676 317 668 362 676 b 541 653 458 676 502 669 b 641 585 580 637 614 614 b 704 477 668 555 689 519 b 726 335 719 435 726 388 m 499 896 b 473 836 499 872 490 852 b 411 813 456 820 435 813 b 350 837 387 813 367 821 b 325 896 333 853 325 873 b 350 956 325 920 333 940 b 411 981 367 972 387 981 b 473 956 435 981 456 972 b 499 896 490 940 499 920 "},"Ę":{"ha":835,"x_min":0,"x_max":0,"o":"m 819 -262 b 758 -300 801 -278 780 -291 b 688 -314 735 -309 712 -314 b 637 -306 670 -314 653 -311 b 594 -282 621 -300 606 -292 b 564 -244 581 -272 571 -259 b 553 -193 556 -228 553 -212 b 564 -138 553 -175 556 -156 b 592 -86 571 -120 581 -103 b 631 -39 604 -69 617 -54 b 674 0 646 -24 660 -11 l 119 0 l 119 983 l 750 983 l 750 863 l 257 863 l 257 568 l 721 568 l 721 450 l 257 450 l 257 122 l 771 122 l 771 0 l 750 0 b 680 -81 724 -25 701 -52 b 649 -165 659 -109 649 -137 b 668 -212 649 -184 655 -199 b 715 -231 681 -224 697 -231 b 754 -222 728 -231 741 -228 b 789 -200 767 -217 779 -209 l 819 -262 "},"ę":{"ha":796,"x_min":0,"x_max":0,"o":"m 556 -262 b 494 -300 537 -278 516 -291 b 424 -314 471 -309 448 -314 b 373 -306 406 -314 389 -311 b 330 -282 357 -300 342 -292 b 300 -244 317 -272 307 -259 b 289 -193 293 -228 289 -212 b 320 -97 289 -160 299 -128 b 390 -17 341 -67 364 -40 b 261 14 343 -14 300 -4 b 160 85 222 31 188 55 b 93 192 131 116 109 151 b 69 328 77 232 69 278 b 95 469 69 379 78 426 b 167 579 112 512 136 549 b 275 651 197 610 233 634 b 410 676 317 668 362 676 b 541 653 458 676 502 669 b 641 585 580 637 614 614 b 704 477 668 555 689 519 b 726 335 719 435 726 388 l 726 313 b 725 290 726 305 726 298 l 203 290 b 222 212 204 263 210 236 b 268 148 233 187 249 166 b 335 106 288 130 310 116 b 417 90 361 95 388 90 b 532 119 461 90 500 100 b 608 190 564 139 590 163 l 700 117 b 472 -14 641 41 565 -3 b 411 -89 449 -38 429 -63 b 385 -165 394 -115 385 -140 b 404 -212 385 -184 391 -199 b 451 -231 417 -224 433 -231 b 490 -222 464 -231 477 -228 b 525 -200 503 -217 515 -209 l 556 -262 m 594 388 b 581 460 594 413 589 438 b 547 519 573 483 562 503 b 490 559 531 536 512 549 b 410 574 467 569 440 574 b 331 559 382 574 356 569 b 267 519 307 549 285 536 b 223 460 249 503 234 483 b 203 388 211 438 205 413 l 594 388 "},"Ě":{"ha":835,"x_min":0,"x_max":0,"o":"m 771 122 l 771 0 l 119 0 l 119 983 l 750 983 l 750 863 l 257 863 l 257 568 l 721 568 l 721 450 l 257 450 l 257 122 m 365 1061 l 211 1261 l 336 1261 l 442 1124 l 547 1261 l 669 1261 l 514 1061 "},"ě":{"ha":796,"x_min":0,"x_max":0,"o":"m 594 388 b 581 460 594 413 589 438 b 547 519 573 483 562 503 b 490 559 531 536 512 549 b 410 574 467 569 440 574 b 331 559 382 574 356 569 b 267 519 307 549 285 536 b 223 460 249 503 234 483 b 203 388 211 438 205 413 l 594 388 m 726 313 b 725 290 726 305 726 298 l 203 290 b 222 212 204 263 210 236 b 268 148 233 187 249 166 b 335 106 288 130 310 116 b 417 90 361 95 388 90 b 532 119 461 90 500 100 b 608 190 564 139 590 163 l 700 117 b 576 15 665 70 623 36 b 417 -18 528 -7 475 -18 b 278 7 367 -18 320 -10 b 168 77 235 24 199 47 b 96 186 138 107 113 144 b 69 328 78 229 69 276 b 95 469 69 379 78 426 b 167 579 112 512 136 549 b 275 651 197 610 233 634 b 410 676 317 668 362 676 b 541 653 458 676 502 669 b 641 585 580 637 614 614 b 704 477 668 555 689 519 b 726 335 719 435 726 388 m 336 783 l 182 983 l 307 983 l 413 846 l 518 983 l 640 983 l 485 783 "},"Ĝ":{"ha":1081,"x_min":0,"x_max":0,"o":"m 861 781 b 748 858 831 813 794 839 b 594 888 702 878 651 888 b 439 856 537 888 485 877 b 321 771 393 835 353 807 b 246 645 288 735 263 693 b 219 493 228 597 219 547 b 246 339 219 438 228 387 b 321 213 263 291 288 249 b 440 129 353 178 393 150 b 599 99 488 109 540 99 b 726 111 645 99 688 103 b 828 147 765 119 799 131 l 828 421 l 610 421 l 610 538 l 964 538 l 964 61 b 794 -3 912 33 856 12 b 594 -25 733 -18 667 -25 b 383 13 518 -25 447 -12 b 217 120 318 39 263 74 b 108 284 170 166 134 221 b 69 493 82 347 69 417 b 109 703 69 570 83 640 b 219 866 135 767 172 821 b 385 971 266 911 321 946 b 593 1008 449 996 518 1008 b 803 974 672 1008 742 997 b 957 881 865 950 916 919 l 861 781 m 697 1061 l 593 1199 l 488 1061 l 363 1061 l 518 1261 l 668 1261 l 824 1061 "},"ĝ":{"ha":878,"x_min":0,"x_max":0,"o":"m 164 -112 b 272 -190 193 -145 228 -171 b 404 -219 315 -210 359 -219 b 514 -201 448 -219 484 -213 b 585 -149 544 -188 567 -171 b 624 -72 603 -128 616 -102 b 636 24 632 -43 636 -11 l 636 108 l 633 108 b 535 24 609 71 576 43 b 401 -6 493 4 449 -6 b 265 21 351 -6 306 3 b 160 93 223 38 188 63 b 93 201 131 124 109 159 b 69 333 77 242 69 286 b 93 467 69 381 77 425 b 160 576 109 508 131 545 b 264 649 188 607 223 631 b 400 676 305 667 350 676 b 535 646 447 676 492 666 b 638 553 578 625 613 594 l 640 553 l 640 658 l 767 658 l 767 33 b 749 -105 767 -15 761 -61 b 688 -222 737 -149 716 -188 b 575 -303 659 -255 621 -282 b 403 -333 529 -323 471 -333 b 230 -302 345 -333 288 -323 b 81 -214 172 -281 122 -252 l 164 -112 m 204 336 b 219 249 204 306 209 276 b 262 175 228 221 243 196 b 331 124 281 154 304 137 b 422 104 357 111 388 104 b 514 122 456 104 486 110 b 585 172 542 134 565 151 b 630 245 604 192 619 217 b 646 336 641 273 646 304 b 630 425 646 368 641 397 b 584 499 619 453 604 477 b 513 549 564 520 541 537 b 422 568 486 562 456 568 b 331 549 388 568 357 562 b 262 499 304 537 281 520 b 219 426 243 478 228 454 b 204 336 209 397 204 368 m 535 783 l 431 921 l 325 783 l 200 783 l 356 983 l 506 983 l 661 783 "},"Ğ":{"ha":1081,"x_min":0,"x_max":0,"o":"m 861 781 b 748 858 831 813 794 839 b 594 888 702 878 651 888 b 439 856 537 888 485 877 b 321 771 393 835 353 807 b 246 645 288 735 263 693 b 219 493 228 597 219 547 b 246 339 219 438 228 387 b 321 213 263 291 288 249 b 440 129 353 178 393 150 b 599 99 488 109 540 99 b 726 111 645 99 688 103 b 828 147 765 119 799 131 l 828 421 l 610 421 l 610 538 l 964 538 l 964 61 b 794 -3 912 33 856 12 b 594 -25 733 -18 667 -25 b 383 13 518 -25 447 -12 b 217 120 318 39 263 74 b 108 284 170 166 134 221 b 69 493 82 347 69 417 b 109 703 69 570 83 640 b 219 866 135 767 172 821 b 385 971 266 911 321 946 b 593 1008 449 996 518 1008 b 803 974 672 1008 742 997 b 957 881 865 950 916 919 l 861 781 m 814 1261 b 745 1117 808 1197 785 1149 b 593 1069 705 1085 654 1069 b 440 1117 531 1069 480 1085 b 372 1261 399 1149 377 1197 l 450 1261 b 500 1185 456 1226 473 1200 b 593 1161 527 1169 558 1161 b 688 1183 631 1161 663 1168 b 738 1261 713 1197 729 1223 l 814 1261 "},"ğ":{"ha":878,"x_min":0,"x_max":0,"o":"m 164 -112 b 272 -190 193 -145 228 -171 b 404 -219 315 -210 359 -219 b 514 -201 448 -219 484 -213 b 585 -149 544 -188 567 -171 b 624 -72 603 -128 616 -102 b 636 24 632 -43 636 -11 l 636 108 l 633 108 b 535 24 609 71 576 43 b 401 -6 493 4 449 -6 b 265 21 351 -6 306 3 b 160 93 223 38 188 63 b 93 201 131 124 109 159 b 69 333 77 242 69 286 b 93 467 69 381 77 425 b 160 576 109 508 131 545 b 264 649 188 607 223 631 b 400 676 305 667 350 676 b 535 646 447 676 492 666 b 638 553 578 625 613 594 l 640 553 l 640 658 l 767 658 l 767 33 b 749 -105 767 -15 761 -61 b 688 -222 737 -149 716 -188 b 575 -303 659 -255 621 -282 b 403 -333 529 -323 471 -333 b 230 -302 345 -333 288 -323 b 81 -214 172 -281 122 -252 l 164 -112 m 204 336 b 219 249 204 306 209 276 b 262 175 228 221 243 196 b 331 124 281 154 304 137 b 422 104 357 111 388 104 b 514 122 456 104 486 110 b 585 172 542 134 565 151 b 630 245 604 192 619 217 b 646 336 641 273 646 304 b 630 425 646 368 641 397 b 584 499 619 453 604 477 b 513 549 564 520 541 537 b 422 568 486 562 456 568 b 331 549 388 568 357 562 b 262 499 304 537 281 520 b 219 426 243 478 228 454 b 204 336 209 397 204 368 m 646 983 b 577 840 640 919 617 872 b 425 792 537 808 486 792 b 272 840 363 792 312 808 b 204 983 231 872 209 919 l 282 983 b 332 907 288 948 305 923 b 425 883 359 891 390 883 b 519 905 463 883 494 891 b 569 983 544 919 561 945 l 646 983 "},"Ġ":{"ha":1081,"x_min":0,"x_max":0,"o":"m 861 781 b 748 858 831 813 794 839 b 594 888 702 878 651 888 b 439 856 537 888 485 877 b 321 771 393 835 353 807 b 246 645 288 735 263 693 b 219 493 228 597 219 547 b 246 339 219 438 228 387 b 321 213 263 291 288 249 b 440 129 353 178 393 150 b 599 99 488 109 540 99 b 726 111 645 99 688 103 b 828 147 765 119 799 131 l 828 421 l 610 421 l 610 538 l 964 538 l 964 61 b 794 -3 912 33 856 12 b 594 -25 733 -18 667 -25 b 383 13 518 -25 447 -12 b 217 120 318 39 263 74 b 108 284 170 166 134 221 b 69 493 82 347 69 417 b 109 703 69 570 83 640 b 219 866 135 767 172 821 b 385 971 266 911 321 946 b 593 1008 449 996 518 1008 b 803 974 672 1008 742 997 b 957 881 865 950 916 919 l 861 781 m 679 1174 b 653 1114 679 1150 671 1130 b 592 1090 636 1098 616 1090 b 531 1115 568 1090 547 1098 b 506 1174 514 1131 506 1150 b 531 1234 506 1198 514 1218 b 592 1258 547 1250 568 1258 b 653 1234 616 1258 636 1250 b 679 1174 671 1218 679 1198 "},"ġ":{"ha":878,"x_min":0,"x_max":0,"o":"m 164 -112 b 272 -190 193 -145 228 -171 b 404 -219 315 -210 359 -219 b 514 -201 448 -219 484 -213 b 585 -149 544 -188 567 -171 b 624 -72 603 -128 616 -102 b 636 24 632 -43 636 -11 l 636 108 l 633 108 b 535 24 609 71 576 43 b 401 -6 493 4 449 -6 b 265 21 351 -6 306 3 b 160 93 223 38 188 63 b 93 201 131 124 109 159 b 69 333 77 242 69 286 b 93 467 69 381 77 425 b 160 576 109 508 131 545 b 264 649 188 607 223 631 b 400 676 305 667 350 676 b 535 646 447 676 492 666 b 638 553 578 625 613 594 l 640 553 l 640 658 l 767 658 l 767 33 b 749 -105 767 -15 761 -61 b 688 -222 737 -149 716 -188 b 575 -303 659 -255 621 -282 b 403 -333 529 -323 471 -333 b 230 -302 345 -333 288 -323 b 81 -214 172 -281 122 -252 l 164 -112 m 204 336 b 219 249 204 306 209 276 b 262 175 228 221 243 196 b 331 124 281 154 304 137 b 422 104 357 111 388 104 b 514 122 456 104 486 110 b 585 172 542 134 565 151 b 630 245 604 192 619 217 b 646 336 641 273 646 304 b 630 425 646 368 641 397 b 584 499 619 453 604 477 b 513 549 564 520 541 537 b 422 568 486 562 456 568 b 331 549 388 568 357 562 b 262 499 304 537 281 520 b 219 426 243 478 228 454 b 204 336 209 397 204 368 m 528 896 b 502 836 528 872 519 852 b 440 813 485 820 464 813 b 379 837 416 813 396 821 b 354 896 363 853 354 873 b 379 956 354 920 363 940 b 440 981 396 972 416 981 b 502 956 464 981 485 972 b 528 896 519 940 528 920 "},"Ģ":{"ha":1081,"x_min":0,"x_max":0,"o":"m 861 781 b 748 858 831 813 794 839 b 594 888 702 878 651 888 b 439 856 537 888 485 877 b 321 771 393 835 353 807 b 246 645 288 735 263 693 b 219 493 228 597 219 547 b 246 339 219 438 228 387 b 321 213 263 291 288 249 b 440 129 353 178 393 150 b 599 99 488 109 540 99 b 726 111 645 99 688 103 b 828 147 765 119 799 131 l 828 421 l 610 421 l 610 538 l 964 538 l 964 61 b 794 -3 912 33 856 12 b 594 -25 733 -18 667 -25 b 383 13 518 -25 447 -12 b 217 120 318 39 263 74 b 108 284 170 166 134 221 b 69 493 82 347 69 417 b 109 703 69 570 83 640 b 219 866 135 767 172 821 b 385 971 266 911 321 946 b 593 1008 449 996 518 1008 b 803 974 672 1008 742 997 b 957 881 865 950 916 919 l 861 781 m 463 -326 l 551 -62 l 681 -62 l 572 -326 "},"ģ":{"ha":878,"x_min":0,"x_max":0,"o":"m 164 -112 b 272 -190 193 -145 228 -171 b 404 -219 315 -210 359 -219 b 514 -201 448 -219 484 -213 b 585 -149 544 -188 567 -171 b 624 -72 603 -128 616 -102 b 636 24 632 -43 636 -11 l 636 108 l 633 108 b 535 24 609 71 576 43 b 401 -6 493 4 449 -6 b 265 21 351 -6 306 3 b 160 93 223 38 188 63 b 93 201 131 124 109 159 b 69 333 77 242 69 286 b 93 467 69 381 77 425 b 160 576 109 508 131 545 b 264 649 188 607 223 631 b 400 676 305 667 350 676 b 535 646 447 676 492 666 b 638 553 578 625 613 594 l 640 553 l 640 658 l 767 658 l 767 33 b 749 -105 767 -15 761 -61 b 688 -222 737 -149 716 -188 b 575 -303 659 -255 621 -282 b 403 -333 529 -323 471 -333 b 230 -302 345 -333 288 -323 b 81 -214 172 -281 122 -252 l 164 -112 m 204 336 b 219 249 204 306 209 276 b 262 175 228 221 243 196 b 331 124 281 154 304 137 b 422 104 357 111 388 104 b 514 122 456 104 486 110 b 585 172 542 134 565 151 b 630 245 604 192 619 217 b 646 336 641 273 646 304 b 630 425 646 368 641 397 b 584 499 619 453 604 477 b 513 549 564 520 541 537 b 422 568 486 562 456 568 b 331 549 388 568 357 562 b 262 499 304 537 281 520 b 219 426 243 478 228 454 b 204 336 209 397 204 368 m 596 1047 l 507 783 l 378 783 l 486 1047 "},"Ĥ":{"ha":1013,"x_min":0,"x_max":0,"o":"m 257 983 l 257 572 l 754 572 l 754 983 l 893 983 l 893 0 l 754 0 l 754 450 l 257 450 l 257 0 l 119 0 l 119 983 m 610 1061 l 506 1199 l 400 1061 l 275 1061 l 431 1261 l 581 1261 l 736 1061 "},"ĥ":{"ha":811,"x_min":0,"x_max":0,"o":"m 249 558 b 329 642 264 591 291 619 b 457 676 367 665 410 676 b 567 655 500 676 536 669 b 643 597 597 641 623 621 b 688 513 663 573 678 545 b 703 408 698 480 703 445 l 703 0 l 572 0 l 572 364 b 566 440 572 391 570 416 b 543 504 562 464 554 486 b 498 549 532 523 517 538 b 424 565 479 560 454 565 b 296 506 372 565 329 546 b 246 349 263 467 246 414 l 246 0 l 115 0 l 115 1050 l 246 1050 l 246 558 l 249 558 m 514 1106 l 410 1243 l 304 1106 l 179 1106 l 335 1306 l 485 1306 l 640 1106 "},"Ħ":{"ha":1013,"x_min":0,"x_max":0,"o":"m 257 983 l 257 782 l 754 782 l 754 983 l 893 983 l 893 0 l 754 0 l 754 450 l 257 450 l 257 0 l 119 0 l 119 983 m 754 694 l 257 694 l 257 572 l 754 572 "},"ħ":{"ha":811,"x_min":0,"x_max":0,"o":"m 115 1050 l 246 1050 l 246 879 l 474 879 l 474 792 l 246 792 l 246 558 l 249 558 b 329 642 264 591 291 619 b 457 676 367 665 410 676 b 567 655 500 676 536 669 b 644 597 598 641 624 621 b 690 513 665 573 680 545 b 704 408 699 480 704 445 l 704 0 l 572 0 l 572 364 b 566 440 572 391 570 416 b 543 504 562 464 554 486 b 498 549 532 523 517 538 b 424 565 479 560 454 565 b 296 506 372 565 329 546 b 246 349 263 467 246 414 l 246 0 l 115 0 l 115 792 l 40 792 l 40 879 l 115 879 "},"Ĩ":{"ha":376,"x_min":0,"x_max":0,"o":"m 119 0 l 119 983 l 257 983 l 257 0 m -53 1072 b -38 1131 -49 1093 -44 1112 b -12 1183 -32 1150 -24 1167 b 28 1219 -1 1198 12 1210 b 89 1233 45 1229 65 1233 b 142 1225 106 1233 124 1231 b 193 1206 160 1219 177 1213 b 244 1184 212 1197 228 1190 b 286 1175 259 1178 273 1175 b 331 1195 306 1175 322 1182 b 353 1239 341 1209 348 1223 l 428 1239 b 413 1180 424 1219 419 1199 b 388 1128 407 1161 399 1144 b 346 1092 376 1113 363 1101 b 286 1078 329 1082 309 1078 b 232 1087 269 1078 250 1081 b 179 1107 213 1093 196 1100 b 131 1128 163 1115 147 1122 b 89 1136 116 1133 102 1136 b 45 1116 69 1136 55 1129 b 24 1072 35 1103 28 1088 l -53 1072 "},"ĩ":{"ha":360,"x_min":0,"x_max":0,"o":"m 114 0 l 114 658 l 244 658 l 244 0 m -58 794 b -44 853 -55 815 -50 834 b -18 905 -38 872 -29 890 b 23 942 -7 920 7 932 b 83 956 39 951 59 956 b 137 947 101 956 119 953 b 188 928 155 942 172 935 b 238 906 206 919 223 912 b 281 897 253 900 268 897 b 326 917 301 897 316 904 b 347 961 335 931 343 945 l 422 961 b 408 902 419 941 414 921 b 382 851 402 883 393 866 b 340 814 371 835 357 823 b 281 800 324 805 304 800 b 226 809 263 800 245 803 b 174 829 208 815 190 822 b 126 850 157 838 141 844 b 83 858 110 856 96 858 b 40 838 64 858 49 852 b 18 794 30 825 23 810 l -58 794 "},"Ī":{"ha":376,"x_min":0,"x_max":0,"o":"m 119 0 l 119 983 l 257 983 l 257 0 m -19 1107 l -19 1200 l 392 1200 l 392 1107 "},"ī":{"ha":360,"x_min":0,"x_max":0,"o":"m 114 0 l 114 658 l 244 658 l 244 0 m -25 829 l -25 922 l 386 922 l 386 829 "},"Į":{"ha":376,"x_min":0,"x_max":0,"o":"m 315 -262 b 253 -300 297 -278 276 -291 b 183 -314 231 -309 207 -314 b 133 -306 166 -314 149 -311 b 90 -282 116 -300 102 -292 b 60 -244 77 -272 67 -259 b 49 -193 52 -228 49 -212 b 60 -138 49 -175 52 -156 b 88 -86 67 -120 77 -103 b 127 -39 100 -69 113 -54 b 169 0 141 -24 156 -11 l 119 0 l 119 983 l 257 983 l 257 0 l 246 0 b 176 -81 220 -25 197 -52 b 144 -165 155 -109 144 -137 b 164 -212 144 -184 151 -199 b 211 -231 177 -224 193 -231 b 250 -222 224 -231 237 -228 b 285 -200 263 -217 275 -209 l 315 -262 "},"į":{"ha":360,"x_min":0,"x_max":0,"o":"m 299 -262 b 237 -300 280 -278 259 -291 b 167 -314 214 -309 191 -314 b 116 -306 149 -314 132 -311 b 73 -282 100 -300 85 -292 b 43 -244 60 -272 50 -259 b 32 -193 36 -228 32 -212 b 43 -138 32 -175 36 -156 b 72 -86 50 -120 60 -103 b 110 -39 83 -69 96 -54 b 153 0 125 -24 139 -11 l 114 0 l 114 658 l 244 658 l 244 0 l 229 0 b 159 -81 203 -25 180 -52 b 128 -165 138 -109 128 -137 b 147 -212 128 -184 134 -199 b 194 -231 160 -224 176 -231 b 233 -222 207 -231 220 -228 b 268 -200 246 -217 258 -209 l 299 -262 m 267 896 b 241 836 267 872 258 852 b 179 813 224 820 203 813 b 118 837 155 813 135 821 b 93 896 101 853 93 873 b 118 956 93 920 101 940 b 179 981 135 972 155 981 b 241 956 203 981 224 972 b 267 896 258 940 267 920 "},"İ":{"ha":376,"x_min":0,"x_max":0,"o":"m 119 0 l 119 983 l 257 983 l 257 0 m 278 1174 b 252 1114 278 1150 269 1130 b 190 1090 235 1098 214 1090 b 129 1115 166 1090 146 1098 b 104 1174 113 1131 104 1150 b 129 1234 104 1198 113 1218 b 190 1258 146 1250 166 1258 b 252 1234 214 1258 235 1250 b 278 1174 269 1218 278 1198 "},"ı":{"ha":360,"x_min":0,"x_max":0,"o":"m 114 0 l 114 658 l 244 658 l 244 0 "},"Ĳ":{"ha":1053,"x_min":0,"x_max":0,"o":"m 119 0 l 119 983 l 257 983 l 257 0 m 514 219 b 563 132 521 184 538 155 b 656 97 588 109 619 97 b 728 114 685 97 709 103 b 774 159 747 125 763 140 b 797 226 785 178 793 200 b 804 307 802 251 804 278 l 804 983 l 942 983 l 942 301 b 931 193 942 267 938 231 b 889 88 923 155 909 120 b 803 7 869 55 840 28 b 663 -25 767 -14 720 -25 b 479 33 588 -25 526 -6 b 386 183 432 72 401 122 l 514 219 "},"ĳ":{"ha":715,"x_min":0,"x_max":0,"o":"m 114 0 l 114 658 l 244 658 l 244 0 m 267 896 b 241 836 267 872 258 852 b 179 813 224 820 203 813 b 118 837 155 813 135 821 b 93 896 101 853 93 873 b 118 956 93 920 101 940 b 179 981 135 972 155 981 b 241 956 203 981 224 972 b 267 896 258 940 267 920 m 325 -214 b 378 -221 344 -219 361 -221 b 425 -210 397 -221 413 -217 b 453 -180 437 -202 446 -192 b 466 -135 459 -167 464 -153 b 469 -81 468 -118 469 -100 l 469 658 l 600 658 l 600 -85 b 591 -179 600 -118 597 -150 b 558 -258 585 -209 574 -235 b 493 -313 543 -281 521 -300 b 386 -333 465 -327 430 -333 b 347 -331 374 -333 361 -332 b 311 -325 333 -329 321 -327 l 325 -214 m 622 896 b 597 836 622 872 614 852 b 535 813 579 820 559 813 b 473 837 511 813 490 821 b 447 896 456 853 447 873 b 473 956 447 920 456 940 b 535 981 490 972 511 981 b 597 956 559 981 579 972 b 622 896 614 940 622 920 "},"Ĵ":{"ha":688,"x_min":0,"x_max":0,"o":"m 149 219 b 197 132 156 184 172 155 b 290 97 222 109 253 97 b 363 114 320 97 344 103 b 408 159 382 125 397 140 b 432 226 419 178 427 200 b 439 307 437 251 439 278 l 439 983 l 576 983 l 576 301 b 565 193 576 267 573 231 b 524 88 558 155 544 120 b 438 7 503 55 475 28 b 297 -25 402 -14 355 -25 b 114 33 222 -25 161 -6 b 21 183 67 72 36 122 l 149 219 m 611 1061 l 507 1199 l 401 1061 l 276 1061 l 432 1261 l 582 1261 l 738 1061 "},"ĵ":{"ha":361,"x_min":0,"x_max":0,"o":"m -29 -214 b 24 -221 -11 -219 7 -221 b 71 -210 43 -221 59 -217 b 99 -180 83 -202 92 -192 b 112 -135 105 -167 109 -153 b 115 -81 114 -118 115 -100 l 115 658 l 246 658 l 246 -85 b 237 -179 246 -118 243 -150 b 204 -258 231 -209 220 -235 b 139 -313 188 -281 167 -300 b 32 -333 111 -327 75 -333 b -7 -331 20 -333 7 -332 b -43 -325 -21 -329 -33 -327 l -29 -214 m 282 783 l 178 921 l 72 783 l -53 783 l 103 983 l 253 983 l 408 783 "},"Ķ":{"ha":915,"x_min":0,"x_max":0,"o":"m 260 550 l 699 983 l 889 983 l 411 533 l 918 0 l 721 0 l 260 508 l 257 508 l 257 0 l 119 0 l 119 983 l 257 983 l 257 550 m 338 -326 l 426 -62 l 556 -62 l 447 -326 "},"ķ":{"ha":732,"x_min":0,"x_max":0,"o":"m 250 372 l 526 658 l 701 658 l 393 360 l 728 0 l 547 0 l 250 342 l 246 342 l 246 0 l 115 0 l 115 1050 l 246 1050 l 246 372 m 244 -326 l 333 -62 l 463 -62 l 354 -326 "},"Ĺ":{"ha":710,"x_min":0,"x_max":0,"o":"m 696 122 l 696 0 l 119 0 l 119 983 l 257 983 l 257 122 m 125 1061 l 263 1261 l 421 1261 l 231 1061 "},"ĺ":{"ha":361,"x_min":0,"x_max":0,"o":"m 115 0 l 115 1050 l 246 1050 l 246 0 m 115 1100 l 254 1300 l 411 1300 l 222 1100 "},"Ļ":{"ha":710,"x_min":0,"x_max":0,"o":"m 696 122 l 696 0 l 119 0 l 119 983 l 257 983 l 257 122 m 275 -326 l 364 -62 l 493 -62 l 385 -326 "},"ļ":{"ha":361,"x_min":0,"x_max":0,"o":"m 115 0 l 115 1050 l 246 1050 l 246 0 m 50 -326 l 139 -62 l 268 -62 l 160 -326 "},"Ľ":{"ha":710,"x_min":0,"x_max":0,"o":"m 696 122 l 696 0 l 119 0 l 119 983 l 257 983 l 257 122 m 318 719 l 407 983 l 536 983 l 428 719 "},"ľ":{"ha":361,"x_min":0,"x_max":0,"o":"m 115 0 l 115 1050 l 246 1050 l 246 0 m 294 719 l 383 983 l 513 983 l 404 719 "},"Ŀ":{"ha":710,"x_min":0,"x_max":0,"o":"m 696 122 l 696 0 l 119 0 l 119 983 l 257 983 l 257 122 m 624 465 b 598 406 624 441 615 421 b 536 382 581 390 560 382 b 475 406 512 382 492 390 b 450 465 458 422 450 442 b 475 526 450 489 458 509 b 536 550 492 542 512 550 b 598 526 560 550 581 542 b 624 465 615 509 624 489 "},"ŀ":{"ha":486,"x_min":0,"x_max":0,"o":"m 115 0 l 115 1050 l 246 1050 l 246 0 m 506 465 b 480 406 506 441 497 421 b 418 382 463 390 442 382 b 357 406 394 382 374 390 b 332 465 340 422 332 442 b 357 526 332 489 340 509 b 418 550 374 542 394 550 b 480 526 442 550 463 542 b 506 465 497 509 506 489 "},"Ł":{"ha":710,"x_min":0,"x_max":0,"o":"m 550 790 l 550 665 l 257 410 l 257 122 l 696 122 l 696 0 l 119 0 l 119 307 l 14 215 l 14 342 l 119 432 l 119 983 l 257 983 l 257 535 "},"ł":{"ha":361,"x_min":0,"x_max":0,"o":"m 349 772 l 349 647 l 244 543 l 244 0 l 115 0 l 115 436 l 11 331 l 11 458 l 115 563 l 115 1050 l 244 1050 l 244 667 "},"Ń":{"ha":1072,"x_min":0,"x_max":0,"o":"m 815 197 l 815 983 l 953 983 l 953 0 l 779 0 l 260 803 l 257 803 l 257 0 l 119 0 l 119 983 l 299 983 l 813 197 m 438 1061 l 575 1261 l 733 1261 l 543 1061 "},"ń":{"ha":808,"x_min":0,"x_max":0,"o":"m 231 658 b 235 602 232 642 234 623 b 236 550 236 581 236 564 l 240 550 b 274 599 249 568 260 584 b 324 640 289 615 305 628 b 385 667 342 651 363 660 b 454 676 407 673 430 676 b 564 655 497 676 533 669 b 640 597 594 641 620 621 b 685 513 661 573 676 545 b 700 408 695 480 700 445 l 700 0 l 569 0 l 569 365 b 563 442 569 392 567 418 b 540 506 559 466 551 487 b 494 550 529 524 514 539 b 419 567 475 561 450 567 b 292 508 368 567 325 547 b 243 350 259 468 243 416 l 243 0 l 113 0 l 113 517 b 111 585 113 534 112 557 b 107 658 110 613 109 637 l 231 658 m 324 783 l 463 983 l 619 983 l 431 783 "},"Ņ":{"ha":1072,"x_min":0,"x_max":0,"o":"m 815 197 l 815 983 l 953 983 l 953 0 l 779 0 l 260 803 l 257 803 l 257 0 l 119 0 l 119 983 l 299 983 l 813 197 m 414 -326 l 503 -62 l 632 -62 l 524 -326 "},"ņ":{"ha":808,"x_min":0,"x_max":0,"o":"m 231 658 b 235 602 232 642 234 623 b 236 550 236 581 236 564 l 240 550 b 274 599 249 568 260 584 b 324 640 289 615 305 628 b 385 667 342 651 363 660 b 454 676 407 673 430 676 b 564 655 497 676 533 669 b 640 597 594 641 620 621 b 685 513 661 573 676 545 b 700 408 695 480 700 445 l 700 0 l 569 0 l 569 365 b 563 442 569 392 567 418 b 540 506 559 466 551 487 b 494 550 529 524 514 539 b 419 567 475 561 450 567 b 292 508 368 567 325 547 b 243 350 259 468 243 416 l 243 0 l 113 0 l 113 517 b 111 585 113 534 112 557 b 107 658 110 613 109 637 l 231 658 m 275 -326 l 364 -62 l 493 -62 l 385 -326 "},"Ň":{"ha":1072,"x_min":0,"x_max":0,"o":"m 815 197 l 815 983 l 953 983 l 953 0 l 779 0 l 260 803 l 257 803 l 257 0 l 119 0 l 119 983 l 299 983 l 813 197 m 465 1061 l 311 1261 l 436 1261 l 542 1124 l 647 1261 l 769 1261 l 614 1061 "},"ň":{"ha":808,"x_min":0,"x_max":0,"o":"m 231 658 b 235 602 232 642 234 623 b 236 550 236 581 236 564 l 240 550 b 274 599 249 568 260 584 b 324 640 289 615 305 628 b 385 667 342 651 363 660 b 454 676 407 673 430 676 b 564 655 497 676 533 669 b 640 597 594 641 620 621 b 685 513 661 573 676 545 b 700 408 695 480 700 445 l 700 0 l 569 0 l 569 365 b 563 442 569 392 567 418 b 540 506 559 466 551 487 b 494 550 529 524 514 539 b 419 567 475 561 450 567 b 292 508 368 567 325 547 b 243 350 259 468 243 416 l 243 0 l 113 0 l 113 517 b 111 585 113 534 112 557 b 107 658 110 613 109 637 l 231 658 m 331 783 l 176 983 l 301 983 l 407 846 l 513 983 l 635 983 l 479 783 "},"ŉ":{"ha":836,"x_min":0,"x_max":0,"o":"m 258 658 b 263 602 260 642 262 623 b 264 550 263 581 264 564 l 268 550 b 302 599 276 568 288 584 b 351 640 316 615 333 628 b 413 667 370 651 390 660 b 482 676 435 673 458 676 b 592 655 525 676 561 669 b 668 597 622 641 648 621 b 713 513 688 573 703 545 b 728 408 723 480 728 445 l 728 0 l 597 0 l 597 365 b 591 442 597 392 595 418 b 568 506 587 466 579 487 b 522 550 557 524 542 539 b 447 567 503 561 478 567 b 320 508 395 567 353 547 b 271 350 287 468 271 416 l 271 0 l 140 0 l 140 517 b 139 585 140 534 140 557 b 135 658 138 613 137 637 l 258 658 m -17 719 l 72 983 l 201 983 l 93 719 "},"Ō":{"ha":1179,"x_min":0,"x_max":0,"o":"m 1111 493 b 1072 284 1111 417 1098 347 b 963 120 1045 221 1009 166 b 797 13 916 74 861 39 b 589 -25 733 -12 664 -25 b 381 13 514 -25 445 -12 b 217 120 318 39 263 74 b 108 284 170 166 134 221 b 69 493 82 347 69 417 b 108 703 69 570 82 640 b 217 866 134 767 170 821 b 381 971 263 911 318 946 b 589 1008 445 996 514 1008 b 797 971 664 1008 733 996 b 963 866 861 946 916 911 b 1072 703 1009 821 1045 767 b 1111 493 1098 640 1111 570 m 963 493 b 936 645 963 547 954 597 b 861 771 919 693 894 735 b 744 856 829 807 790 835 b 589 888 698 877 646 888 b 435 856 532 888 481 877 b 319 771 390 835 351 807 b 244 645 287 735 262 693 b 218 493 227 597 218 547 b 244 339 218 438 227 387 b 319 213 262 291 287 249 b 436 129 352 178 391 150 b 589 99 481 109 532 99 b 743 129 645 99 697 109 b 861 213 789 150 829 178 b 936 339 894 249 919 291 b 963 493 954 387 963 438 m 385 1107 l 385 1200 l 796 1200 l 796 1107 "},"ō":{"ha":847,"x_min":0,"x_max":0,"o":"m 779 331 b 752 190 779 280 770 233 b 677 80 734 148 709 111 b 564 8 645 49 607 25 b 424 -18 520 -9 474 -18 b 283 8 374 -18 327 -9 b 171 80 240 25 202 49 b 97 190 139 111 115 148 b 69 331 78 233 69 280 b 97 470 69 381 78 428 b 171 579 115 512 139 549 b 283 651 202 610 240 634 b 424 676 327 668 374 676 b 564 651 474 676 520 668 b 677 579 607 634 645 610 b 752 470 709 549 734 512 b 779 331 770 428 779 381 m 643 331 b 628 421 643 362 638 392 b 586 497 619 450 605 475 b 517 549 568 518 545 536 b 424 568 490 562 459 568 b 330 549 388 568 357 562 b 261 497 303 536 280 518 b 219 421 243 475 228 450 b 204 331 209 392 204 362 b 219 240 204 299 209 269 b 261 164 228 212 243 186 b 330 111 280 142 303 124 b 424 92 357 98 388 92 b 517 111 459 92 490 98 b 586 164 545 124 568 142 b 628 240 605 186 619 212 b 643 331 638 269 643 299 m 219 829 l 219 922 l 631 922 l 631 829 "},"Ŏ":{"ha":1179,"x_min":0,"x_max":0,"o":"m 1111 493 b 1072 284 1111 417 1098 347 b 963 120 1045 221 1009 166 b 797 13 916 74 861 39 b 589 -25 733 -12 664 -25 b 381 13 514 -25 445 -12 b 217 120 318 39 263 74 b 108 284 170 166 134 221 b 69 493 82 347 69 417 b 108 703 69 570 82 640 b 217 866 134 767 170 821 b 381 971 263 911 318 946 b 589 1008 445 996 514 1008 b 797 971 664 1008 733 996 b 963 866 861 946 916 911 b 1072 703 1009 821 1045 767 b 1111 493 1098 640 1111 570 m 963 493 b 936 645 963 547 954 597 b 861 771 919 693 894 735 b 744 856 829 807 790 835 b 589 888 698 877 646 888 b 435 856 532 888 481 877 b 319 771 390 835 351 807 b 244 645 287 735 262 693 b 218 493 227 597 218 547 b 244 339 218 438 227 387 b 319 213 262 291 287 249 b 436 129 352 178 391 150 b 589 99 481 109 532 99 b 743 129 645 99 697 109 b 861 213 789 150 829 178 b 936 339 894 249 919 291 b 963 493 954 387 963 438 m 810 1261 b 741 1117 804 1197 781 1149 b 589 1069 701 1085 650 1069 b 435 1117 527 1069 476 1085 b 368 1261 395 1149 373 1197 l 446 1261 b 496 1185 452 1226 469 1200 b 589 1161 523 1169 554 1161 b 683 1183 627 1161 658 1168 b 733 1261 708 1197 725 1223 l 810 1261 "},"ŏ":{"ha":847,"x_min":0,"x_max":0,"o":"m 779 331 b 752 190 779 280 770 233 b 677 80 734 148 709 111 b 564 8 645 49 607 25 b 424 -18 520 -9 474 -18 b 283 8 374 -18 327 -9 b 171 80 240 25 202 49 b 97 190 139 111 115 148 b 69 331 78 233 69 280 b 97 470 69 381 78 428 b 171 579 115 512 139 549 b 283 651 202 610 240 634 b 424 676 327 668 374 676 b 564 651 474 676 520 668 b 677 579 607 634 645 610 b 752 470 709 549 734 512 b 779 331 770 428 779 381 m 643 331 b 628 421 643 362 638 392 b 586 497 619 450 605 475 b 517 549 568 518 545 536 b 424 568 490 562 459 568 b 330 549 388 568 357 562 b 261 497 303 536 280 518 b 219 421 243 475 228 450 b 204 331 209 392 204 362 b 219 240 204 299 209 269 b 261 164 228 212 243 186 b 330 111 280 142 303 124 b 424 92 357 98 388 92 b 517 111 459 92 490 98 b 586 164 545 124 568 142 b 628 240 605 186 619 212 b 643 331 638 269 643 299 m 646 983 b 577 840 640 919 617 872 b 425 792 537 808 486 792 b 272 840 363 792 312 808 b 204 983 231 872 209 919 l 282 983 b 332 907 288 948 305 923 b 425 883 359 891 390 883 b 519 905 463 883 494 891 b 569 983 544 919 561 945 l 646 983 "},"Ő":{"ha":1179,"x_min":0,"x_max":0,"o":"m 1111 493 b 1072 284 1111 417 1098 347 b 963 120 1045 221 1009 166 b 797 13 916 74 861 39 b 589 -25 733 -12 664 -25 b 381 13 514 -25 445 -12 b 217 120 318 39 263 74 b 108 284 170 166 134 221 b 69 493 82 347 69 417 b 108 703 69 570 82 640 b 217 866 134 767 170 821 b 381 971 263 911 318 946 b 589 1008 445 996 514 1008 b 797 971 664 1008 733 996 b 963 866 861 946 916 911 b 1072 703 1009 821 1045 767 b 1111 493 1098 640 1111 570 m 963 493 b 936 645 963 547 954 597 b 861 771 919 693 894 735 b 744 856 829 807 790 835 b 589 888 698 877 646 888 b 435 856 532 888 481 877 b 319 771 390 835 351 807 b 244 645 287 735 262 693 b 218 493 227 597 218 547 b 244 339 218 438 227 387 b 319 213 262 291 287 249 b 436 129 352 178 391 150 b 589 99 481 109 532 99 b 743 129 645 99 697 109 b 861 213 789 150 829 178 b 936 339 894 249 919 291 b 963 493 954 387 963 438 m 397 1061 l 536 1261 l 694 1261 l 504 1061 m 651 1061 l 790 1261 l 947 1261 l 758 1061 "},"ő":{"ha":847,"x_min":0,"x_max":0,"o":"m 779 331 b 752 190 779 280 770 233 b 677 80 734 148 709 111 b 564 8 645 49 607 25 b 424 -18 520 -9 474 -18 b 283 8 374 -18 327 -9 b 171 80 240 25 202 49 b 97 190 139 111 115 148 b 69 331 78 233 69 280 b 97 470 69 381 78 428 b 171 579 115 512 139 549 b 283 651 202 610 240 634 b 424 676 327 668 374 676 b 564 651 474 676 520 668 b 677 579 607 634 645 610 b 752 470 709 549 734 512 b 779 331 770 428 779 381 m 643 331 b 628 421 643 362 638 392 b 586 497 619 450 605 475 b 517 549 568 518 545 536 b 424 568 490 562 459 568 b 330 549 388 568 357 562 b 261 497 303 536 280 518 b 219 421 243 475 228 450 b 204 331 209 392 204 362 b 219 240 204 299 209 269 b 261 164 228 212 243 186 b 330 111 280 142 303 124 b 424 92 357 98 388 92 b 517 111 459 92 490 98 b 586 164 545 124 568 142 b 628 240 605 186 619 212 b 643 331 638 269 643 299 m 239 783 l 378 983 l 536 983 l 346 783 m 493 783 l 632 983 l 789 983 l 600 783 "},"Ŕ":{"ha":853,"x_min":0,"x_max":0,"o":"m 119 0 l 119 983 l 435 983 b 569 969 482 983 527 978 b 681 922 612 959 649 944 b 757 838 713 901 738 873 b 785 711 775 803 785 761 b 718 536 785 639 763 581 b 546 451 674 492 616 463 l 821 0 l 654 0 l 404 438 l 257 438 l 257 0 m 415 553 b 506 561 448 553 478 556 b 578 588 533 567 558 576 b 628 637 599 601 616 617 b 646 711 640 657 646 681 b 628 785 646 741 640 766 b 580 833 616 805 600 821 b 510 859 560 845 537 854 b 425 867 483 864 455 867 l 257 867 l 257 553 m 308 1061 l 446 1261 l 604 1261 l 414 1061 "},"ŕ":{"ha":503,"x_min":0,"x_max":0,"o":"m 113 517 b 111 585 113 534 112 557 b 107 658 110 613 109 637 l 231 658 b 235 601 232 642 234 622 b 236 547 236 579 236 561 l 240 547 b 322 641 259 586 286 617 b 442 676 357 665 397 676 b 493 671 462 676 479 675 l 488 550 b 428 557 469 555 449 557 b 346 540 396 557 369 551 b 288 493 323 528 303 513 b 254 426 273 474 262 451 b 243 346 247 400 243 374 l 243 0 l 113 0 l 113 517 m 144 783 l 283 983 l 440 983 l 251 783 "},"Ŗ":{"ha":853,"x_min":0,"x_max":0,"o":"m 119 0 l 119 983 l 435 983 b 569 969 482 983 527 978 b 681 922 612 959 649 944 b 757 838 713 901 738 873 b 785 711 775 803 785 761 b 718 536 785 639 763 581 b 546 451 674 492 616 463 l 821 0 l 654 0 l 404 438 l 257 438 l 257 0 m 415 553 b 506 561 448 553 478 556 b 578 588 533 567 558 576 b 628 637 599 601 616 617 b 646 711 640 657 646 681 b 628 785 646 741 640 766 b 580 833 616 805 600 821 b 510 859 560 845 537 854 b 425 867 483 864 455 867 l 257 867 l 257 553 m 308 -326 l 397 -62 l 526 -62 l 418 -326 "},"ŗ":{"ha":503,"x_min":0,"x_max":0,"o":"m 113 517 b 111 585 113 534 112 557 b 107 658 110 613 109 637 l 231 658 b 235 601 232 642 234 622 b 236 547 236 579 236 561 l 240 547 b 322 641 259 586 286 617 b 442 676 357 665 397 676 b 493 671 462 676 479 675 l 488 550 b 428 557 469 555 449 557 b 346 540 396 557 369 551 b 288 493 323 528 303 513 b 254 426 273 474 262 451 b 243 346 247 400 243 374 l 243 0 l 113 0 l 113 517 m 49 -326 l 138 -62 l 267 -62 l 158 -326 "},"Ř":{"ha":853,"x_min":0,"x_max":0,"o":"m 119 0 l 119 983 l 435 983 b 569 969 482 983 527 978 b 681 922 612 959 649 944 b 757 838 713 901 738 873 b 785 711 775 803 785 761 b 718 536 785 639 763 581 b 546 451 674 492 616 463 l 821 0 l 654 0 l 404 438 l 257 438 l 257 0 m 415 553 b 506 561 448 553 478 556 b 578 588 533 567 558 576 b 628 637 599 601 616 617 b 646 711 640 657 646 681 b 628 785 646 741 640 766 b 580 833 616 805 600 821 b 510 859 560 845 537 854 b 425 867 483 864 455 867 l 257 867 l 257 553 m 333 1061 l 179 1261 l 304 1261 l 410 1124 l 515 1261 l 638 1261 l 482 1061 "},"ř":{"ha":503,"x_min":0,"x_max":0,"o":"m 113 517 b 111 585 113 534 112 557 b 107 658 110 613 109 637 l 231 658 b 235 601 232 642 234 622 b 236 547 236 579 236 561 l 240 547 b 322 641 259 586 286 617 b 442 676 357 665 397 676 b 493 671 462 676 479 675 l 488 550 b 428 557 469 555 449 557 b 346 540 396 557 369 551 b 288 493 323 528 303 513 b 254 426 273 474 262 451 b 243 346 247 400 243 374 l 243 0 l 113 0 l 113 517 m 221 783 l 67 983 l 192 983 l 297 846 l 403 983 l 525 983 l 369 783 "},"Ś":{"ha":790,"x_min":0,"x_max":0,"o":"m 608 801 b 529 867 589 828 563 850 b 417 893 496 884 458 893 b 349 884 394 893 372 890 b 288 855 327 878 306 868 b 242 805 269 841 254 825 b 225 733 231 785 225 761 b 241 666 225 706 230 684 b 284 620 252 648 266 633 b 348 588 302 608 323 597 b 426 561 372 579 399 570 b 528 526 460 551 494 539 b 621 475 562 513 593 496 b 689 395 649 454 671 427 b 715 274 706 363 715 323 b 687 141 715 223 706 178 b 611 48 668 103 643 72 b 502 -7 580 23 543 5 b 375 -25 461 -19 419 -25 b 195 11 313 -25 253 -13 b 51 118 137 35 89 71 l 158 208 b 251 125 181 174 213 146 b 378 93 290 104 332 93 b 447 103 401 93 424 96 b 510 133 470 109 491 119 b 557 185 529 147 545 165 b 575 261 569 206 575 231 b 556 335 575 291 569 316 b 506 386 544 355 527 372 b 431 422 484 400 459 412 b 342 451 403 431 373 441 b 249 485 310 461 279 472 b 167 537 218 499 191 516 b 108 614 143 558 123 583 b 86 728 94 644 86 682 b 116 854 86 777 96 819 b 194 942 136 889 162 919 b 302 992 226 965 262 982 b 424 1008 342 1003 383 1008 b 585 978 481 1008 535 998 b 706 896 635 957 675 930 l 608 801 m 319 1061 l 457 1261 l 615 1261 l 425 1061 "},"ś":{"ha":617,"x_min":0,"x_max":0,"o":"m 468 492 b 406 551 453 516 432 535 b 315 574 379 566 349 574 b 271 569 300 574 286 572 b 231 553 256 566 243 560 b 203 527 220 547 210 538 b 193 488 197 516 193 503 b 231 426 193 460 206 439 b 343 389 256 412 293 400 b 431 363 375 381 404 373 b 501 324 457 352 481 340 b 547 269 521 309 536 291 b 564 194 558 248 564 223 b 542 96 564 156 556 123 b 483 30 527 69 507 47 b 399 -7 458 13 430 0 b 301 -18 367 -14 335 -18 b 155 11 251 -18 203 -8 b 36 100 107 31 68 60 l 129 179 b 202 114 147 153 171 131 b 304 88 233 96 267 88 b 352 92 321 88 337 89 b 394 108 367 96 381 101 b 424 138 406 116 416 125 b 435 183 431 150 435 165 b 391 251 435 214 420 237 b 263 293 362 266 319 280 b 195 313 240 299 218 305 b 133 346 172 321 152 332 b 88 398 115 360 100 377 b 71 475 77 419 71 444 b 92 566 71 510 78 541 b 149 628 107 591 125 612 b 228 665 172 645 198 657 b 319 676 257 672 288 676 b 456 649 367 676 412 667 b 558 568 500 630 534 603 l 468 492 m 221 783 l 360 983 l 517 983 l 328 783 "},"Ŝ":{"ha":790,"x_min":0,"x_max":0,"o":"m 608 801 b 529 867 589 828 563 850 b 417 893 496 884 458 893 b 349 884 394 893 372 890 b 288 855 327 878 306 868 b 242 805 269 841 254 825 b 225 733 231 785 225 761 b 241 666 225 706 230 684 b 284 620 252 648 266 633 b 348 588 302 608 323 597 b 426 561 372 579 399 570 b 528 526 460 551 494 539 b 621 475 562 513 593 496 b 689 395 649 454 671 427 b 715 274 706 363 715 323 b 687 141 715 223 706 178 b 611 48 668 103 643 72 b 502 -7 580 23 543 5 b 375 -25 461 -19 419 -25 b 195 11 313 -25 253 -13 b 51 118 137 35 89 71 l 158 208 b 251 125 181 174 213 146 b 378 93 290 104 332 93 b 447 103 401 93 424 96 b 510 133 470 109 491 119 b 557 185 529 147 545 165 b 575 261 569 206 575 231 b 556 335 575 291 569 316 b 506 386 544 355 527 372 b 431 422 484 400 459 412 b 342 451 403 431 373 441 b 249 485 310 461 279 472 b 167 537 218 499 191 516 b 108 614 143 558 123 583 b 86 728 94 644 86 682 b 116 854 86 777 96 819 b 194 942 136 889 162 919 b 302 992 226 965 262 982 b 424 1008 342 1003 383 1008 b 585 978 481 1008 535 998 b 706 896 635 957 675 930 l 608 801 m 525 1061 l 421 1199 l 315 1061 l 190 1061 l 346 1261 l 496 1261 l 651 1061 "},"ŝ":{"ha":617,"x_min":0,"x_max":0,"o":"m 468 492 b 406 551 453 516 432 535 b 315 574 379 566 349 574 b 271 569 300 574 286 572 b 231 553 256 566 243 560 b 203 527 220 547 210 538 b 193 488 197 516 193 503 b 231 426 193 460 206 439 b 343 389 256 412 293 400 b 431 363 375 381 404 373 b 501 324 457 352 481 340 b 547 269 521 309 536 291 b 564 194 558 248 564 223 b 542 96 564 156 556 123 b 483 30 527 69 507 47 b 399 -7 458 13 430 0 b 301 -18 367 -14 335 -18 b 155 11 251 -18 203 -8 b 36 100 107 31 68 60 l 129 179 b 202 114 147 153 171 131 b 304 88 233 96 267 88 b 352 92 321 88 337 89 b 394 108 367 96 381 101 b 424 138 406 116 416 125 b 435 183 431 150 435 165 b 391 251 435 214 420 237 b 263 293 362 266 319 280 b 195 313 240 299 218 305 b 133 346 172 321 152 332 b 88 398 115 360 100 377 b 71 475 77 419 71 444 b 92 566 71 510 78 541 b 149 628 107 591 125 612 b 228 665 172 645 198 657 b 319 676 257 672 288 676 b 456 649 367 676 412 667 b 558 568 500 630 534 603 l 468 492 m 428 783 l 324 921 l 218 783 l 93 783 l 249 983 l 399 983 l 554 783 "},"Ş":{"ha":790,"x_min":0,"x_max":0,"o":"m 608 801 b 529 867 589 828 563 850 b 417 893 496 884 458 893 b 349 884 394 893 372 890 b 288 855 327 878 306 868 b 242 805 269 841 254 825 b 225 733 231 785 225 761 b 241 666 225 706 230 684 b 284 620 252 648 266 633 b 348 588 302 608 323 597 b 426 561 372 579 399 570 b 528 526 460 551 494 539 b 621 475 562 513 593 496 b 689 395 649 454 671 427 b 715 274 706 363 715 323 b 692 152 715 227 708 187 b 630 64 677 117 656 88 b 539 6 603 40 573 21 b 429 -22 505 -8 468 -18 l 381 -96 b 399 -93 387 -94 393 -93 l 418 -93 b 465 -99 434 -93 449 -95 b 506 -117 480 -102 494 -108 b 537 -150 519 -125 529 -136 b 549 -201 545 -164 549 -181 b 532 -262 549 -225 543 -246 b 490 -301 521 -278 507 -291 b 433 -321 472 -310 453 -317 b 372 -326 412 -325 392 -326 b 297 -318 348 -326 323 -324 b 229 -294 271 -312 249 -305 l 257 -236 b 364 -260 291 -252 327 -260 b 390 -257 371 -260 380 -259 b 417 -248 399 -255 409 -252 b 440 -231 426 -244 434 -238 b 449 -201 446 -223 449 -213 b 425 -160 449 -181 441 -167 b 374 -149 409 -152 392 -149 b 346 -151 365 -149 356 -150 b 317 -158 336 -153 326 -156 l 289 -131 l 358 -25 b 187 14 299 -23 242 -10 b 51 118 132 38 87 73 l 158 208 b 251 125 181 174 213 146 b 378 93 290 104 332 93 b 447 103 401 93 424 96 b 510 133 470 109 491 119 b 557 185 529 147 545 165 b 575 261 569 206 575 231 b 556 335 575 291 569 316 b 506 386 544 355 527 372 b 431 422 484 400 459 412 b 342 451 403 431 373 441 b 249 485 310 461 279 472 b 167 537 218 499 191 516 b 108 614 143 558 123 583 b 86 728 94 644 86 682 b 116 854 86 777 96 819 b 194 942 136 889 162 919 b 302 992 226 965 262 982 b 424 1008 342 1003 383 1008 b 585 978 481 1008 535 998 b 706 896 635 957 675 930 l 608 801 "},"ş":{"ha":617,"x_min":0,"x_max":0,"o":"m 468 492 b 406 551 453 516 432 535 b 315 574 379 566 349 574 b 271 569 300 574 286 572 b 231 553 256 566 243 560 b 203 527 220 547 210 538 b 193 488 197 516 193 503 b 231 426 193 460 206 439 b 343 389 256 412 293 400 b 431 363 375 381 404 373 b 501 324 457 352 481 340 b 547 269 521 309 536 291 b 564 194 558 248 564 223 b 545 103 564 159 558 129 b 495 40 533 78 516 57 b 422 1 474 22 450 9 b 336 -17 394 -8 366 -14 l 283 -96 b 301 -93 290 -94 296 -93 l 321 -93 b 367 -99 337 -93 352 -95 b 409 -117 383 -102 397 -108 b 440 -150 422 -125 432 -136 b 451 -201 447 -164 451 -181 b 435 -262 451 -225 446 -246 b 392 -301 424 -278 409 -291 b 335 -321 375 -310 356 -317 b 275 -326 315 -325 294 -326 b 200 -318 251 -326 226 -324 b 132 -294 174 -312 151 -305 l 160 -236 b 267 -260 194 -252 230 -260 b 292 -257 274 -260 283 -259 b 320 -248 302 -255 311 -252 b 342 -231 329 -244 336 -238 b 351 -201 348 -223 351 -213 b 328 -160 351 -181 344 -167 b 276 -149 312 -152 295 -149 b 249 -151 268 -149 259 -150 b 219 -158 238 -153 229 -156 l 192 -131 l 267 -15 b 139 19 222 -12 180 0 b 36 100 98 38 64 65 l 129 179 b 202 114 147 153 171 131 b 304 88 233 96 267 88 b 352 92 321 88 337 89 b 394 108 367 96 381 101 b 424 138 406 116 416 125 b 435 183 431 150 435 165 b 391 251 435 214 420 237 b 263 293 362 266 319 280 b 195 313 240 299 218 305 b 133 346 172 321 152 332 b 88 398 115 360 100 377 b 71 475 77 419 71 444 b 92 566 71 510 78 541 b 149 628 107 591 125 612 b 228 665 172 645 198 657 b 319 676 257 672 288 676 b 456 649 367 676 412 667 b 558 568 500 630 534 603 l 468 492 "},"Ţ":{"ha":790,"x_min":0,"x_max":0,"o":"m 326 0 l 326 863 l 11 863 l 11 983 l 779 983 l 779 863 l 464 863 l 464 0 m 372 -96 b 390 -93 379 -94 385 -93 l 410 -93 b 456 -99 425 -93 441 -95 b 498 -117 472 -102 485 -108 b 528 -150 510 -125 521 -136 b 540 -201 536 -164 540 -181 b 524 -262 540 -225 535 -246 b 481 -301 513 -278 498 -291 b 424 -321 464 -310 445 -317 b 364 -326 403 -325 383 -326 b 289 -318 340 -326 315 -324 b 221 -294 263 -312 240 -305 l 249 -236 b 356 -260 283 -252 319 -260 b 381 -257 363 -260 372 -259 b 409 -248 391 -255 400 -252 b 431 -231 418 -244 425 -238 b 440 -201 437 -223 440 -213 b 417 -160 440 -181 432 -167 b 365 -149 401 -152 384 -149 b 338 -151 357 -149 348 -150 b 308 -158 327 -153 318 -156 l 281 -131 l 367 0 l 436 0 l 372 -96 "},"ţ":{"ha":457,"x_min":0,"x_max":0,"o":"m 260 551 l 260 208 b 282 123 260 169 267 140 b 353 97 297 106 320 97 b 392 101 365 97 378 99 b 429 114 406 104 418 108 l 433 7 b 381 -6 418 1 400 -3 b 322 -11 362 -9 343 -11 b 180 40 260 -11 213 6 b 131 194 147 75 131 126 l 131 551 l 4 551 l 4 658 l 131 658 l 131 847 l 260 847 l 260 658 l 435 658 l 435 551 m 296 -96 b 314 -93 302 -94 308 -93 l 333 -93 b 380 -99 349 -93 365 -95 b 422 -117 395 -102 409 -108 b 452 -150 434 -125 444 -136 b 464 -201 460 -164 464 -181 b 447 -262 464 -225 458 -246 b 405 -301 436 -278 422 -291 b 348 -321 388 -310 369 -317 b 288 -326 327 -325 307 -326 b 213 -318 263 -326 238 -324 b 144 -294 187 -312 164 -305 l 172 -236 b 279 -260 206 -252 242 -260 b 305 -257 287 -260 295 -259 b 333 -248 315 -255 324 -252 b 355 -231 341 -244 349 -238 b 364 -201 361 -223 364 -213 b 340 -160 364 -181 356 -167 b 289 -149 325 -152 307 -149 b 261 -151 281 -149 271 -150 b 232 -158 251 -153 241 -156 l 204 -131 l 290 0 l 360 0 l 296 -96 "},"Ť":{"ha":790,"x_min":0,"x_max":0,"o":"m 326 0 l 326 863 l 11 863 l 11 983 l 779 983 l 779 863 l 464 863 l 464 0 m 318 1061 l 164 1261 l 289 1261 l 394 1124 l 500 1261 l 622 1261 l 467 1061 "},"ť":{"ha":457,"x_min":0,"x_max":0,"o":"m 260 551 l 260 208 b 282 123 260 169 267 140 b 353 97 297 106 320 97 b 392 101 365 97 378 99 b 429 114 406 104 418 108 l 433 7 b 381 -6 418 1 400 -3 b 322 -11 362 -9 343 -11 b 180 40 260 -11 213 6 b 131 194 147 75 131 126 l 131 551 l 4 551 l 4 658 l 131 658 l 131 847 l 260 847 l 260 658 l 435 658 l 435 551 m 303 751 l 392 1015 l 521 1015 l 413 751 "},"Ŧ":{"ha":790,"x_min":0,"x_max":0,"o":"m 326 863 l 11 863 l 11 983 l 779 983 l 779 863 l 464 863 l 464 729 l 690 729 l 690 642 l 464 642 l 464 0 l 326 0 l 326 642 l 100 642 l 100 729 l 326 729 "},"ŧ":{"ha":457,"x_min":0,"x_max":0,"o":"m 131 551 l 4 551 l 4 658 l 131 658 l 131 847 l 260 847 l 260 658 l 435 658 l 435 551 l 260 551 l 260 422 l 415 422 l 415 335 l 260 335 l 260 208 b 282 123 260 169 267 140 b 353 97 297 106 320 97 b 392 101 365 97 378 99 b 429 114 406 104 418 108 l 433 7 b 381 -6 418 1 400 -3 b 322 -11 362 -9 343 -11 b 180 40 260 -11 213 6 b 131 194 147 75 131 126 l 131 335 l 17 335 l 17 422 l 131 422 "},"Ũ":{"ha":989,"x_min":0,"x_max":0,"o":"m 494 -25 b 325 8 430 -25 373 -14 b 206 94 277 29 237 58 b 135 219 174 131 151 172 b 113 364 120 266 113 314 l 113 983 l 250 983 l 250 372 b 263 273 250 339 254 306 b 303 185 271 240 284 211 b 378 122 322 159 347 138 b 494 99 409 106 448 99 b 610 122 540 99 578 106 b 685 185 641 138 666 159 b 726 273 704 211 718 240 b 739 372 735 306 739 339 l 739 983 l 876 983 l 876 364 b 853 219 876 314 869 266 b 783 94 838 172 815 131 b 664 8 752 58 712 29 b 494 -25 616 -14 559 -25 m 249 1072 b 263 1131 252 1093 257 1112 b 289 1183 269 1150 278 1167 b 330 1219 300 1198 314 1210 b 390 1233 346 1229 366 1233 b 444 1225 408 1233 426 1231 b 494 1206 462 1219 479 1213 b 545 1184 513 1197 530 1190 b 588 1175 560 1178 575 1175 b 633 1195 608 1175 623 1182 b 654 1239 642 1209 650 1223 l 729 1239 b 715 1180 725 1219 721 1199 b 689 1128 709 1161 700 1144 b 647 1092 678 1113 664 1101 b 588 1078 631 1082 611 1078 b 533 1087 570 1078 552 1081 b 481 1107 515 1093 497 1100 b 433 1128 464 1115 448 1122 b 390 1136 417 1133 403 1136 b 347 1116 371 1136 356 1129 b 325 1072 337 1103 330 1088 l 249 1072 "},"ũ":{"ha":808,"x_min":0,"x_max":0,"o":"m 576 0 b 572 56 575 17 573 35 b 571 108 571 77 571 94 l 568 108 b 484 19 551 73 523 43 b 353 -18 445 -6 401 -18 b 242 3 310 -18 273 -11 b 166 60 211 17 186 36 b 122 146 146 85 131 113 b 107 250 112 178 107 213 l 107 658 l 238 658 l 238 294 b 244 217 238 268 240 242 b 267 153 248 193 256 171 b 313 108 278 134 293 119 b 388 92 332 97 357 92 b 515 151 440 92 483 111 b 564 308 548 190 564 243 l 564 658 l 694 658 l 694 142 b 696 74 694 124 695 101 b 700 0 697 46 698 21 l 576 0 m 161 794 b 176 853 165 815 170 834 b 201 905 182 872 190 890 b 242 942 213 920 226 932 b 303 956 259 951 279 956 b 356 947 320 956 338 953 b 407 928 374 942 391 935 b 458 906 425 919 442 912 b 500 897 473 900 487 897 b 545 917 520 897 535 904 b 567 961 555 931 562 945 l 642 961 b 627 902 638 941 633 921 b 601 851 621 883 613 866 b 560 814 590 835 576 823 b 500 800 543 805 523 800 b 446 809 482 800 464 803 b 393 829 427 815 410 822 b 345 850 376 838 360 844 b 303 858 330 856 316 858 b 259 838 283 858 269 852 b 238 794 249 825 242 810 l 161 794 "},"Ū":{"ha":989,"x_min":0,"x_max":0,"o":"m 494 -25 b 325 8 430 -25 373 -14 b 206 94 277 29 237 58 b 135 219 174 131 151 172 b 113 364 120 266 113 314 l 113 983 l 250 983 l 250 372 b 263 273 250 339 254 306 b 303 185 271 240 284 211 b 378 122 322 159 347 138 b 494 99 409 106 448 99 b 610 122 540 99 578 106 b 685 185 641 138 666 159 b 726 273 704 211 718 240 b 739 372 735 306 739 339 l 739 983 l 876 983 l 876 364 b 853 219 876 314 869 266 b 783 94 838 172 815 131 b 664 8 752 58 712 29 b 494 -25 616 -14 559 -25 m 283 1107 l 283 1200 l 694 1200 l 694 1107 "},"ū":{"ha":808,"x_min":0,"x_max":0,"o":"m 576 0 b 572 56 575 17 573 35 b 571 108 571 77 571 94 l 568 108 b 484 19 551 73 523 43 b 353 -18 445 -6 401 -18 b 242 3 310 -18 273 -11 b 166 60 211 17 186 36 b 122 146 146 85 131 113 b 107 250 112 178 107 213 l 107 658 l 238 658 l 238 294 b 244 217 238 268 240 242 b 267 153 248 193 256 171 b 313 108 278 134 293 119 b 388 92 332 97 357 92 b 515 151 440 92 483 111 b 564 308 548 190 564 243 l 564 658 l 694 658 l 694 142 b 696 74 694 124 695 101 b 700 0 697 46 698 21 l 576 0 m 196 829 l 196 922 l 607 922 l 607 829 "},"Ŭ":{"ha":989,"x_min":0,"x_max":0,"o":"m 494 -25 b 325 8 430 -25 373 -14 b 206 94 277 29 237 58 b 135 219 174 131 151 172 b 113 364 120 266 113 314 l 113 983 l 250 983 l 250 372 b 263 273 250 339 254 306 b 303 185 271 240 284 211 b 378 122 322 159 347 138 b 494 99 409 106 448 99 b 610 122 540 99 578 106 b 685 185 641 138 666 159 b 726 273 704 211 718 240 b 739 372 735 306 739 339 l 739 983 l 876 983 l 876 364 b 853 219 876 314 869 266 b 783 94 838 172 815 131 b 664 8 752 58 712 29 b 494 -25 616 -14 559 -25 m 717 1261 b 648 1117 711 1197 688 1149 b 496 1069 608 1085 557 1069 b 342 1117 434 1069 383 1085 b 275 1261 302 1149 280 1197 l 353 1261 b 403 1185 359 1226 376 1200 b 496 1161 430 1169 461 1161 b 590 1183 534 1161 565 1168 b 640 1261 615 1197 632 1223 l 717 1261 "},"ŭ":{"ha":808,"x_min":0,"x_max":0,"o":"m 576 0 b 572 56 575 17 573 35 b 571 108 571 77 571 94 l 568 108 b 484 19 551 73 523 43 b 353 -18 445 -6 401 -18 b 242 3 310 -18 273 -11 b 166 60 211 17 186 36 b 122 146 146 85 131 113 b 107 250 112 178 107 213 l 107 658 l 238 658 l 238 294 b 244 217 238 268 240 242 b 267 153 248 193 256 171 b 313 108 278 134 293 119 b 388 92 332 97 357 92 b 515 151 440 92 483 111 b 564 308 548 190 564 243 l 564 658 l 694 658 l 694 142 b 696 74 694 124 695 101 b 700 0 697 46 698 21 l 576 0 m 624 983 b 555 840 618 919 595 872 b 403 792 515 808 464 792 b 249 840 341 792 290 808 b 182 983 209 872 187 919 l 260 983 b 310 907 266 948 283 923 b 403 883 337 891 368 883 b 497 905 441 883 472 891 b 547 983 522 919 539 945 l 624 983 "},"Ů":{"ha":989,"x_min":0,"x_max":0,"o":"m 494 -25 b 325 8 430 -25 373 -14 b 206 94 277 29 237 58 b 135 219 174 131 151 172 b 113 364 120 266 113 314 l 113 983 l 250 983 l 250 372 b 263 273 250 339 254 306 b 303 185 271 240 284 211 b 378 122 322 159 347 138 b 494 99 409 106 448 99 b 610 122 540 99 578 106 b 685 185 641 138 666 159 b 726 273 704 211 718 240 b 739 372 735 306 739 339 l 739 983 l 876 983 l 876 364 b 853 219 876 314 869 266 b 783 94 838 172 815 131 b 664 8 752 58 712 29 b 494 -25 616 -14 559 -25 m 629 1185 b 588 1086 629 1145 616 1112 b 489 1047 561 1060 528 1047 b 435 1058 469 1047 451 1051 b 391 1086 418 1065 403 1074 b 361 1129 378 1098 369 1113 b 350 1183 354 1146 350 1164 b 390 1282 350 1223 363 1256 b 489 1321 417 1308 450 1321 b 588 1282 528 1321 561 1308 b 629 1185 616 1256 629 1224 m 572 1185 b 548 1242 572 1208 564 1227 b 489 1265 532 1258 512 1265 b 431 1242 466 1265 446 1257 b 407 1183 415 1226 407 1206 b 431 1127 407 1161 415 1142 b 489 1104 446 1112 466 1104 b 548 1127 512 1104 532 1112 b 572 1185 564 1142 572 1162 "},"ů":{"ha":808,"x_min":0,"x_max":0,"o":"m 576 0 b 572 56 575 17 573 35 b 571 108 571 77 571 94 l 568 108 b 484 19 551 73 523 43 b 353 -18 445 -6 401 -18 b 242 3 310 -18 273 -11 b 166 60 211 17 186 36 b 122 146 146 85 131 113 b 107 250 112 178 107 213 l 107 658 l 238 658 l 238 294 b 244 217 238 268 240 242 b 267 153 248 193 256 171 b 313 108 278 134 293 119 b 388 92 332 97 357 92 b 515 151 440 92 483 111 b 564 308 548 190 564 243 l 564 658 l 694 658 l 694 142 b 696 74 694 124 695 101 b 700 0 697 46 698 21 l 576 0 m 540 907 b 499 808 540 867 527 834 b 400 769 472 782 439 769 b 346 780 381 769 363 773 b 302 808 329 787 315 796 b 272 851 290 820 280 835 b 261 906 265 868 261 886 b 301 1004 261 945 275 978 b 400 1043 328 1030 361 1043 b 499 1004 439 1043 472 1030 b 540 907 527 978 540 946 m 482 907 b 458 963 482 929 474 948 b 400 985 441 977 422 985 b 344 963 379 985 360 977 b 319 907 328 948 319 929 b 344 851 319 885 328 866 b 400 828 360 835 379 828 b 458 850 422 828 441 835 b 482 907 474 865 482 884 "},"Ű":{"ha":989,"x_min":0,"x_max":0,"o":"m 494 -25 b 325 8 430 -25 373 -14 b 206 94 277 29 237 58 b 135 219 174 131 151 172 b 113 364 120 266 113 314 l 113 983 l 250 983 l 250 372 b 263 273 250 339 254 306 b 303 185 271 240 284 211 b 378 122 322 159 347 138 b 494 99 409 106 448 99 b 610 122 540 99 578 106 b 685 185 641 138 666 159 b 726 273 704 211 718 240 b 739 372 735 306 739 339 l 739 983 l 876 983 l 876 364 b 853 219 876 314 869 266 b 783 94 838 172 815 131 b 664 8 752 58 712 29 b 494 -25 616 -14 559 -25 m 297 1061 l 436 1261 l 594 1261 l 404 1061 m 551 1061 l 690 1261 l 847 1261 l 658 1061 "},"ű":{"ha":808,"x_min":0,"x_max":0,"o":"m 576 0 b 572 56 575 17 573 35 b 571 108 571 77 571 94 l 568 108 b 484 19 551 73 523 43 b 353 -18 445 -6 401 -18 b 242 3 310 -18 273 -11 b 166 60 211 17 186 36 b 122 146 146 85 131 113 b 107 250 112 178 107 213 l 107 658 l 238 658 l 238 294 b 244 217 238 268 240 242 b 267 153 248 193 256 171 b 313 108 278 134 293 119 b 388 92 332 97 357 92 b 515 151 440 92 483 111 b 564 308 548 190 564 243 l 564 658 l 694 658 l 694 142 b 696 74 694 124 695 101 b 700 0 697 46 698 21 l 576 0 m 214 783 l 353 983 l 511 983 l 321 783 m 468 783 l 607 983 l 764 983 l 575 783 "},"Ų":{"ha":989,"x_min":0,"x_max":0,"o":"m 653 -262 b 591 -300 634 -278 614 -291 b 521 -314 568 -309 545 -314 b 470 -306 503 -314 486 -311 b 427 -282 454 -300 440 -292 b 397 -244 415 -272 405 -259 b 386 -193 390 -228 386 -212 b 415 -102 386 -162 396 -131 b 479 -24 434 -73 455 -47 b 316 12 416 -22 362 -10 b 202 98 270 34 232 62 b 135 220 172 134 150 174 b 113 364 120 266 113 314 l 113 983 l 250 983 l 250 372 b 263 273 250 339 254 306 b 303 185 271 240 284 211 b 378 122 322 159 347 138 b 494 99 409 106 448 99 b 610 122 540 99 578 106 b 685 185 641 138 666 159 b 726 273 704 211 718 240 b 739 372 735 306 739 339 l 739 983 l 876 983 l 876 364 b 858 231 876 319 870 274 b 800 115 845 188 826 149 b 702 27 774 80 741 51 b 564 -19 663 3 617 -12 b 507 -92 543 -43 524 -67 b 482 -165 490 -117 482 -141 b 501 -212 482 -184 488 -199 b 549 -231 514 -224 530 -231 b 588 -222 562 -231 575 -228 b 622 -200 600 -217 612 -209 l 653 -262 "},"ų":{"ha":808,"x_min":0,"x_max":0,"o":"m 710 -262 b 648 -300 691 -278 671 -291 b 578 -314 625 -309 602 -314 b 527 -306 560 -314 543 -311 b 484 -282 511 -300 497 -292 b 454 -244 472 -272 462 -259 b 443 -193 447 -228 443 -212 b 456 -135 443 -174 447 -154 b 488 -80 464 -115 475 -97 b 530 -31 500 -63 515 -47 b 575 8 545 -16 560 -3 b 572 60 573 24 572 41 b 571 108 571 79 571 95 l 568 108 b 484 19 551 73 523 43 b 353 -18 445 -6 401 -18 b 242 3 310 -18 273 -11 b 166 60 211 17 186 36 b 122 146 146 85 131 113 b 107 250 112 178 107 213 l 107 658 l 238 658 l 238 294 b 244 217 238 268 240 242 b 267 153 248 193 256 171 b 313 108 278 134 293 119 b 388 92 332 97 357 92 b 515 151 440 92 483 111 b 564 308 548 190 564 243 l 564 658 l 694 658 l 694 142 b 696 74 694 124 695 101 b 700 0 697 46 698 21 l 640 0 b 570 -81 614 -25 591 -52 b 539 -165 549 -109 539 -137 b 558 -212 539 -184 545 -199 b 606 -231 571 -224 587 -231 b 644 -222 619 -231 631 -228 b 679 -200 657 -217 669 -209 l 710 -262 "},"Ŵ":{"ha":1372,"x_min":0,"x_max":0,"o":"m 382 200 l 613 983 l 764 983 l 993 200 l 996 200 l 1213 983 l 1358 983 l 1069 0 l 926 0 l 688 790 l 685 790 l 446 0 l 303 0 l 14 983 l 163 983 l 379 200 m 793 1061 l 689 1199 l 583 1061 l 458 1061 l 614 1261 l 764 1261 l 919 1061 "},"ŵ":{"ha":1074,"x_min":0,"x_max":0,"o":"m 310 156 l 313 156 l 469 658 l 607 658 l 767 156 l 769 156 l 918 658 l 1056 658 l 838 0 l 701 0 l 539 494 l 536 494 l 375 0 l 239 0 l 19 658 l 161 658 m 640 783 l 536 921 l 431 783 l 306 783 l 461 983 l 611 983 l 767 783 "},"Ŷ":{"ha":867,"x_min":0,"x_max":0,"o":"m 364 0 l 364 425 l -4 983 l 165 983 l 438 539 l 711 983 l 871 983 l 503 425 l 503 0 m 540 1061 l 436 1199 l 331 1061 l 206 1061 l 361 1261 l 511 1261 l 667 1061 "},"ŷ":{"ha":700,"x_min":0,"x_max":0,"o":"m 365 142 l 547 658 l 686 658 l 367 -156 b 331 -230 356 -183 344 -208 b 285 -285 318 -252 302 -270 b 223 -321 267 -301 247 -312 b 139 -333 199 -329 171 -333 b 97 -331 125 -333 111 -333 b 53 -324 82 -330 68 -327 l 65 -208 b 131 -219 88 -216 109 -219 b 207 -191 165 -219 190 -210 b 253 -110 224 -172 239 -145 l 294 0 l 13 658 l 158 658 l 363 142 m 465 783 l 361 921 l 256 783 l 131 783 l 286 983 l 436 983 l 592 783 "},"Ź":{"ha":822,"x_min":0,"x_max":0,"o":"m 213 122 l 776 122 l 776 0 l 46 0 l 46 121 l 600 863 l 57 863 l 57 983 l 768 983 l 768 863 m 314 1061 l 451 1261 l 610 1261 l 419 1061 "},"ź":{"ha":642,"x_min":0,"x_max":0,"o":"m 207 110 l 597 110 l 597 0 l 46 0 l 46 107 l 418 551 l 64 551 l 64 658 l 582 658 l 582 551 m 228 783 l 367 983 l 524 983 l 335 783 "},"Ż":{"ha":822,"x_min":0,"x_max":0,"o":"m 213 122 l 776 122 l 776 0 l 46 0 l 46 121 l 600 863 l 57 863 l 57 983 l 768 983 l 768 863 m 499 1174 b 473 1114 499 1150 490 1130 b 411 1090 456 1098 435 1090 b 350 1115 387 1090 367 1098 b 325 1174 333 1131 325 1150 b 350 1234 325 1198 333 1218 b 411 1258 367 1250 387 1258 b 473 1234 435 1258 456 1250 b 499 1174 490 1218 499 1198 "},"ż":{"ha":642,"x_min":0,"x_max":0,"o":"m 207 110 l 597 110 l 597 0 l 46 0 l 46 107 l 418 551 l 64 551 l 64 658 l 582 658 l 582 551 m 418 896 b 392 836 418 872 409 852 b 331 813 375 820 355 813 b 269 837 306 813 286 821 b 244 896 253 853 244 873 b 269 956 244 920 253 940 b 331 981 286 972 306 981 b 392 956 355 981 375 972 b 418 896 409 940 418 920 "},"ƒ":{"ha":826,"x_min":0,"x_max":0,"o":"m 476 486 l 390 43 b 363 -53 384 8 375 -24 b 317 -127 350 -81 335 -106 b 249 -176 298 -148 275 -164 b 153 -193 222 -187 190 -193 b 86 -185 131 -193 108 -190 b 25 -160 64 -179 44 -171 l 78 -61 b 112 -76 88 -68 99 -72 b 147 -81 124 -79 136 -81 b 197 -69 167 -81 183 -77 b 229 -37 210 -61 221 -50 b 249 10 238 -23 244 -8 b 263 65 254 27 259 46 l 343 486 l 189 486 l 189 588 l 363 588 l 397 764 b 422 854 403 795 411 825 b 465 929 432 883 447 908 b 531 981 483 950 505 968 b 628 1000 558 994 590 1000 b 705 989 655 1000 680 996 b 775 958 729 981 753 971 l 719 860 b 682 877 707 867 695 873 b 642 883 669 881 656 883 b 589 868 620 883 603 878 b 555 831 575 858 564 845 b 535 781 546 816 539 799 b 524 732 530 763 526 747 l 496 588 l 656 588 l 656 486 "},"Ș":{"ha":790,"x_min":0,"x_max":0,"o":"m 608 801 b 529 867 589 828 563 850 b 417 893 496 884 458 893 b 349 884 394 893 372 890 b 288 855 327 878 306 868 b 242 805 269 841 254 825 b 225 733 231 785 225 761 b 241 666 225 706 230 684 b 284 620 252 648 266 633 b 348 588 302 608 323 597 b 426 561 372 579 399 570 b 528 526 460 551 494 539 b 621 475 562 513 593 496 b 689 395 649 454 671 427 b 715 274 706 363 715 323 b 687 141 715 223 706 178 b 611 48 668 103 643 72 b 502 -7 580 23 543 5 b 375 -25 461 -19 419 -25 b 195 11 313 -25 253 -13 b 51 118 137 35 89 71 l 158 208 b 251 125 181 174 213 146 b 378 93 290 104 332 93 b 447 103 401 93 424 96 b 510 133 470 109 491 119 b 557 185 529 147 545 165 b 575 261 569 206 575 231 b 556 335 575 291 569 316 b 506 386 544 355 527 372 b 431 422 484 400 459 412 b 342 451 403 431 373 441 b 249 485 310 461 279 472 b 167 537 218 499 191 516 b 108 614 143 558 123 583 b 86 728 94 644 86 682 b 116 854 86 777 96 819 b 194 942 136 889 162 919 b 302 992 226 965 262 982 b 424 1008 342 1003 383 1008 b 585 978 481 1008 535 998 b 706 896 635 957 675 930 l 608 801 m 261 -326 l 350 -62 l 479 -62 l 371 -326 "},"ș":{"ha":617,"x_min":0,"x_max":0,"o":"m 468 492 b 406 551 453 516 432 535 b 315 574 379 566 349 574 b 271 569 300 574 286 572 b 231 553 256 566 243 560 b 203 527 220 547 210 538 b 193 488 197 516 193 503 b 231 426 193 460 206 439 b 343 389 256 412 293 400 b 431 363 375 381 404 373 b 501 324 457 352 481 340 b 547 269 521 309 536 291 b 564 194 558 248 564 223 b 542 96 564 156 556 123 b 483 30 527 69 507 47 b 399 -7 458 13 430 0 b 301 -18 367 -14 335 -18 b 155 11 251 -18 203 -8 b 36 100 107 31 68 60 l 129 179 b 202 114 147 153 171 131 b 304 88 233 96 267 88 b 352 92 321 88 337 89 b 394 108 367 96 381 101 b 424 138 406 116 416 125 b 435 183 431 150 435 165 b 391 251 435 214 420 237 b 263 293 362 266 319 280 b 195 313 240 299 218 305 b 133 346 172 321 152 332 b 88 398 115 360 100 377 b 71 475 77 419 71 444 b 92 566 71 510 78 541 b 149 628 107 591 125 612 b 228 665 172 645 198 657 b 319 676 257 672 288 676 b 456 649 367 676 412 667 b 558 568 500 630 534 603 l 468 492 m 174 -326 l 263 -62 l 392 -62 l 283 -326 "},"Ț":{"ha":790,"x_min":0,"x_max":0,"o":"m 326 0 l 326 863 l 11 863 l 11 983 l 779 983 l 779 863 l 464 863 l 464 0 m 264 -326 l 353 -62 l 482 -62 l 374 -326 "},"ț":{"ha":457,"x_min":0,"x_max":0,"o":"m 260 551 l 260 208 b 282 123 260 169 267 140 b 353 97 297 106 320 97 b 392 101 365 97 378 99 b 429 114 406 104 418 108 l 433 7 b 381 -6 418 1 400 -3 b 322 -11 362 -9 343 -11 b 180 40 260 -11 213 6 b 131 194 147 75 131 126 l 131 551 l 4 551 l 4 658 l 131 658 l 131 847 l 260 847 l 260 658 l 435 658 l 435 551 m 144 -326 l 233 -62 l 363 -62 l 254 -326 "},"ˆ":{"ha":347,"x_min":0,"x_max":0,"o":"m 278 783 l 174 921 l 68 783 l -57 783 l 99 983 l 249 983 l 404 783 "},"ˇ":{"ha":347,"x_min":0,"x_max":0,"o":"m 99 783 l -56 983 l 69 983 l 175 846 l 281 983 l 403 983 l 247 783 "},"ˉ":{"ha":347,"x_min":0,"x_max":0,"o":"m -32 1107 l -32 1200 l 379 1200 l 379 1107 "},"˘":{"ha":347,"x_min":0,"x_max":0,"o":"m 394 983 b 326 840 389 919 366 872 b 174 792 285 808 235 792 b 20 840 112 792 60 808 b -47 983 -20 872 -43 919 l 31 983 b 81 907 37 948 54 923 b 174 883 107 891 138 883 b 268 905 212 883 243 891 b 318 983 293 919 310 945 l 394 983 "},"˙":{"ha":347,"x_min":0,"x_max":0,"o":"m 261 896 b 235 836 261 872 253 852 b 174 813 218 820 198 813 b 113 837 150 813 129 821 b 88 896 96 853 88 873 b 113 956 88 920 96 940 b 174 981 129 972 150 981 b 235 956 198 981 218 972 b 261 896 253 940 261 920 "},"˚":{"ha":347,"x_min":0,"x_max":0,"o":"m 314 907 b 273 808 314 867 300 834 b 174 769 246 782 213 769 b 119 780 154 769 136 773 b 76 808 103 787 88 796 b 46 851 63 820 53 835 b 35 906 38 868 35 886 b 75 1004 35 945 48 978 b 174 1043 102 1030 135 1043 b 273 1004 213 1043 246 1030 b 314 907 300 978 314 946 m 256 907 b 231 963 256 929 247 948 b 174 985 215 977 196 985 b 117 963 152 985 134 977 b 93 907 101 948 93 929 b 117 851 93 885 101 866 b 174 828 134 835 152 828 b 231 850 196 828 215 835 b 256 907 247 865 256 884 "},"˛":{"ha":347,"x_min":0,"x_max":0,"o":"m 286 -262 b 224 -300 268 -278 247 -291 b 154 -314 202 -309 178 -314 b 103 -306 137 -314 120 -311 b 60 -282 87 -300 73 -292 b 31 -244 48 -272 38 -259 b 19 -193 23 -228 19 -212 b 32 -135 19 -174 24 -154 b 64 -80 40 -115 51 -97 b 106 -31 77 -63 91 -47 b 151 8 122 -16 137 -3 l 226 8 b 186 -33 213 -5 199 -18 b 151 -76 173 -47 161 -62 b 125 -121 140 -91 131 -106 b 115 -165 119 -136 115 -150 b 135 -212 115 -184 122 -199 b 182 -231 148 -224 163 -231 b 221 -222 195 -231 208 -228 b 256 -200 234 -217 245 -209 l 286 -262 "},"˜":{"ha":347,"x_min":0,"x_max":0,"o":"m -67 794 b -52 853 -63 815 -58 834 b -26 905 -46 872 -37 890 b 15 942 -15 920 -2 932 b 75 956 31 951 51 956 b 128 947 93 956 110 953 b 179 928 147 942 163 935 b 230 906 198 919 215 912 b 272 897 245 900 259 897 b 317 917 293 897 308 904 b 339 961 327 931 334 945 l 414 961 b 399 902 410 941 405 921 b 374 851 393 883 385 866 b 332 814 363 835 349 823 b 272 800 315 805 295 800 b 218 809 255 800 237 803 b 165 829 200 815 182 822 b 117 850 149 838 133 844 b 75 858 102 856 88 858 b 31 838 56 858 41 852 b 10 794 22 825 14 810 l -67 794 "},"˝":{"ha":347,"x_min":0,"x_max":0,"o":"m -53 783 l 86 983 l 244 983 l 54 783 m 201 783 l 340 983 l 497 983 l 308 783 "},"–":{"ha":556,"x_min":0,"x_max":0,"o":"m 42 288 l 42 392 l 514 392 l 514 288 "},"—":{"ha":833,"x_min":0,"x_max":0,"o":"m 42 288 l 42 392 l 792 392 l 792 288 "},"‘":{"ha":342,"x_min":0,"x_max":0,"o":"m 283 983 l 189 636 l 58 636 l 174 983 "},"’":{"ha":342,"x_min":0,"x_max":0,"o":"m 58 636 l 154 983 l 283 983 l 168 636 "},"‚":{"ha":342,"x_min":0,"x_max":0,"o":"m 58 -185 l 154 163 l 283 163 l 168 -185 "},"“":{"ha":592,"x_min":0,"x_max":0,"o":"m 283 983 l 189 636 l 58 636 l 174 983 m 533 983 l 439 636 l 308 636 l 424 983 "},"”":{"ha":592,"x_min":0,"x_max":0,"o":"m 308 636 l 404 983 l 533 983 l 418 636 m 58 636 l 154 983 l 283 983 l 168 636 "},"„":{"ha":592,"x_min":0,"x_max":0,"o":"m 308 -185 l 404 163 l 533 163 l 418 -185 m 58 -185 l 154 163 l 283 163 l 168 -185 "},"†":{"ha":799,"x_min":0,"x_max":0,"o":"m 742 701 l 742 592 l 461 592 l 461 -175 l 336 -175 l 336 592 l 57 592 l 57 701 l 336 701 l 336 983 l 461 983 l 461 701 "},"‡":{"ha":799,"x_min":0,"x_max":0,"o":"m 731 722 l 731 613 l 461 613 l 461 196 l 731 196 l 731 88 l 461 88 l 461 -175 l 336 -175 l 336 88 l 67 88 l 67 196 l 336 196 l 336 613 l 67 613 l 67 722 l 336 722 l 336 983 l 461 983 l 461 722 "},"•":{"ha":694,"x_min":0,"x_max":0,"o":"m 101 492 b 121 588 101 526 108 558 b 174 665 134 617 151 643 b 251 718 196 688 222 705 b 347 738 281 731 313 738 b 443 718 381 738 413 731 b 521 665 473 705 499 688 b 574 588 543 643 561 617 b 593 492 587 558 593 526 b 574 396 593 457 587 425 b 521 318 561 366 543 340 b 443 265 499 296 473 278 b 347 246 413 252 381 246 b 251 265 313 246 281 252 b 174 318 222 278 196 296 b 121 396 151 340 134 366 b 101 492 108 425 101 457 "},"…":{"ha":1389,"x_min":0,"x_max":0,"o":"m 121 97 b 153 174 121 127 132 152 b 232 206 175 195 201 206 b 310 175 262 206 288 195 b 343 100 332 155 343 130 b 310 24 343 70 332 45 b 232 -8 289 2 263 -8 b 190 0 217 -8 203 -6 b 154 22 176 6 164 13 b 130 56 144 31 136 43 b 121 97 124 69 121 82 m 583 97 b 616 174 583 127 594 152 b 694 206 638 195 664 206 b 772 175 724 206 750 195 b 806 100 794 155 806 130 b 773 24 806 70 795 45 b 694 -8 751 2 725 -8 b 652 0 680 -8 666 -6 b 617 22 639 6 627 13 b 592 56 606 31 598 43 b 583 97 586 69 583 82 m 1046 97 b 1078 174 1046 127 1057 152 b 1157 206 1100 195 1126 206 b 1235 175 1187 206 1213 195 b 1268 100 1257 155 1268 130 b 1235 24 1268 70 1257 45 b 1157 -8 1214 2 1188 -8 b 1115 0 1142 -8 1128 -6 b 1079 22 1101 6 1089 13 b 1055 56 1069 31 1061 43 b 1046 97 1049 69 1046 82 "}}}
